/* XPM */
static char* picture[] = {
"29 26 296 2",
"  	c #00000000",
"XX	c #00010101",
"++	c #ff828074",
"..	c #ff49483f",
"||	c #ff88867b",
"//	c #ff8c8a7f",
"06	c #ff2c2b25",
"07	c #ff424139",
"08	c #ff090906",
"09	c #ff383730",
"0a	c #ff77756a",
"0b	c #ff7e7c70",
"0c	c #ff8a897e",
"0d	c #ff87867a",
"0e	c #ff858478",
"0f	c #ff7f7d71",
"0g	c #ff767469",
"0h	c #ff87857a",
"0i	c #ff6b695e",
"0j	c #ff4e4d44",
"0k	c #ff8b897e",
"0l	c #ff838175",
"0m	c #ff8a887d",
"0n	c #ff7c7a6f",
"0o	c #ff67665a",
"0p	c #ff737166",
"0q	c #ff4b4a41",
"0r	c #ff43423a",
"0s	c #ff7a786c",
"0t	c #ff0a0906",
"0u	c #ff3f3e36",
"0v	c #ff858378",
"0w	c #ff8b8a7f",
"0x	c #ff79776b",
"0y	c #ff8d8b80",
"0z	c #ff807e72",
"10	c #ff807f73",
"11	c #ff656358",
"12	c #ff56544a",
"13	c #ff6a695d",
"14	c #ff5a594e",
"15	c #ff21201b",
"16	c #ff6b6a5e",
"17	c #ff716f64",
"18	c #ff35342d",
"19	c #ff44433b",
"1a	c #ff1c1b16",
"1b	c #ff0b0a07",
"1c	c #ff57554b",
"1d	c #ff504f46",
"1e	c #ff49473e",
"1f	c #ff7b796d",
"1g	c #ff79786c",
"1h	c #ff69675c",
"1i	c #ff2e2d26",
"1j	c #ff8c8b7f",
"1k	c #ff8c8b80",
"1l	c #ff89887d",
"1m	c #ff848277",
"1n	c #ff828175",
"1o	c #ff504e45",
"1p	c #ff838276",
"1q	c #ff6a685d",
"1r	c #ff46453c",
"1s	c #ff3f3e35",
"1t	c #ff767569",
"1u	c #ff6e6c61",
"1v	c #ff32312a",
"1w	c #ff7d7b6f",
"1x	c #ff45443c",
"1y	c #ff636156",
"1z	c #ff727165",
"20	c #ff646358",
"21	c #ff14140f",
"22	c #ff747367",
"23	c #ff8e8c81",
"24	c #ff1b1a16",
"25	c #ff535248",
"26	c #ff292822",
"27	c #ff656459",
"28	c #ff838176",
"29	c #ff5a584e",
"2a	c #ff11110c",
"2b	c #ff0c0b08",
"2c	c #ff817f73",
"2d	c #ff7b7a6e",
"2e	c #ff414038",
"2f	c #ff191814",
"2g	c #ff12120e",
"2h	c #ff848377",
"2i	c #ff100f0b",
"2j	c #ff201f1b",
"2k	c #ff5b5a50",
"2l	c #ff5b594f",
"2m	c #ff605e54",
"2n	c #ff7e7d71",
"2o	c #ff0e0e0a",
"2p	c #ff706e63",
"2q	c #ff68665b",
"2r	c #ff1f1f1a",
"2s	c #ff191915",
"2t	c #ff11110d",
"2u	c #ff4d4c43",
"2v	c #ff717064",
"2w	c #ff141310",
"2x	c #ff5f5d53",
"2y	c #ff54534a",
"2z	c #ff1e1d19",
"30	c #ff080805",
"31	c #ff4e4c43",
"32	c #ff615f55",
"33	c #ff2d2c26",
"34	c #ff080806",
"35	c #ff3d3c34",
"36	c #ff151511",
"37	c #ff626156",
"38	c #ff2e2e28",
"39	c #ff0f0f0b",
"3a	c #ff1c1b17",
"3b	c #ffc1c1c1",
"3c	c #ffc7c7c7",
"3d	c #ff080705",
"3e	c #ff48463e",
"3f	c #ff282722",
"3g	c #ff32312b",
"3h	c #ff0e0d09",
"3i	c #ff3b3a33",
"3j	c #ff4e4d43",
"3k	c #ff47453c",
"3l	c #fc5b5a4f",
"3m	c #ff6c6b5f",
"3n	c #ff716f63",
"3o	c #ff626056",
"3p	c #ff4c4b41",
"3q	c #ff3b3a32",
"3r	c #ff35332b",
"3s	c #ff605e53",
"3t	c #ff45433b",
"3u	c #ff6f6d61",
"3v	c #ff302f28",
"3w	c #ff22211b",
"3x	c #ff7f7e72",
"3y	c #ff7b796e",
"3z	c #ff211f19",
"40	c #ff6c6a5e",
"41	c #ff6d6b5f",
"42	c #ff545348",
"43	c #ff7d7c70",
"44	c #ff1e1e18",
"45	c #ff1f1e19",
"46	c #fc5d5b50",
"47	c #ff818074",
"48	c #ff525147",
"49	c #ff4a493f",
"4a	c #ff3a3931",
"4b	c #ff32322a",
"4c	c #ff2d2c25",
"4d	c #ff2b2a23",
"4e	c #ff44423a",
"4f	c #ff777569",
"4g	c #ff161610",
"4h	c #ff616055",
"4i	c #ff2a2923",
"4j	c #ff23221c",
"4k	c #ff21201a",
"4l	c #ff393730",
"4m	c #ff47453d",
"4n	c #ff191914",
"4o	c #ff5b594e",
"4p	c #ff7f7d72",
"4q	c #ff8e8d82",
"4r	c #ff88877c",
"4s	c #ff666459",
"4t	c #ff45443b",
"4u	c #ff1c1c16",
"4v	c #ff393831",
"4w	c #ff605f55",
"4x	c #ff69685c",
"4y	c #ff12110c",
"4z	c #ff1a1915",
"50	c #ff908e83",
"51	c #ff8d8c80",
"52	c #ff302f29",
"53	c #ff1a1914",
"54	c #ff1e1d18",
"55	c #ff4d4c42",
"56	c #ff58574d",
"57	c #ff13130e",
"58	c #ff303029",
"59	c #ff58564c",
"5a	c #ff616056",
"5b	c #ff5a594f",
"5c	c #ff3f3d36",
"5d	c #ff13120e",
"5e	c #ff0d0b08",
"5f	c #ff727065",
"5g	c #ff5f5e53",
"5h	c #ff1d1d18",
"5i	c #ff0c0c08",
"5j	c #ff0c0a06",
"5k	c #ff88877b",
"5l	c #ff868479",
"5m	c #ff1f1e1a",
"5n	c #ff171613",
"5o	c #ff3f3e37",
"5p	c #ff7c7a6e",
"5q	c #ff5d5c51",
"5r	c #ff817f74",
"5s	c #ff767468",
"5t	c #ff48473f",
"5u	c #ff0d0c09",
"5v	c #ff0a0a07",
"5w	c #ff151310",
"5x	c #ff55544a",
"5y	c #ff6d6b60",
"5z	c #ff56554b",
"60	c #ff0e0d0a",
"61	c #ff36362f",
"62	c #ff181713",
"63	c #ff7a796d",
"64	c #ff78766b",
"65	c #ff33322c",
"66	c #ff181814",
"67	c #ff12110e",
"68	c #ff373730",
"69	c #ff373630",
"6a	c #ff141410",
"6b	c #ff747267",
"6c	c #ff6e6d61",
"6d	c #ff757368",
"6e	c #ff706f63",
"6f	c #ff5d5c52",
"6g	c #ff25241f",
"6h	c #ff21201c",
"6i	c #ff0b0b08",
"6j	c #ff636157",
"6k	c #ff5c5b50",
"6l	c #ff47463d",
"6m	c #ff2c2b26",
"6n	c #ff191815",
"6o	c #ff21211c",
"6p	c #ff2b2924",
"6q	c #ff12120f",
"6r	c #ffbfbfbf",
"6s	c #ff43423b",
"6t	c #ff3c3b34",
"6u	c #ff6f6d62",
"6v	c #ff6d6c60",
"6w	c #ff48473e",
"6x	c #ff4f4e45",
"6y	c #ff22221d",
"6z	c #ff161512",
"70	c #ff1e1e1a",
"71	c #ffb7b7b7",
"72	c #ffc4c4c4",
"73	c #ff33322b",
"74	c #ff161511",
"75	c #ff090806",
"76	c #ff636257",
"77	c #ff36352f",
"78	c #ff35342e",
"79	c #ff0b0b09",
"7a	c #ffb3b3b3",
"7b	c #ffcbcbcb",
"7c	c #ff55534a",
"7d	c #ff67665b",
"7e	c #ff5e5c52",
"7f	c #ff1e1e19",
"7g	c #ff1b1a15",
"7h	c #ff151410",
"7i	c #ffcacaca",
"7j	c #ffcdcdcd",
"7k	c #ff060604",
"7l	c #ff424138",
"7m	c #ff545349",
"7n	c #ff646258",
"7o	c #ff272721",
"7p	c #ff49473f",
"7q	c #ff13130f",
"7r	c #ff2c2c2a",
"7s	c #ff5b5a4f",
"7t	c #ff57564c",
"7u	c #ff515047",
"7v	c #ff4c4b42",
"7w	c #ff4b4940",
"7x	c #ff525047",
"7y	c #ff5c5a50",
"7z	c #ff525148",
"80	c #ff2e2d27",
"81	c #ff0c0b07",
"82	c #ff070604",
"83	c #ff403f37",
"84	c #030c0c09",
"85	c #ff272621",
"86	c #ff23231d",
"87	c #ff12120d",
"  XX          XXXXXX    XX  XX    XX  XXXX  XX  XX    XX  ",
"          XX      4o270p5f0p2p5y0o2x31XX    XX    XX    XX",
"  XX  XX  XX  460g4p280l0z0b5p0s1t6b132x31XX  XXXX    XX  ",
"XX  XX  XXXX40++||0d0v2c5g2m5q5z2v0p176u767c7lXXXX  XX    ",
"          0x0v0c1l0l0i1w2h++2n0s0i2y326v16277m35XXXX      ",
"  XX  XX3u0h0k0k0f220k//0m||1p0f0x6c2535377d7n1d09XX      ",
"XX    3s0e0y//47160m230y//5k282c2d0p2q6w077e1y7s1r  XX    ",
"XX    0b//0y0e481w2350//0w0d0e0z0n0g1q2y773e37327x18  XX  ",
"XXXX3l0v1j1j41120l4q511k0m0h1m0b636d0i2k09061d2m1c83XXXXXX",
"  XX3m||1k||4212++0c0k0m0d5l5r0n641z0o14787f07147y3e3fXX  ",
"XX  1f0c0w++1r490a4r||0h2h++0b0s226e6j6x387g3g7t29..26    ",
"  3j1g0c0w0f1s4a4h101n0l102n0s0g2v0o6k0u2r7h067u1c..06    ",
"  1e0a0d1l0z1s4b1x4s0n2d0n0x5s2p1h6f6l332i2a7o2u7z1985  XX",
"XX3k3n0e0h100j4c4i4t2913171u2q202l0r6m36392o3g0q1o0786XX  ",
"  1e3o0f1m1p114d4j15522e..0q5t2e656g6n2g3936090q0j3i1a    ",
"    3p0g1n++1t4e4k4u532f5h5m2r2s662z6o6y793f0r7v191v87XXXX",
"  XX3q1h1g3x43134l2421572i2o5u602w6h6p6z3a091x7w3i150tXX  ",
"  XX3r3t0i3y1f0a1y4v542g5i1b5v0t672s6q707a3b7p0u803h      ",
"  XX  1i1o1q0a4f1z4w55582j5n5w2t2w2z33713b3c0u182f0tXXXXXX",
"    XX1i3v0j111u17161159..5o096168086r723c7i383a8184  XX  ",
"  XX    3w060714204x0o5a2k121d2u0q..6s1b7b7j7q3082XX  XXXX",
"  XXXX    3z441v4m25565b2l1c5x0j..0r6t732t2b7r34      XX  ",
"XX  XXXX    454g4n26185c190r070u69062j743d7k3h    XXXXXX  ",
"XX  XX      XX15214y2a5d1a241a626a6i08753dXX0t      XX    ",
"  XXXX      XXXX  4z2b5e5j081b08083034      XX  XX  XX    ",
"XXXX      XXXX  XX    XX    XXXXXXXXXX      XXXX  XXXXXXXX"};