/* XPM */
static char* picture[] = {
"29 26 287 2",
"  	c #ff000000",
"XX	c #ff010101",
"++	c #00d2d2d2",
"..	c #0089877c",
"||	c #00070705",
"//	c #00090906",
"06	c #0049483f",
"07	c #008c8a7f",
"08	c #00838175",
"09	c #0046453d",
"0a	c #0045443c",
"0b	c #008d8b80",
"0c	c #0021211b",
"0d	c #002d2c26",
"0e	c #00545349",
"0f	c #000a0906",
"0g	c #004c4b42",
"0h	c #000a0a07",
"0i	c #00646358",
"0j	c #002b2a24",
"0k	c #0048473e",
"0l	c #00393831",
"0m	c #00737166",
"0n	c #00858378",
"0o	c #007e7c70",
"0p	c #0087867a",
"0q	c #00848276",
"0r	c #007b7a6e",
"0s	c #00504f46",
"0t	c #00d1d1d1",
"0u	c #004b4a40",
"0v	c #0047463e",
"0w	c #006a695d",
"0x	c #0034332c",
"0y	c #00201f1a",
"0z	c #00747267",
"10	c #00383730",
"11	c #0079786c",
"12	c #0047463d",
"13	c #006c6b5f",
"14	c #001b1b16",
"15	c #0068665b",
"16	c #005c5b50",
"17	c #000b0a07",
"18	c #007d7b6f",
"19	c #000b0b07",
"1a	c #00828074",
"1b	c #0010100c",
"1c	c #000c0b08",
"1d	c #00535248",
"1e	c #003d3c34",
"1f	c #000d0d09",
"1g	c #00424139",
"1h	c #00080805",
"1i	c #0043423a",
"1j	c #003f3e36",
"1k	c #004b4a41",
"1l	c #005f5e53",
"1m	c #006f6d62",
"1n	c #00818074",
"1o	c #00848277",
"1p	c #00757468",
"1q	c #00646257",
"1r	c #0044433b",
"1s	c #002f2e27",
"1t	c #005f5d53",
"1u	c #00817f73",
"1v	c #008c8b7f",
"1w	c #008c8b80",
"1x	c #008b8a7f",
"1y	c #00848377",
"1z	c #006b6a5e",
"20	c #004e4d43",
"21	c #008b897e",
"22	c #00868479",
"23	c #00807f73",
"24	c #00535148",
"25	c #0078766a",
"26	c #007e7d71",
"27	c #0078766b",
"28	c #00666459",
"29	c #00616055",
"2a	c #002c2b25",
"2b	c #0077766a",
"2c	c #00706f63",
"2d	c #005c5b51",
"2e	c #0069675c",
"2f	c #00605e54",
"2g	c #0024231e",
"2h	c #0066655a",
"2i	c #00838276",
"2j	c #008e8c81",
"2k	c #001c1b16",
"2l	c #005e5d52",
"2m	c #006c6a5f",
"2n	c #0056554b",
"2o	c #007f7e72",
"2p	c #007d7c70",
"2q	c #005d5c51",
"2r	c #003c3b34",
"2s	c #00838176",
"2t	c #001d1d18",
"2u	c #00626056",
"2v	c #006e6c61",
"2w	c #007e7c71",
"2x	c #00201f1b",
"2y	c #006f6e62",
"2z	c #0088867b",
"30	c #00282722",
"31	c #005a594e",
"32	c #00828175",
"33	c #007b796d",
"34	c #00514f46",
"35	c #000f0f0b",
"36	c #0033322b",
"37	c #007f7d72",
"38	c #00727165",
"39	c #00090806",
"3a	c #0031302a",
"3b	c #00171713",
"3c	c #00747266",
"3d	c #00727065",
"3e	c #004d4c43",
"3f	c #00141410",
"3g	c #0033322c",
"3h	c #00414038",
"3i	c #005d5c52",
"3j	c #0059574d",
"3k	c #005e5d53",
"3l	c #00080705",
"3m	c #00302f29",
"3n	c #003e3d35",
"3o	c #0036352e",
"3p	c #0022211c",
"3q	c #00191914",
"3r	c #03535147",
"3s	c #00716f64",
"3t	c #0069675b",
"3u	c #005a584e",
"3v	c #0037362e",
"3w	c #0035342d",
"3x	c #0056554a",
"3y	c #00737165",
"3z	c #00868579",
"40	c #002e2d26",
"41	c #0089887c",
"42	c #008a887d",
"43	c #007a786c",
"44	c #0032312a",
"45	c #0021201a",
"46	c #00807e73",
"47	c #006b695e",
"48	c #002d2c25",
"49	c #001e1d18",
"4a	c #007e7e7a",
"4b	c #0046443b",
"4c	c #006d6b60",
"4d	c #001d1d17",
"4e	c #00d3d2d2",
"4f	c #00626055",
"4g	c #004f4d43",
"4h	c #003b3a32",
"4i	c #0034332b",
"4j	c #00161510",
"4k	c #00070704",
"4l	c #00615f55",
"4m	c #00757367",
"4n	c #007d7b70",
"4o	c #002d2b25",
"4p	c #00626156",
"4q	c #00737266",
"4r	c #00717064",
"4s	c #004e4d44",
"4t	c #0023221d",
"4u	c #0013120e",
"4v	c #008e8d82",
"4w	c #008a897e",
"4x	c #0067665b",
"4y	c #0023221c",
"4z	c #001e1e18",
"50	c #0012110d",
"51	c #00181813",
"52	c #005b5a4f",
"53	c #0086857a",
"54	c #00626157",
"55	c #008d8c81",
"56	c #00908e83",
"57	c #00161611",
"58	c #001a1914",
"59	c #0049473f",
"5a	c #00656459",
"5b	c #00151510",
"5c	c #006a685d",
"5d	c #0047453d",
"5e	c #00151410",
"5f	c #0012120e",
"5g	c #0089887d",
"5h	c #008a897d",
"5i	c #0088877b",
"5j	c #00858478",
"5k	c #004f4e45",
"5l	c #0022221c",
"5m	c #005b594f",
"5n	c #0046453c",
"5o	c #0087857a",
"5p	c #007a796d",
"5q	c #000d0c08",
"5r	c #1d070705",
"5s	c #007c7a6e",
"5t	c #0058574c",
"5u	c #007f7d71",
"5v	c #006b6a5f",
"5w	c #0025241f",
"5x	c #004f4d44",
"5y	c #0057564c",
"5z	c #03080806",
"60	c #007a786d",
"61	c #0067665a",
"62	c #001f1f1a",
"63	c #000b0b08",
"64	c #00525147",
"65	c #001f1e19",
"66	c #00777569",
"67	c #0079776b",
"68	c #007c7a6f",
"69	c #00767468",
"6a	c #000e0e0b",
"6b	c #0032312b",
"6c	c #001a1915",
"6d	c #006e6d61",
"6e	c #0077756a",
"6f	c #00767469",
"6g	c #006a695e",
"6h	c #00605f55",
"6i	c #00373630",
"6j	c #0036352f",
"6k	c #00090805",
"6l	c #004c4b41",
"6m	c #00646258",
"6n	c #006d6c60",
"6o	c #0069685d",
"6p	c #00525047",
"6q	c #00181713",
"6r	c #0023231e",
"6s	c #003e3d36",
"6t	c #000a0a06",
"6u	c #003f3e35",
"6v	c #004a4840",
"6w	c #001a1a16",
"6x	c #000b0a08",
"6y	c #00060604",
"6z	c #0044433a",
"70	c #003c3b33",
"71	c #003a3932",
"72	c #00161512",
"73	c #000d0c09",
"74	c #0013130f",
"75	c #0054534a",
"76	c #001b1a16",
"77	c #00161612",
"78	c #0011110c",
"79	c #000f0e0a",
"7a	c #00191814",
"7b	c #00424038",
"7c	c #00636257",
"7d	c #00636156",
"7e	c #003d3c35",
"7f	c #0025251f",
"7g	c #002a2924",
"7h	c #00383831",
"7i	c #00605f54",
"7j	c #005a594f",
"7k	c #00545249",
"7l	c #004c4a41",
"7m	c #0049473e",
"7n	c #0059584d",
"7o	c #0057554b",
"7p	c #00525148",
"7q	c #00515047",
"7r	c #0036362f",
"7s	c #004a4940",
"7t	c #00272621",
"7u	c #000c0c08",
"7v	c #00080806",
"7w	c #002a2a23",
"7x	c #002c2c25",
"7y	c #002a2923",
"  XX          XXXXXX    XX  XX    XX  XXXX  XX  XX    XX  ",
"          XX      XX525c2v2y130w0i2n6lXX    XX    XX    XX",
"  XX  XX  XX++0t2e112o2s232w5s606638153i0uXX  XXXX    XX  ",
"XX  XX  XXXX0t++++++531o2w165t0e1p3c3d2y2u757bXXXX  XX    ",
"          1q++4e++++540z0o1a2p112h1d6m2v2m0i0e3nXXXX      ",
"  XX  XX1t0q4a0t4k0w0n075g0p3237676d1d6u0i150i340lXX      ",
"XX    3x1u1w07294l2i550b07..0q1a680z2e6v6z3k7c167m  XX    ",
"XX    3y410b..4f4m2j561v072z221u186e1z3j0l127d29243o  XX  ",
"XXXX3r1n1v0b234g4n4v2j0b5h2z0n370r6f6n3k700j0s7i7n0aXXXXXX",
"  XX1l0n1w211t0u264w1x215i5o3218113c6o3i710y7e7j2d7s7wXX  ",
"XX  1m..1x22201r0z....0p5j2s5u33693d283j0x760d7k310g7x    ",
"  XX0m..07084b4h2f1n2i0q1a2o332b0m6g1l0v0j777f3e7o0g3m    ",
"    3s3z42080u4i0a4x2p180o5p2738136h6p3g72783p0k7p0k0d  XX",
"XXXX3t1o0p08241s4o122q1m0m2c5v612f3e3g6w73797g1k0s0a7yXX  ",
"  XX3u0o1y1y4c2a2g4y0x5d5k1d34062r0j6q6x0h35361k7q1j3p    ",
"    061p080825090c4z142t5l305w623b1f//0h||2t1e1k060l3qXXXX",
"  XX3v1q4346260w102k575e1b1b1f63////||3l743a1i7l1j7t1fXX  ",
"  XX3w1r1z0r0r254p10585f1c5q1739||1h||3b2a1j0a1g7r3q1h    ",
"  XX  402047272b4q2l590d141b351c6a3f6r3m3h091i100y7uXXXXXX",
"    XX1s440s282c4r2m5a0e091e363a6b6i6s1i091g7h2g1c7v  XX  ",
"  XX    45480v2d2h13152u5m0e5x0g060k06123n3o2x19||XX  XXXX",
"  XXXX    490c0x4s2n162q2l315y640g0k3h0l0j7a0h//      XX  ",
"XX  XXXX    4d4j4t0d2r095n0v0a1g1e6j30140f0f1h    XXXXXX  ",
"XX  XX      XX0y4u505b2k2x0c0c656c3f6t////3lXX      XX    ",
"  XXXX      XXXX  511719170f190h0f6k396y    XX  XX  XX    ",
"XXXX      XXXX  XX    XX  5r5z||XXXXXX      XXXX  XXXXXXXX"};