/* XPM */
static char* picture[] = {
"29 26 281 2",
"  	c #ff000000",
"XX	c #ff010101",
"++	c #00d1d1d1",
"..	c #00393831",
"||	c #004c4b42",
"//	c #00828175",
"06	c #00080805",
"07	c #00424139",
"08	c #00403f37",
"09	c #00090906",
"0a	c #00737166",
"0b	c #00716f64",
"0c	c #0058574d",
"0d	c #0089877c",
"0e	c #00828074",
"0f	c #0049483f",
"0g	c #008d8b80",
"0h	c #008b897e",
"0i	c #00090805",
"0j	c #008c8a7f",
"0k	c #0087867a",
"0l	c #002d2c26",
"0m	c #00414038",
"0n	c #007a796d",
"0o	c #00605f54",
"0p	c #003e3d35",
"0q	c #005e5c52",
"0r	c #0056554b",
"0s	c #000a0906",
"0t	c #0044433b",
"0u	c #00656358",
"0v	c #0045443c",
"0w	c #00858478",
"0x	c #007b7a6e",
"0y	c #00848277",
"0z	c #00292822",
"10	c #00838176",
"11	c #007a786c",
"12	c #00d2d2d2",
"13	c #00080705",
"14	c #00848276",
"15	c #005d5c51",
"16	c #004c4a41",
"17	c #000c0c08",
"18	c #004b4a40",
"19	c #008a887d",
"1a	c #007d7c70",
"1b	c #00858378",
"1c	c #008e8c81",
"1d	c #0088867b",
"1e	c #003f3e36",
"1f	c #00515047",
"1g	c #0068665b",
"1h	c #0048473e",
"1i	c #0021201c",
"1j	c #007f7d71",
"1k	c #000a0a07",
"1l	c #000b0b07",
"1m	c #00070705",
"1n	c #002f2e28",
"1o	c #002c2b25",
"1p	c #00616055",
"1q	c #0035342c",
"1r	c #0079776b",
"1s	c #00868478",
"1t	c #00838276",
"1u	c #00615f55",
"1v	c #008a897e",
"1w	c #008c8b7f",
"1x	c #008b8a7e",
"1y	c #0087857a",
"1z	c #0077756a",
"20	c #0068675b",
"21	c #00706f63",
"22	c #00828075",
"23	c #00838175",
"24	c #0069675c",
"25	c #0079786c",
"26	c #004d4c42",
"27	c #00767569",
"28	c #005b5a50",
"29	c #00868579",
"2a	c #00383730",
"2b	c #00636257",
"2c	c #00272621",
"2d	c #0088877b",
"2e	c #0031302a",
"2f	c #00504e45",
"2g	c #0034332c",
"2h	c #0010100c",
"2i	c #00727065",
"2j	c #00807f73",
"2k	c #007c7b6f",
"2l	c #000d0d09",
"2m	c #005a594f",
"2n	c #001b1b16",
"2o	c #007e7d71",
"2p	c #00201f1a",
"2q	c #000b0a07",
"2r	c #0057564c",
"2s	c #0043423a",
"2t	c #007c7a6f",
"2u	c #006a685d",
"2v	c #001c1b17",
"2w	c #00777569",
"2x	c #0011110d",
"2y	c #0036352e",
"2z	c #004f4e45",
"30	c #0013120f",
"31	c #0037362f",
"32	c #00090806",
"33	c #00605e54",
"34	c #00747367",
"35	c #00717064",
"36	c #0069685c",
"37	c #0047463d",
"38	c #001b1b17",
"39	c #006b6a5f",
"3a	c #00151410",
"3b	c #004b4a41",
"3c	c #00171713",
"3d	c #0033322b",
"3e	c #0021201b",
"3f	c #00525148",
"3g	c #005a584e",
"3h	c #03545248",
"3i	c #00716f63",
"3j	c #0038372f",
"3k	c #0059574c",
"3l	c #00403e36",
"3m	c #002c2b24",
"3n	c #0034332b",
"3o	c #00656458",
"3p	c #008c8b80",
"3q	c #008b8a7f",
"3r	c #0089887d",
"3s	c #0023221c",
"3t	c #00807e72",
"3u	c #00434239",
"3v	c #000d0c09",
"3w	c #007f7e72",
"3x	c #00848377",
"3y	c #005c5a4f",
"3z	c #003a3931",
"40	c #002e2d26",
"41	c #00313029",
"42	c #004e4c43",
"43	c #00716f65",
"44	c #00060604",
"45	c #0020201b",
"46	c #0011100c",
"47	c #030f0f0b",
"48	c #00747266",
"49	c #00666559",
"4a	c #003d3c34",
"4b	c #002d2c25",
"4c	c #00cfcfcf",
"4d	c #003f3d35",
"4e	c #00191814",
"4f	c #0013120e",
"4g	c #005b594e",
"4h	c #007e7c70",
"4i	c #006e6d61",
"4j	c #008a897d",
"4k	c #003b3a34",
"4l	c #00cbcbcb",
"4m	c #00050403",
"4n	c #0012110d",
"4o	c #00626056",
"4p	c #00908e83",
"4q	c #008d8c81",
"4r	c #0057554b",
"4s	c #002d2c27",
"4t	c #002a2923",
"4u	c #0067665b",
"4v	c #0058574c",
"4w	c #000a0907",
"4x	c #008d8c80",
"4y	c #0023221d",
"4z	c #001e1e19",
"50	c #00171712",
"51	c #0032312b",
"52	c #0059584e",
"53	c #005a594e",
"54	c #0012120e",
"55	c #000d0b08",
"56	c #00858377",
"57	c #00817f73",
"58	c #001f1e1a",
"59	c #00100f0b",
"5a	c #005d5b51",
"5b	c #0045433b",
"5c	c #0079776c",
"5d	c #006e6d62",
"5e	c #000f0e0a",
"5f	c #00181713",
"5g	c #0056544b",
"5h	c #00090905",
"5i	c #0013130f",
"5j	c #003a3932",
"5k	c #00504f46",
"5l	c #0043413a",
"5m	c #006d6b60",
"5n	c #0058564c",
"5o	c #007a786d",
"5p	c #00807e73",
"5q	c #00706f64",
"5r	c #00656459",
"5s	c #001b1a16",
"5t	c #004e4d44",
"5u	c #00181814",
"5v	c #00545349",
"5w	c #006e6c61",
"5x	c #007d7b6f",
"5y	c #00757468",
"5z	c #00727165",
"60	c #006b695e",
"61	c #0036352f",
"62	c #004c4b41",
"63	c #00161511",
"64	c #006f6e63",
"65	c #00767468",
"66	c #00737266",
"67	c #005f5d53",
"68	c #000b0b08",
"69	c #003d3c35",
"6a	c #000c0b08",
"6b	c #006c6a5f",
"6c	c #006d6c60",
"6d	c #004d4b42",
"6e	c #00080b06",
"6f	c #00272721",
"6g	c #0022221d",
"6h	c #00080806",
"6i	c #006f6d62",
"6j	c #006b6a5e",
"6k	c #005e5d53",
"6l	c #00302f29",
"6m	c #0035352e",
"6n	c #0043423b",
"6o	c #0036362f",
"6p	c #fc0b0a08",
"6q	c #00666459",
"6r	c #005f5e53",
"6s	c #00393931",
"6t	c #003c3b34",
"6u	c #00292923",
"6v	c #00141410",
"6w	c #00161612",
"6x	c #00424039",
"6y	c #003c3b33",
"6z	c #00252520",
"70	c #005b5a4f",
"71	c #001e1d18",
"72	c #001a1a15",
"73	c #000e0e0a",
"74	c #0033322c",
"75	c #0046453d",
"76	c #00151511",
"77	c #0066655a",
"78	c #00636157",
"79	c #0024241e",
"7a	c #002b2a24",
"7b	c #0047463e",
"7c	c #003f3e35",
"7d	c #005e5d52",
"7e	c #004a4940",
"7f	c #00373630",
"7g	c #000a0a06",
"7h	c #004b4940",
"7i	c #0055544a",
"7j	c #005c5a50",
"7k	c #00525147",
"7l	c #0035342d",
"7m	c #001d1c18",
"7n	c #0046453c",
"7o	c #0048463e",
"7p	c #0025241f",
"7q	c #00161611",
"7r	c #fc0c0c09",
"7s	c #0013130e",
"  XX          XXXXXX    XX  XX    XX  XXXX  XX  XX    XX  ",
"          XX      4g4o2i2i0a215m20332zXX    XX    XX    XX",
"  XX  XX  XX  15484h//102j2o2t0n2w346b331fXX  XXXX    XX  ",
"XX  XX  XXXX0u3w0k0k1b220q0o0q5n5v0a356i6q2r07XXXX  XX    ",
"          21140h191b1g110y231j5o5w0c0v6j391g0r7cXXXX      ",
"  XX  XX3o0w0h0h0e4i0d0j192d145p11640c0m6r1g773f..XX      ",
"XX    3k1t0g0j3x49291c4x0j0d140e2t342u||2y70787d7h  XX    ",
"XX    1r1v0g0k3y271c4p1w0j1d1s2j5x1z39286s080o1p7i..  XX  ",
"XXXX3h//1w0g25261a1c4q0g190k1b1j0x656c6k6t0z||0o2m7nXXXXXX",
"  XX1p0w3p0h15181a4j1x1v1d290e2k1r663615..71..3g7j181oXX  ",
"XX  3i0d1x0w16070b1d2d1y56//2o0n5y350u0r3d721o3f3g||0l    ",
"  XX0a0d3q223u3z281a//10571j0n2w5z360q0t6u3a79||0r||2e    ",
"    0b1s3r10261q4a1u0n0x2k5c275q60676d6l6v2h3e1h7k7o1o  XX",
"XXXX0u1t1y230c404b1e4r240b5d2u5r0q371n3c17737a182f0t0zXX  ",
"  XX0c0x0y0y0b410l0l0l081h160f07612c3a1k0s2x3d7e1f0p3e    ",
"    0v0a0e//2542..4k4s4y582p1i5s3068060s0i1i1e3b372a7sXXXX",
"  XX1q1u1z3t++43072a2e4z595e2l1k0i0i1m066w742s160p7p17XX  ",
"  XX3j3l2011++++4c0m4t502l2q1k091m136e381n087b087l7q      ",
"  XX  3m0f241212++4l2f511i5f5i2x30386f6m6x750m7f7m2qXXXXXX",
"    XX3n0z12++++++4m0o52||0m5j2y3169076n1h08312p1l7r  XX  ",
"  XX    3s++06440v2b4u2b5a5g5k5t620f3b0t6y2g2v7g1mXX  XXXX",
"  XXXX    0i17454d1f4v532m2r0r2z0f0t0p6o6z761l32      XX  ",
"XX  XXXX  133v464e2c2g0p5b2s5l1e..1n6g3c090913    XXXXXX  ",
"XX  XX      XX474f4n2h542n2n2v5u636a090s06XXXX      XX    ",
"  XXXX      XXXX    4w55095h1l0s32066h6p    XX  XX  XX    ",
"XXXX      XXXX  XX    XX    XXXXXXXXXX      XXXX  XXXXXXXX"};