/* XPM */
static char* picture[] = {
"29 26 294 2",
"  	c #00000000",
"XX	c #00010101",
"++	c #ff090906",
"..	c #ff87857a",
"||	c #ff45443c",
"//	c #ff0a0906",
"06	c #ff33322b",
"07	c #ff8d8b80",
"08	c #ff7c7a6e",
"09	c #ff49483f",
"0a	c #ffd1d1d1",
"0b	c #ff716f64",
"0c	c #ff666459",
"0d	c #ff6e6d61",
"0e	c #ff838175",
"0f	c #ff7d7c70",
"0g	c #ff67655a",
"0h	c #ff22211c",
"0i	c #ff8a887d",
"0j	c #ff727065",
"0k	c #ff5d5b51",
"0l	c #ff36352e",
"0m	c #ff48473e",
"0n	c #ff44433b",
"0o	c #ff3f3e36",
"0p	c #ff46443c",
"0q	c #ff7b796d",
"0r	c #ff78766a",
"0s	c #ff4f4e45",
"0t	c #ff7e7d71",
"0u	c #ff88877b",
"0v	c #ff8b897e",
"0w	c #ff78776b",
"0x	c #ff6a695d",
"0y	c #ff4a4940",
"0z	c #ff828074",
"10	c #ff757468",
"11	c #ff8c8b80",
"12	c #ff828075",
"13	c #ff2e2d27",
"14	c #ff2d2c26",
"15	c #ff1b1b16",
"16	c #ff807f73",
"17	c #ff6b695e",
"18	c #ff848276",
"19	c #ff7a786c",
"1a	c #ff6f6e62",
"1b	c #ff1d1d18",
"1c	c #ff848277",
"1d	c #ff1c1b17",
"1e	c #ff171612",
"1f	c #ff37362f",
"1g	c #ff858377",
"1h	c #ff8b8a7e",
"1i	c #ff858378",
"1j	c #ff8b8a7f",
"1k	c #ff89887c",
"1l	c #ff6e6c61",
"1m	c #ff545349",
"1n	c #ff22211b",
"1o	c #ff88867b",
"1p	c #ff7e7c70",
"1q	c #ff7f7d72",
"1r	c #ff807e72",
"1s	c #ff7c7b6f",
"1t	c #ff56544b",
"1u	c #ff848377",
"1v	c #ff8c8a7f",
"1w	c #ff504e45",
"1x	c #ff3d3c34",
"1y	c #ff5d5c51",
"1z	c #ff757367",
"20	c #ff47463e",
"21	c #ff817f73",
"22	c #ff535248",
"23	c #ff4c4b41",
"24	c #ff706f64",
"25	c #ff4c4b42",
"26	c #ff8e8c81",
"27	c #ff35342d",
"28	c #ff100f0b",
"29	c #ff12110e",
"2a	c #ff818074",
"2b	c #ff69675c",
"2c	c #ff5e5d53",
"2d	c #ff1a1915",
"2e	c #ff191914",
"2f	c #ff656358",
"2g	c #ff5a584e",
"2h	c #ff0e0e0a",
"2i	c #ff87867a",
"2j	c #ff838276",
"2k	c #ff1b1a16",
"2l	c #ff5b594f",
"2m	c #ff706f63",
"2n	c #ff4d4c43",
"2o	c #ff10100c",
"2p	c #ff0d0d09",
"2q	c #ff59584d",
"2r	c #ff23221d",
"2s	c #ff0c0b08",
"2t	c #ff13120f",
"2u	c #ff3d3b34",
"2v	c #ff35342e",
"2w	c #ff43423a",
"2x	c #ff0b0b07",
"2y	c #ff545249",
"2z	c #ff7e7c71",
"30	c #ff767469",
"31	c #ff424139",
"32	c #ff504f46",
"33	c #ff5c5b51",
"34	c #ff090805",
"35	c #ff080705",
"36	c #ff0b0a07",
"37	c #ff090806",
"38	c #ff070705",
"39	c #ff3c3b34",
"3a	c #ff080805",
"3b	c #ff636157",
"3c	c #ff282722",
"3d	c #ff414038",
"3e	c #ff141410",
"3f	c #ff626056",
"3g	c #ff2c2b26",
"3h	c #ff4e4d44",
"3i	c #ffcdcdcd",
"3j	c #ff080806",
"3k	c #ff4c4a40",
"3l	c #ff434239",
"3m	c #ff444239",
"3n	c #fc5b5a4f",
"3o	c #ff7b796e",
"3p	c #ff747267",
"3q	c #ff3e3d34",
"3r	c #ff323029",
"3s	c #fc403f36",
"3t	c #ff5e5d52",
"3u	c #ff868479",
"3v	c #ff7f7e72",
"3w	c #ff292821",
"3x	c #ff8d8c80",
"3y	c #ff8c8b7f",
"3z	c #ff6c6b5f",
"40	c #ff1d1c17",
"41	c #ff69675b",
"42	c #ff6a685c",
"43	c #ff47453c",
"44	c #ff403f36",
"45	c #ff4a483f",
"46	c #ff79776c",
"47	c #ff1f1e19",
"48	c #ff8a897d",
"49	c #ff58564c",
"4a	c #ff5a594e",
"4b	c #ff4e4d43",
"4c	c #ff3b3a32",
"4d	c #ff2b2a23",
"4e	c #ff68665b",
"4f	c #ff767569",
"4g	c #ff15140f",
"4h	c #ff88877c",
"4i	c #ff858478",
"4j	c #ff2a2923",
"4k	c #ff25241e",
"4l	c #ff21201a",
"4m	c #ff31302a",
"4n	c #ff5f5d53",
"4o	c #ff656459",
"4p	c #ff151510",
"4q	c #ff5b5a4f",
"4r	c #ff8e8d81",
"4s	c #ff89877c",
"4t	c #ff1e1d18",
"4u	c #ff1c1b16",
"4v	c #ff5e5c52",
"4w	c #ff6c6a5f",
"4x	c #ff5f5e53",
"4y	c #ff8e8d82",
"4z	c #ff8f8d82",
"50	c #ff34332c",
"51	c #ff14140f",
"52	c #ff66655a",
"53	c #ff393831",
"54	c #ff13130e",
"55	c #ff7a796d",
"56	c #ff14130f",
"57	c #ff11100c",
"58	c #ff616055",
"59	c #ff0d0c08",
"5a	c #ff89887d",
"5b	c #ff8a897e",
"5c	c #ff87867b",
"5d	c #ff7b7a6e",
"5e	c #ff21201b",
"5f	c #ff47453d",
"5g	c #ff5d5c52",
"5h	c #ff868579",
"5i	c #ff868478",
"5j	c #ff0f0f0b",
"5k	c #ff55534a",
"5l	c #ff59574d",
"5m	c #ff828175",
"5n	c #ff79786c",
"5o	c #ff69685d",
"5p	c #ff0d0c09",
"5q	c #ff56554b",
"5r	c #ff1e1d19",
"5s	c #ff7a786d",
"5t	c #ff646358",
"5u	c #ff0b0a08",
"5v	c #ff0f0e0b",
"5w	c #ff32322b",
"5x	c #ff727165",
"5y	c #ff757368",
"5z	c #ff717064",
"60	c #ff69685c",
"61	c #ff36352f",
"62	c #ff13130f",
"63	c #ff3b3a33",
"64	c #ff57554b",
"65	c #ff727064",
"66	c #ff737166",
"67	c #ff515047",
"68	c #ff767468",
"69	c #ff747367",
"6a	c #ff67665a",
"6b	c #ff262520",
"6c	c #ff191915",
"6d	c #ff43423b",
"6e	c #ff2e2e28",
"6f	c #ff67665b",
"6g	c #ff6a685d",
"6h	c #ff0b0b08",
"6i	c #ff6d6c60",
"6j	c #ff525148",
"6k	c #ff515046",
"6l	c #ff59584e",
"6m	c #ff2d2c27",
"6n	c #ff0c0c08",
"6o	c #030b0a08",
"6p	c #ff6b6a5e",
"6q	c #ff48463e",
"6r	c #ff32312a",
"6s	c #ff2f2e28",
"6t	c #ff161612",
"6u	c #ff0a0a07",
"6v	c #ff3c3b33",
"6w	c #ff25241f",
"6x	c #ff535148",
"6y	c #ff626156",
"6z	c #ff4e4c43",
"70	c #ff2e2e27",
"71	c #ff34342f",
"72	c #ff43433e",
"73	c #ff41403b",
"74	c #ff33322e",
"75	c #ff151511",
"76	c #ff43413a",
"77	c #ff3e3d35",
"78	c #ff2f2f29",
"79	c #ff151410",
"7a	c #0335342e",
"7b	c #ff605f54",
"7c	c #ff636257",
"7d	c #ff32312b",
"7e	c #ff383831",
"7f	c #ff403f37",
"7g	c #ff070605",
"7h	c #ff605f55",
"7i	c #ff5f5e54",
"7j	c #ffcfcfcf",
"7k	c #ffcacaca",
"7l	c #ffc8c8c8",
"7m	c #ffc5c5c5",
"7n	c #ff4c4a41",
"7o	c #ff34332d",
"7p	c #ff55544a",
"7q	c #ff5c5a50",
"7r	c #ffcecece",
"7s	c #ff040403",
"7t	c #ff4b4a41",
"7u	c #ff44433c",
"7v	c #ff3a3a32",
"7w	c #ff1a1a15",
"7x	c #ff070704",
"7y	c #ffd0d0d0",
"7z	c #ff191814",
"80	c #ff383730",
"81	c #ff302f28",
"82	c #ff21211c",
"83	c #030c0c09",
"84	c #ff282821",
"85	c #ff0f0e0a",
"  XX          XXXXXX    XX  XX    XX  XXXX  XX  XX    XX  ",
"          XX      4q4x1a0b2m0d0x0c6423XX    XX    XX    XX",
"  XX  XX  XX  1y1z0f2a0e1r0t081930652b0k09XX  XXXX    XX  ",
"XX  XX  XXXX4121....1i0z2l5g2l2y5x660b0d3f6x7aXXXX  XX    ",
"          101u0i4h182b552j0z0f0w0g672f6i6p3b222uXXXX      ",
"  XX  XX0d..1v48160j0i115a5h5m2z0r1l326j0c0g7b3h  XX      ",
"XX    3t1i111v12170i4y071h0u1c16080j6f||6q6y7c2g3d  XX    ",
"XX    0t0707..220f264z075b2i1c1608686g6k6r6z3f7h3h06  XX  ",
"XXXX3n1g1j0742494i4r26110i..1c2z19690x6l1f702y7i7p39XXXXXX",
"  XX0b0u3x1o1w4a180v1j1k5c5i21080r0j0g2q27710p7j7q0p  XX  ",
"XX  3o0v3y0e434b194s1o2i1u121p5s5y1a3b0s6s720l3i0a0a84    ",
"  3k0q1h0v1p444c0c0e182j2a1q5n305z6a330o0h733g7k7r0a0a0a  ",
"  0p0r0u1k0t1x0623171s085d0w1024602c0m6m6t743g7l3i7y++36XX",
"XX3l3p3u..1q45144j0m2c0d2m1a5o5t330n133e3e1e7d7m7s7z2838  ",
"  3m0c3v1g121y4d4k1n50||2n0s2531616b296n2p757e097t802e    ",
"    0s0w0z0e1z1x4l4t2d1b5e2r0h1d623634++6u3c2w7n7u8185XXXX",
"  XX3q0x0q1r0f4e4m4u51562o5j5p5u343735++1d1f||0y7v823jXX  ",
"  XX3r0y1l1s0q104n272e572p2s//++35386h1d06760m0o142h      ",
"  XX3s061m3z464f244v||14152t2o5v2t6c3c1f31207f7o7w//XXXXXX",
"    XX3w061t0g0j0b172f1m5f2u2v5w0l393d0n0m772v152x83  XX  ",
"  XX    1n13200k4o4w52582q5k1w2n09090y0n6v782k//7xXX  XXXX",
"  XXXX    400h0l251t2g0k0k5l5q32096d0o0l6w79//3j      XX  ",
"XX  XXXX    474g0h1353||||0n2w0o636e2r1e++377g    XXXXXX  ",
"XX  XX      XX154p28542k1b1b5r2d1e2s//++3aXXXX      XX    ",
"  XXXX      XXXX  292h59//++2x++++3a++6o    XX  XX  XX    ",
"XXXX      XXXX  XX    XX    XXXXXXXXXX      XXXX  XXXXXXXX"};