/* XPM */
static char* picture[] = {
"29 26 294 2",
"  	c #ff000000",
"XX	c #ff010101",
"++	c #00090906",
"..	c #0043423a",
"||	c #008b897e",
"//	c #0048473e",
"06	c #008c8a7f",
"07	c #007e7c70",
"08	c #0044433b",
"09	c #00838175",
"0a	c #005a594e",
"0b	c #007f7d71",
"0c	c #0087867a",
"0d	c #00807e72",
"0e	c #0069685c",
"0f	c #00716f64",
"0g	c #00828175",
"0h	c #007c7a6e",
"0i	c #00818074",
"0j	c #001c1c17",
"0k	c #003f3e36",
"0l	c #00080805",
"0m	c #007a796d",
"0n	c #004d4b42",
"0o	c #0047463d",
"0p	c #00858478",
"0q	c #008c8b80",
"0r	c #008b8a7f",
"0s	c #0089887d",
"0t	c #0087857a",
"0u	c #008d8b80",
"0v	c #006a695d",
"0w	c #00525148",
"0x	c #0078766b",
"0y	c #00201f1a",
"0z	c #001d1c17",
"10	c #0088867b",
"11	c #008a887d",
"12	c #0022211c",
"13	c #0037362f",
"14	c #0067665a",
"15	c #002f2e28",
"16	c #0057554b",
"17	c #00414038",
"18	c #00727065",
"19	c #001f1e1a",
"1a	c #007a786c",
"1b	c #00767469",
"1c	c #0049483f",
"1d	c #0013130f",
"1e	c #004b4a41",
"1f	c #00161511",
"1g	c #002d2c26",
"1h	c #002c2b25",
"1i	c #004c4b41",
"1j	c #007b796d",
"1k	c #0077766a",
"1l	c #00858378",
"1m	c #0088877b",
"1n	c #00868479",
"1o	c #00777569",
"1p	c #00848277",
"1q	c #00504e45",
"1r	c #0023221c",
"1s	c #00828074",
"1t	c #002d2c25",
"1u	c #006a685d",
"1v	c #00626056",
"1w	c #00807f73",
"1x	c #008a897e",
"1y	c #003a3931",
"1z	c #0032312a",
"20	c #00767468",
"21	c #005b5a50",
"22	c #006c6a5f",
"23	c #004a4940",
"24	c #00615f55",
"25	c #00706f63",
"26	c #007e7c71",
"27	c #008e8c81",
"28	c #0068665b",
"29	c #00605e54",
"2a	c #006b695e",
"2b	c #00545349",
"2c	c #00100f0b",
"2d	c #00646257",
"2e	c #00151410",
"2f	c #00646358",
"2g	c #0035342d",
"2h	c #00717064",
"2i	c #007b7a6e",
"2j	c #001a1915",
"2k	c #0013120e",
"2l	c #005a594f",
"2m	c #000c0b08",
"2n	c #005e5d52",
"2o	c #00848377",
"2p	c #007c7a6f",
"2q	c #001b1b16",
"2r	c #004c4b42",
"2s	c #0055544a",
"2t	c #00706e63",
"2u	c #00838176",
"2v	c #00817f73",
"2w	c #00504f46",
"2x	c #0010100c",
"2y	c #00080705",
"2z	c #003a3932",
"30	c #005c5a50",
"31	c #00737166",
"32	c #00252520",
"33	c #00070705",
"34	c #003d3c35",
"35	c #00090805",
"36	c #00636157",
"37	c #0067665b",
"38	c #00626156",
"39	c #0047453d",
"3a	c #00151411",
"3b	c #00151511",
"3c	c #00636257",
"3d	c #0034332c",
"3e	c #00201f1b",
"3f	c #003e3d35",
"3g	c #00050503",
"3h	c #00292822",
"3i	c #0049483e",
"3j	c #0045433b",
"3k	c #0045443b",
"3l	c #035b5a4f",
"3m	c #00716e63",
"3n	c #00737165",
"3o	c #00636156",
"3p	c #003d3c33",
"3q	c #00323129",
"3r	c #00605d52",
"3s	c #00302f29",
"3t	c #002a2822",
"3u	c #008c8b7f",
"3v	c #006c6b5f",
"3w	c #00313029",
"3x	c #007f7e72",
"3y	c #001e1d17",
"3z	c #006b695d",
"40	c #004f4e44",
"41	c #0046453c",
"42	c #00403e36",
"43	c #003d3c34",
"44	c #00757468",
"45	c #007d7c70",
"46	c #00666459",
"47	c #035d5b51",
"48	c #00535248",
"49	c #0056554b",
"4a	c #0059564c",
"4b	c #004c4c41",
"4c	c #002b2a23",
"4d	c #00424038",
"4e	c #0068675c",
"4f	c #006f6e62",
"4g	c #0033322b",
"4h	c #0015140f",
"4i	c #00848276",
"4j	c #00646258",
"4k	c #002a2923",
"4l	c #0021201a",
"4m	c #0036342d",
"4n	c #00656358",
"4o	c #00161510",
"4p	c #00747267",
"4q	c #008e8d82",
"4r	c #0089877c",
"4s	c #001c1b16",
"4t	c #002b2a24",
"4u	c #0014130f",
"4v	c #00858377",
"4w	c #008f8e83",
"4x	c #008d8c80",
"4y	c #007d7b6f",
"4z	c #005b5a4f",
"50	c #0031302a",
"51	c #001a1914",
"52	c #004c4a41",
"53	c #0059584e",
"54	c #0012110d",
"55	c #000e0d0a",
"56	c #0044423a",
"57	c #0011100c",
"58	c #00616056",
"59	c #00181712",
"5a	c #0087867b",
"5b	c #001f1e19",
"5c	c #000d0c08",
"5d	c #000a0906",
"5e	c #005f5d53",
"5f	c #00868579",
"5g	c #007e7d71",
"5h	c #0079776b",
"5i	c #006e6c61",
"5j	c #0021201b",
"5k	c #000f0e0b",
"5l	c #005c5b51",
"5m	c #000d0c09",
"5n	c #00393831",
"5o	c #00424139",
"5p	c #000b0a07",
"5q	c #006b6a5f",
"5r	c #0056544a",
"5s	c #0079786c",
"5t	c #00414039",
"5u	c #00191915",
"5v	c #000a0a07",
"5w	c #0035342e",
"5x	c #004d4c43",
"5y	c #004f4d44",
"5z	c #00181713",
"60	c #00767569",
"61	c #0078776b",
"62	c #00747367",
"63	c #0034332d",
"64	c #0011110d",
"65	c #00747266",
"66	c #00535249",
"67	c #006d6c61",
"68	c #00757367",
"69	c #00727165",
"6a	c #005d5c52",
"6b	c #000c0c09",
"6c	c #000b0b08",
"6d	c #001d1c18",
"6e	c #000b0b07",
"6f	c #0067655a",
"6g	c #00292823",
"6h	c #004a4840",
"6i	c #00090806",
"6j	c #006f6d62",
"6k	c #006d6c60",
"6l	c #00535148",
"6m	c #0059574d",
"6n	c #004e4d44",
"6o	c #00191815",
"6p	c #00262521",
"6q	c #002a2924",
"6r	c #0012110e",
"6s	c #00383730",
"6t	c #0036352e",
"6u	c #fc0b0a08",
"6v	c #006b6a5e",
"6w	c #002c2b26",
"6x	c #00b3b3b3",
"6y	c #00403f37",
"6z	c #0023231e",
"70	c #00605f54",
"71	c #001a1a15",
"72	c #0012120d",
"73	c #00282722",
"74	c #00b9b9b9",
"75	c #00c2c2c2",
"76	c #002e2e28",
"77	c #0013120f",
"78	c #53414038",
"79	c #00545249",
"7a	c #00514f46",
"7b	c #0033332c",
"7c	c #00c0c0c0",
"7d	c #00c3c3c3",
"7e	c #00c7c7c7",
"7f	c #0031312a",
"7g	c #00191914",
"7h	c #00070605",
"7i	c #003c3b33",
"7j	c #004f4e45",
"7k	c #005b594f",
"7l	c #0057564c",
"7m	c #00525147",
"7n	c #004e4c43",
"7o	c #00c9c9c9",
"7p	c #00cacaca",
"7q	c #00cbcbcb",
"7r	c #00070704",
"7s	c #16383730",
"7t	c #0056544b",
"7u	c #005c5b50",
"7v	c #00cccccc",
"7w	c #00cecece",
"7x	c #00060503",
"7y	c #003b3a33",
"7z	c #0021211b",
"80	c #000f0e0a",
"81	c #005a5a5a",
"82	c #002c2b24",
"83	c #00272621",
"84	c #0011110c",
"85	c #ff0c0b09",
"  XX          XXXXXX    XX  XX    XX  XXXX  XX  XX    XX  ",
"          XX      0a2d2h18182t5q14300nXX    XX    XX    XX",
"  XX  XX  XX  47202609090d070h1a60650v2n1eXX  XXXX    XX  ",
"XX  XX  XXXX3z1w100c4v0i2n5e5l5r18310f6j3c2b78XXXX  XX    ",
"          1o0p1x0s0g1u0h2o0i265s0e66366k6v2d797iXXXX      ",
"  XX  XX0f0t||||0b4p||060s102u0b61670w0k3c37367j7sXX      ",
"XX    3r0p0u060i2211270u061m2u2v2i31370o0870387k..  XX    ",
"XX    0b0q0u0p4807274w060r0c1l0d2p1b0e6l3d1c1v242w3d  XX  ",
"XXXX3l1l3u061u494i4q4x0q115f1p070m682a0a131h7a297t3fXXXXXX",
"  XX3m1m0q0c404a091x||115a1n2v0h0x696f6m2g0y080a7u3982XX  ",
"XX  1j||0r1s414b0x4r100t2o1s071a6225386n15717b7l0a//3h    ",
"  1i0m||0r07421y4j0i09091w5g1a1b2h14300k3e1f1h7m16//3h    ",
"  3i1k0c0s0b431z23284y2i2p5h1b2t0e6a391g1f721h7n0w0883  XX",
"XX3j3n1n0t0d1i1t4k0o4z220f5i282f2l..1g6o3e1d1z0n1q1712XX  ",
"  3k3o0d1p0g1v4c1r125056232r1c5t63323a6p6w3b1y1e2r7y0j    ",
"    0n1o0g0g444d4l0z512j5b5j195u646b3a6q2j737c7o081584XXXX",
"  XX3p0e0m3x454e4m4s2e2k2c5k5m5v0l6c2x6r2q747d7p7v7z++XX  ",
"  XX3q0o3v0h1j2024130z575c2m++++2y33++196x757e7q7w8085    ",
"  XX  3s1q0v0x1k0f295215192e2k2x1d6d6g6s6y323g7r2y81XXXXXX",
"    XX3t3w0w464f252a2f16//0k5n5w133417..//3f7f1d7x33  XX  ",
"  XX    1r1t08214n0v1458212s2w5x1e//6h..2z767g353gXX  XXXX",
"  XXXX    3y0y4g//2b532l0a162s5y1c..346t6z77++0l      XX  ",
"XX  XXXX    0y4h0j4t2g17....5o0k2z1g123b0l++7h    XXXXXX  ",
"XX  XX      XX0z4o2c54592q0j0j5z1f6e++++0lXXXX      XX    ",
"  XXXX      XXXX  4u552m5d++5p++++356i6u    XX  XX  XX    ",
"XXXX      XXXX  XX    XX    XXXXXXXXXX      XXXX  XXXXXXXX"};