/* XPM */
static char* picture[] = {
"29 26 276 2",
"  	c #ff000000",
"XX	c #ff010101",
"++	c #0045443c",
"..	c #00d1d1d1",
"||	c #008b897e",
"//	c #00090906",
"06	c #00848377",
"07	c #00838175",
"08	c #0037362f",
"09	c #00d2d2d2",
"0a	c #0078766a",
"0b	c #0088867b",
"0c	c #00868579",
"0d	c #0033322b",
"0e	c #006d6b60",
"0f	c #008c8b80",
"0g	c #008c8a7f",
"0h	c #0034332c",
"0i	c #0087867a",
"0j	c #00807e72",
"0k	c #007d7b6f",
"0l	c #0057564c",
"0m	c #002e2d27",
"0n	c #0049483f",
"0o	c #00716f64",
"0p	c #004f4e45",
"0q	c #00414038",
"0r	c #005d5b51",
"0s	c #000a0906",
"0t	c #0046453d",
"0u	c #00070705",
"0v	c #000a0a07",
"0w	c #0048473e",
"0x	c #007b796d",
"0y	c #00747267",
"0z	c #003d3c34",
"10	c #007e7c70",
"11	c #008a887d",
"12	c #004b4a41",
"13	c #002a2923",
"14	c #0087857a",
"15	c #007c7a6e",
"16	c #00828075",
"17	c #001c1b16",
"18	c #00666459",
"19	c #00706f63",
"1a	c #00403f37",
"1b	c #007e7c71",
"1c	c #003c3b33",
"1d	c #0067655a",
"1e	c #0089887c",
"1f	c #007a786d",
"1g	c #003c3b34",
"1h	c #00525148",
"1i	c #006f6d62",
"1j	c #00727165",
"1k	c #0010100c",
"1l	c #000e0e0a",
"1m	c #00535248",
"1n	c #00090805",
"1o	c #00080805",
"1p	c #004c4a41",
"1q	c #002f2e28",
"1r	c #00080806",
"1s	c #006e6c61",
"1t	c #00646358",
"1u	c #00515046",
"1v	c #00807f73",
"1w	c #006b6a5e",
"1x	c #00838176",
"1y	c #008c8b7f",
"1z	c #006e6d61",
"20	c #008d8b80",
"21	c #007f7d71",
"22	c #007e7d71",
"23	c #00848276",
"24	c #005e5d53",
"25	c #0058564c",
"26	c #004e4d44",
"27	c #003e3d35",
"28	c #006a695d",
"29	c #00838276",
"2a	c #0066655a",
"2b	c #002c2b25",
"2c	c #0031302a",
"2d	c #005d5c52",
"2e	c #007b7a6e",
"2f	c #00706e63",
"2g	c #004a4940",
"2h	c #001d1d18",
"2i	c #006a685d",
"2j	c #008d8c81",
"2k	c #0089877c",
"2l	c #001b1b16",
"2m	c #00161510",
"2n	c #0067665a",
"2o	c #00151410",
"2p	c #0047463e",
"2q	c #0014130f",
"2r	c #0012110d",
"2s	c #0047463d",
"2t	c #000c0b07",
"2u	c #007c7a6f",
"2v	c #00817f73",
"2w	c #0022211c",
"2x	c #00818074",
"2y	c #007a786c",
"2z	c #00515047",
"30	c #00272621",
"31	c #0023221d",
"32	c #000d0d09",
"33	c #0056554b",
"34	c #0043423a",
"35	c #00767569",
"36	c #001d1c18",
"37	c #001c1c17",
"38	c #000a0a06",
"39	c #00636257",
"3a	c #00757368",
"3b	c #00383730",
"3c	c #0032312b",
"3d	c #000c0c08",
"3e	c #004c4b42",
"3f	c #00262520",
"3g	c #005a594e",
"3h	c #0035342d",
"3i	c #00424139",
"3j	c #000b0a07",
"3k	c #004d4b41",
"3l	c #0049473e",
"3m	c #00444239",
"3n	c #003e3d34",
"3o	c #05504e45",
"3p	c #035a584d",
"3q	c #0033312a",
"3r	c #0343423a",
"3s	c #005c5b50",
"3t	c #0055534a",
"3u	c #0025241e",
"3v	c #00828074",
"3w	c #00504f45",
"3x	c #0047453c",
"3y	c #003b3a32",
"3z	c #007b796e",
"40	c #0079776b",
"41	c #0068665b",
"42	c #00282721",
"43	c #001b1a15",
"44	c #005d5c51",
"45	c #008a897d",
"46	c #0057554a",
"47	c #00555349",
"48	c #0034332b",
"49	c #002e2d26",
"4a	c #00757367",
"4b	c #0077766a",
"4c	c #00717064",
"4d	c #005e5c52",
"4e	c #00171611",
"4f	c #00737165",
"4g	c #00878579",
"4h	c #00807e73",
"4i	c #004e4c43",
"4j	c #0024231d",
"4k	c #0020201a",
"4l	c #0024231e",
"4m	c #0012110c",
"4n	c #00848277",
"4o	c #0088877b",
"4p	c #008e8c81",
"4q	c #008e8d82",
"4r	c #006c6b5f",
"4s	c #0023231d",
"4t	c #001a1a15",
"4u	c #005c5b51",
"4v	c #006c6a5f",
"4w	c #0011100b",
"4x	c #00151510",
"4y	c #005f5d53",
"4z	c #00817f74",
"50	c #00666559",
"51	c #008f8e83",
"52	c #00605e54",
"53	c #0036352e",
"54	c #00191713",
"55	c #00646258",
"56	c #005b5a50",
"57	c #000e0d0a",
"58	c #00828175",
"59	c #008b8a7e",
"5a	c #008a897e",
"5b	c #002b2b25",
"5c	c #00616055",
"5d	c #008b8a7f",
"5e	c #00858377",
"5f	c #000c0b08",
"5g	c #001a1915",
"5h	c #005a584e",
"5i	c #001f1e1a",
"5j	c #006f6e63",
"5k	c #000d0c08",
"5l	c #0011100d",
"5m	c #00545249",
"5n	c #0059574d",
"5o	c #0021201b",
"5p	c #0059584d",
"5q	c #007d7b70",
"5r	c #00858478",
"5s	c #0077756a",
"5t	c #004f4d44",
"5u	c #001f1f1a",
"5v	c #000b0b07",
"5w	c #0078766b",
"5x	c #007c7b6f",
"5y	c #004d4b42",
"5z	c #0078776b",
"60	c #00727065",
"61	c #006a695e",
"62	c #005e5d52",
"63	c #00151511",
"64	c #00181813",
"65	c #00737266",
"66	c #00504e45",
"67	c #00767468",
"68	c #0068675b",
"69	c #00282722",
"6a	c #000b0b08",
"6b	c #00191815",
"6c	c #003a3932",
"6d	c #0046453c",
"6e	c #0069675c",
"6f	c #006b695e",
"6g	c #00141410",
"6h	c #00403f38",
"6i	c #003f3e36",
"6j	c #0025241f",
"6k	c #006d6c60",
"6l	c #005a594f",
"6m	c #00413f38",
"6n	c #00161612",
"6o	c #0034332d",
"6p	c #0036362f",
"6q	c #00181713",
"6r	c #fc0b0a08",
"6s	c #00605f55",
"6t	c #0067665b",
"6u	c #00393831",
"6v	c #00201f1a",
"6w	c #00191915",
"6x	c #00272721",
"6y	c #00615f55",
"6z	c #004d4c42",
"70	c #00353430",
"71	c #00171612",
"72	c #00100f0b",
"73	c #00414039",
"74	c #00525147",
"75	c #002b2a22",
"76	c #000b0a06",
"77	c #00080705",
"78	c #002b2a25",
"79	c #00545349",
"7a	c #004d4c43",
"7b	c #001e1d19",
"7c	c #00090806",
"7d	c #00504f46",
"7e	c #0044433b",
"7f	c #001b1a16",
"7g	c #0011100c",
"7h	c #0034342d",
"7i	c #00313029",
"7j	c #fc0c0c09",
"7k	c #00292922",
"7l	c #00292822",
"7m	c #001c1b17",
"7n	c #0013120d",
"  XX          XXXXXX    XX  XX    XX  XXXX  XX  XX    XX  ",
"          XX      XX4y1z1i1i0e2i39333eXX    XX    XX    XX",
"  XX  XX  XX  444f2e4z580j10152y35192a0r0wXX  XXXX    XX  ",
"XX  XX  XXXX18104g1406072u0r5p1m0y650o1i6s1h  XXXX  XX    ",
"          1z23451e4n500a1v2x5q5w1t66186k1w6y7427XXXX      ",
"  XX  XX0e0c||||4h2f1e592k0i161b0a0e0p1m6t0909......      ",
"XX    3s1x0f0g07284o2j0f||0b072v2e1j1d0t0t....09..2mXX    ",
"XX    101y200c46154p510g5d0i5r0j2u676e1h6u6z..09..7g  XX  ",
"XXXX3p061y201947294q2j0f1114061b0x3a6f3g081g7509137hXXXXXX",
"  XX1s0b0f0i3w2523||||5a0b0c2x5x5z1j2n6l3h70++780l++  XX  ",
"XX  0x110g163x261f1e2k0i5e16221f3a0o391u1q360h253g0n7k    ",
"  3k0x||0g211a1c2a1x06292v211f3560680r6m6v711q790l0w7l    ",
"  3l0a0b11223y484i4r0k0k0k2y5s0o61242g0m2r722b7a1m++30  XX",
"XX3m0y0c140j0n492b2g522f1j5j2818622p1q6n3d1l3c1p7d0q31XX  ",
"  3n1t1v063v24134j4s532p0p2z26++3b696g0v0v2q3b3e0p1c7m    ",
"  3o1u0a07070y274k2h2l2h2w303136636a1o0s0s3f3i1p7e7i7nXXXX",
"  XX0z1w150j1b1d2c4t2m2q1k1k320v1n1n0u1r6w3h++120z2w3jXX  ",
"  XX3q121s0k3z4a2d0d542r5f5k0v1n1o0u1r2l0d732s1a0m1l      ",
"  XX3r0d3t0e404b194u0q5b5g5l1l321k6b3f6o3i0t0q087f3jXXXXXX",
"    XX130h0l414c0o2i551h++0z0h2c0h6c6h340w1a087b2t7j  XX  ",
"  XX    3u0m124d1d4v2n5c5h5m5t5y0n0w0n++1g0d37//0uXX  XXXX",
"  XXXX  081742080p0l562d0r5n332z1p6d6i6p6x2o767c      XX  ",
"XX  XXXX    434e4l0m1g2s++0t340q1c3c6j6q38//77    XXXXXX  ",
"XX  XX      XX174m4w2o175i5o5u37643d//////XXXX      XX    ",
"  XXXX      XXXX  4x572t0s0s5v38//1o1r6r    XX  XX  XX    ",
"XXXX      XXXX  XX    XX  0uXXXXXXXXXX      XXXX  XXXXXXXX"};