/* XPM */
static char* picture[] = {
"29 26 271 2",
"  	c #ff000000",
"XX	c #ff010101",
"++	c #00d2d2d2",
"..	c #0087867a",
"||	c #00090906",
"//	c #008b897e",
"06	c #008c8a7f",
"07	c #00838176",
"08	c #003e3d35",
"09	c #0032312a",
"0a	c #006c6a5f",
"0b	c #000a0906",
"0c	c #00424139",
"0d	c #00716f64",
"0e	c #00807e72",
"0f	c #006d6c60",
"0g	c #008d8b80",
"0h	c #00616055",
"0i	c #00757468",
"0j	c #007e7c70",
"0k	c #005c5b50",
"0l	c #00504f46",
"0m	c #0043423a",
"0n	c #007a796d",
"0o	c #00080705",
"0p	c #0047463d",
"0q	c #00080805",
"0r	c #00414038",
"0s	c #00383730",
"0t	c #0079776b",
"0u	c #00636257",
"0v	c #00838276",
"0w	c #00868579",
"0x	c #008a897e",
"0y	c #0078766a",
"0z	c #006b6a5e",
"10	c #0049483f",
"11	c #00848377",
"12	c #007b7a6e",
"13	c #0056554b",
"14	c #0034332c",
"15	c #0089887c",
"16	c #00807f73",
"17	c #00838175",
"18	c #007d7c70",
"19	c #0068675b",
"1a	c #005e5c52",
"1b	c #00181712",
"1c	c #0025241f",
"1d	c #0021201b",
"1e	c #0067665b",
"1f	c #0024231e",
"1g	c #004a4940",
"1h	c #0057564c",
"1i	c #0014130f",
"1j	c #002a2923",
"1k	c #00514f46",
"1l	c #0046453d",
"1m	c #000c0b08",
"1n	c #0045443c",
"1o	c #000b0b07",
"1p	c #00090806",
"1q	c #004b4a41",
"1r	c #004b4940",
"1s	c #0077766a",
"1t	c #004e4d43",
"1u	c #003d3c34",
"1v	c #0034332b",
"1w	c #0059574d",
"1x	c #007a786c",
"1y	c #00868479",
"1z	c #00313029",
"20	c #002c2b24",
"21	c #00646257",
"22	c #008c8b7f",
"23	c #008c8b80",
"24	c #008a887d",
"25	c #001c1b16",
"26	c #00828075",
"27	c #0087857a",
"28	c #004e4c43",
"29	c #0022211c",
"2a	c #00525047",
"2b	c #00383731",
"2c	c #00858378",
"2d	c #00828074",
"2e	c #00828175",
"2f	c #004d4b42",
"2g	c #005e5d52",
"2h	c #00717064",
"2i	c #007b796d",
"2j	c #0024241e",
"2k	c #0033322b",
"2l	c #0011110c",
"2m	c #00181713",
"2n	c #005b594f",
"2o	c #007f7d71",
"2p	c #00858377",
"2q	c #008d8c81",
"2r	c #0089877c",
"2s	c #00848276",
"2t	c #00605f54",
"2u	c #000b0a07",
"2v	c #007d7b6f",
"2w	c #0048473e",
"2x	c #0012120e",
"2y	c #0047463e",
"2z	c #000d0c08",
"30	c #00818074",
"31	c #00737166",
"32	c #00191814",
"33	c #005f5e53",
"34	c #0021211c",
"35	c #000f0f0b",
"36	c #003c3b34",
"37	c #0059584e",
"38	c #007e7d71",
"39	c #0023221d",
"3a	c #007c7b6f",
"3b	c #000c0c09",
"3c	c #004c4a41",
"3d	c #000a0a07",
"3e	c #00070705",
"3f	c #004e4d44",
"3g	c #00d1d1d1",
"3h	c #0068665b",
"3i	c #00535248",
"3j	c #000a0a06",
"3k	c #001b1b16",
"3l	c #00504f45",
"3m	c #00636157",
"3n	c #0033322c",
"3o	c #00525148",
"3p	c #001e1d19",
"3q	c #0035342d",
"3r	c #0049473e",
"3s	c #0049483e",
"3t	c #0357554b",
"3u	c #00666559",
"3v	c #0345443b",
"3w	c #008a897d",
"3x	c #0022211b",
"3y	c #006b695d",
"3z	c #006d6b60",
"40	c #002f2e28",
"41	c #00777569",
"42	c #0047453c",
"43	c #00403f36",
"44	c #00403e36",
"45	c #001d1c17",
"46	c #00535348",
"47	c #004c4940",
"48	c #003b3a32",
"49	c #002e2d26",
"4a	c #00171712",
"4b	c #006a695d",
"4c	c #0066655a",
"4d	c #0079786c",
"4e	c #0078776b",
"4f	c #00656358",
"4g	c #002d2c25",
"4h	c #0014130e",
"4i	c #008e8c81",
"4j	c #008e8d82",
"4k	c #001e1d18",
"4l	c #006b695e",
"4m	c #00302f29",
"4n	c #00908e83",
"4o	c #008b8a7f",
"4p	c #00393831",
"4q	c #001b1a15",
"4r	c #00151510",
"4s	c #00646258",
"4t	c #005d5b51",
"4u	c #00757368",
"4v	c #001f1e19",
"4w	c #00141410",
"4x	c #00525147",
"4y	c #00626056",
"4z	c #001d1d18",
"50	c #006e6c61",
"51	c #007e7c71",
"52	c #0088867b",
"53	c #0011100c",
"54	c #000c0c08",
"55	c #0043423b",
"56	c #005a594e",
"57	c #006e6d61",
"58	c #005b5a4f",
"59	c #00817f74",
"5a	c #0088877b",
"5b	c #00878579",
"5c	c #007f7d72",
"5d	c #00706f63",
"5e	c #00545249",
"5f	c #00262620",
"5g	c #00100f0b",
"5h	c #00545349",
"5i	c #007c7a6e",
"5j	c #00858478",
"5k	c #002b2a24",
"5l	c #000d0d09",
"5m	c #000e0e0a",
"5n	c #0057554b",
"5o	c #03090806",
"5p	c #0058574d",
"5q	c #00767469",
"5r	c #0077756a",
"5s	c #00727065",
"5t	c #0067655a",
"5u	c #0048473f",
"5v	c #0020201b",
"5w	c #000b0b08",
"5x	c #00303029",
"5y	c #001e1e19",
"5z	c #00727165",
"60	c #003b3a33",
"61	c #00171613",
"62	c #000f0e0b",
"63	c #0049473f",
"64	c #001a1915",
"65	c #00737165",
"66	c #00767569",
"67	c #0069685c",
"68	c #005f5e54",
"69	c #00151511",
"6a	c #0013130f",
"6b	c #00d3d3d3",
"6c	c #00504e45",
"6d	c #006a685d",
"6e	c #00646358",
"6f	c #0031302a",
"6g	c #00171612",
"6h	c #00403f37",
"6i	c #00272621",
"6j	c #00bebebd",
"6k	c #0055534a",
"6l	c #005c5a50",
"6m	c #00535249",
"6n	c #0031312a",
"6o	c #00191815",
"6p	c #00060604",
"6q	c #00666459",
"6r	c #0037362f",
"6s	c #00161612",
"6t	c #002e2d27",
"6u	c #00292823",
"6v	c #00636156",
"6w	c #004d4c43",
"6x	c #002d2d26",
"6y	c #00161511",
"6z	c #00403f38",
"70	c #0035352e",
"71	c #f20d0c08",
"72	c #00626156",
"73	c #002a2a24",
"74	c #00262520",
"75	c #0036352e",
"76	c #0044433b",
"77	c #0047453d",
"78	c #ec403f36",
"79	c #0058574c",
"7a	c #004c4b41",
"7b	c #005a594f",
"7c	c #000c0b07",
"7d	c #0046443c",
"7e	c #fc0c0c09",
"7f	c #00282822",
"7g	c #002c2b25",
"7h	c #00292822",
"7i	c #001f1e1a",
"  XX          XXXXXX    XX  XX    XX++XXXX  XX  XX    XX  ",
"          XX      XX2n0f50570a190u3g++XX    XX    XX    XX",
"  XX  XX  XX    4b2i2o170e0j5i0n++3g++6j0cXX  XXXX    XX  ",
"XX  XX  XXXX0h182c272p1718581h5p++++6b++2g3l  XXXX  XX    ",
"          3y260x151y214u51592v5q0u0l39++0z6v3o78XXXX      ",
"  XX  XX2111////070f0w//2r..26380y0f6c6k6q1e0h3f  XX      ",
"XX    1w0v2306114c0w2q0g065a073012653h1l1g3m3m370c  XX    ",
"XX    1x//0g270k4d4i4n2206..5j163a666d3i146w720h0l3q  XX  ",
"XXXX3t0v220g412a2d4j2q0g24..2p2o2i0i0a6l0s6x3o2t1308XXXXXX",
"  XX3u0w23151w462e//4o0x525b2d3a0t313h0k6r1d1n2n0k2w7fXX  ",
"XX  0t3w060v42474e152r..2c2e380n0i2h6e6m093k2k797b101j    ",
"  XX0t0x060e43484f072s2s305c0n5r5z671a0m2j6y731k1h1g7g    ",
"  3r1s..2416441v2f0a0j2v0j0n0y5s0a68286n1i2l742f3i7d7h  XX",
"XX3s0d1y..1628494g1g2t0d315d0z5t331q6f2m2z351z7a3l0m1cXX  ",
"  1r0u0e11070h201c2j4p2w1k5e1k5u601j6g3b3d2x751q0l1u7i    ",
"    1t0y07170i081d4k4q4v1f5f5k5v611m0q3j0q290r1q0p3q1iXXXX",
"  XX1u0z120e0j1909254r4w535g5l5w1p||0o0o6s3n763c081c1mXX  ",
"  XX1v100f18120i2g2k1b2x541m0b1p3e0o0q6o6t0r770c3n1b      ",
"  XX3v1z133z1x1s0d0k0m1j32355m3b62691f090r0p0c0s3p1oXXXXXX",
"    XX201413190d2h4l4s4x5536095x092b6h0m2y6z0s1d7c7e  XX  ",
"  XX    3x401r1a1e0a1e4y565h1t3c630p101n08703p1o3eXX  XXXX",
"  XXXX    25292b0l1h4t1a33375n2a3f0p0r0s6u322u||      XX  ",
"XX  XXXX    451b1f4m082y1l1l1n0c36146i3k0b3j||    XXXXXX  ",
"XX  XX      XX4a4h2l1i4z3434395y646a0b||||71XX      XX    ",
"  XXXX      XXXX  2m2u2z0b0b1o3d||0q1p6p    XX  XX  XX    ",
"XXXX      XXXX  XX    XX  0o5oXXXXXXXX      XXXX  XXXXXXXX"};