/* XPM */
static char* picture[] = {
"29 26 282 2",
"  	c #ff000000",
"XX	c #ff010101",
"++	c #00d1d1d1",
"..	c #00828175",
"||	c #0049483f",
"//	c #00090906",
"06	c #00d2d2d2",
"07	c #0087867a",
"08	c #008c8a7f",
"09	c #00807e72",
"0a	c #00424139",
"0b	c #0045443c",
"0c	c #007b796d",
"0d	c #00838276",
"0e	c #00838175",
"0f	c #006b695e",
"0g	c #008b897e",
"0h	c #007e7d71",
"0i	c #00717064",
"0j	c #00716f64",
"0k	c #00515047",
"0l	c #0033322b",
"0m	c #000a0a07",
"0n	c #000a0906",
"0o	c #00302f29",
"0p	c #00414038",
"0q	c #0069685c",
"0r	c #007a786c",
"0s	c #0077766a",
"0t	c #007c7b6f",
"0u	c #008a897e",
"0v	c #0088867b",
"0w	c #004b4a41",
"0x	c #0032312a",
"0y	c #0067665a",
"0z	c #008c8b80",
"10	c #00848377",
"11	c #008d8b80",
"12	c #0089877c",
"13	c #007d7c70",
"14	c #00535148",
"15	c #003c3b33",
"16	c #00757368",
"17	c #00383730",
"18	c #004d4c43",
"19	c #0087857a",
"1a	c #006c6b5f",
"1b	c #005c5b50",
"1c	c #0014130f",
"1d	c #0047463e",
"1e	c #000c0b08",
"1f	c #007d7b6f",
"1g	c #00504f46",
"1h	c #0044433b",
"1i	c #0021201b",
"1j	c #000b0b07",
"1k	c #0025241f",
"1l	c #00545249",
"1m	c #00504e45",
"1n	c #0047463d",
"1o	c #004c4a41",
"1p	c #00080805",
"1q	c #00403f37",
"1r	c #000b0a07",
"1s	c #004c4b41",
"1t	c #00434239",
"1u	c #00737266",
"1v	c #00636257",
"1w	c #005b5a4f",
"1x	c #00868479",
"1y	c #002b2a23",
"1z	c #008b8a7f",
"20	c #008a887d",
"21	c #007c7a6e",
"22	c #006e6c61",
"23	c #0056544a",
"24	c #006d6c60",
"25	c #0056554b",
"26	c #002f2e28",
"27	c #001d1c17",
"28	c #00656358",
"29	c #00868579",
"2a	c #003d3c34",
"2b	c #0068665b",
"2c	c #001c1b16",
"2d	c #0055544a",
"2e	c #004c4b42",
"2f	c #001e1d18",
"2g	c #00868478",
"2h	c #0089887c",
"2i	c #00818074",
"2j	c #0024231e",
"2k	c #0021201a",
"2l	c #005d5c51",
"2m	c #004a4940",
"2n	c #0057564c",
"2o	c #00171712",
"2p	c #008d8c81",
"2q	c #00605f54",
"2r	c #001b1b16",
"2s	c #00161510",
"2t	c #0012110d",
"2u	c #00817f74",
"2v	c #0023221d",
"2w	c #005e5d53",
"2x	c #00535248",
"2y	c #000f0f0b",
"2z	c #003c3b34",
"30	c #007a796d",
"31	c #004f4d44",
"32	c #00767569",
"33	c #00090806",
"34	c #00070705",
"35	c #00292822",
"36	c #00080705",
"37	c #0035342d",
"38	c #00080806",
"39	c #005a594f",
"3a	c #00181713",
"3b	c #000a0a06",
"3c	c #00191915",
"3d	c #0032312b",
"3e	c #00373630",
"3f	c #0035342e",
"3g	c #0013120f",
"3h	c #0034332c",
"3i	c #00272621",
"3j	c #0037362f",
"3k	c #0048473d",
"3l	c #0359574d",
"3m	c #00504f45",
"3n	c #003e3c34",
"3o	c #0033322a",
"3p	c #0345443b",
"3q	c #00848276",
"3r	c #00807f73",
"3s	c #0078766b",
"3t	c #006b6a5e",
"3u	c #008c8b7f",
"3v	c #0036352d",
"3w	c #0021211b",
"3x	c #007f7d72",
"3y	c #00747367",
"3z	c #0047453c",
"40	c #00414037",
"41	c #00605e54",
"42	c #00757367",
"43	c #007b796e",
"44	c #0079776c",
"45	c #004d4b42",
"46	c #0023221c",
"47	c #008a897d",
"48	c #00838176",
"49	c #0059574c",
"4a	c #0034332b",
"4b	c #002e2d27",
"4c	c #003e3d35",
"4d	c #0067655a",
"4e	c #005e5d52",
"4f	c #00171611",
"4g	c #006f6e62",
"4h	c #00666459",
"4i	c #002d2c25",
"4j	c #0067665b",
"4k	c #0013130e",
"4l	c #006e6d61",
"4m	c #008e8c81",
"4n	c #008f8d82",
"4o	c #0024241e",
"4p	c #001d1d17",
"4q	c #006a695d",
"4r	c #0011110c",
"4s	c #005d5b51",
"4t	c #00858377",
"4u	c #008f8e83",
"4v	c #008b8a7e",
"4w	c #007d7b70",
"4x	c #00636157",
"4y	c #005c5b51",
"4z	c #003f3e36",
"50	c #0077756a",
"51	c #0048473e",
"52	c #001e1e19",
"53	c #002a2923",
"54	c #00616056",
"55	c #005e5c52",
"56	c #001c1b17",
"57	c #007f7e72",
"58	c #00858378",
"59	c #00737166",
"5a	c #0010100c",
"5b	c #001a1915",
"5c	c #005a594e",
"5d	c #0046443c",
"5e	c #006f6d62",
"5f	c #007e7c70",
"5g	c #005c5a50",
"5h	c #0088877b",
"5i	c #007f7d71",
"5j	c #007a786d",
"5k	c #00706e63",
"5l	c #000c0c08",
"5m	c #0059584d",
"5n	c #0046453d",
"5o	c #50080805",
"5p	c #006c6a5f",
"5q	c #0058564c",
"5r	c #00828075",
"5s	c #00858478",
"5t	c #00252520",
"5u	c #000d0d09",
"5v	c #000e0e0b",
"5w	c #03080806",
"5x	c #006a685d",
"5y	c #00555349",
"5z	c #00817f73",
"60	c #00807e73",
"61	c #00777569",
"62	c #0066655a",
"63	c #001e1d19",
"64	c #000b0a08",
"65	c #000d0c09",
"66	c #0031302a",
"67	c #00757468",
"68	c #00626156",
"69	c #0078766a",
"6a	c #007b7a6e",
"6b	c #0078776b",
"6c	c #00727065",
"6d	c #00393832",
"6e	c #001b1612",
"6f	c #00090805",
"6g	c #000f0e0b",
"6h	c #00191814",
"6i	c #00545349",
"6j	c #00727165",
"6k	c #00767469",
"6l	c #00737165",
"6m	c #0069675c",
"6n	c #005f5e53",
"6o	c #00171713",
"6p	c #00393831",
"6q	c #0048463e",
"6r	c #0047453d",
"6s	c #0012110e",
"6t	c #00666559",
"6u	c #00646258",
"6v	c #00161612",
"6w	c #00262520",
"6x	c #00525147",
"6y	c #00525047",
"6z	c #00424039",
"70	c #002f2e29",
"71	c #0044423b",
"72	c #fc0b0a08",
"73	c #0049473e",
"74	c #0022211c",
"75	c #000d0c08",
"76	c #00282722",
"77	c #004e4c43",
"78	c #000e0d0a",
"79	c #0023231e",
"7a	c #00171612",
"7b	c #fc12110b",
"7c	c #00292823",
"7d	c #00626056",
"7e	c #002d2c26",
"7f	c #0031312a",
"7g	c #001d1c18",
"7h	c #0059574d",
"7i	c #00616055",
"7j	c #005b594f",
"7k	c #0058574c",
"7l	c #00201f1b",
"7m	c #001c1c17",
"7n	c #000c0b07",
"7o	c #003d3c35",
"7p	c #0048473f",
"7q	c #0013120e",
"7r	c #fc0c0c09",
"7s	c #00282721",
"7t	c #002b2a24",
"  XX          XXXXXX    XX  XX    XX  XXXX  XX  XX    XX  ",
"          XX      XX4s1a225e5p5x1v6i1oXX    XX    XX    XX",
"  XX  XX  XX    4g0c090e095f210r320i6t1b7306++XXXX    XX  ",
"XX  XX  XXXX28132g194t0e1f5g5q5y671u0i06++06++XXXX  XX    ",
"          0f..472h2g2850572u1f32681m0k0606++++  XXXX      ",
"  XX  XX0y1x0g0g2i4l0v0g12075r0h6924312x06++7c||  XX      ",
"XX    1w0d0z08480q192p0z085h0e5z6a6j0y0b||++1l7h0p  XX    ",
"XX    0t1z1129490c4m4u081z075s600t6k0q6x0l777d7i1m0l  XX  ",
"XXXX3l3q3u113y14..4n2p112019100h0c160f393e0o1l2q2d7oXXXXXX",
"  XX0q070z12232d0d0g4v0u0v292i0t6b6l2b1w3f2k0b7j1b1n7sXX  ",
"XX  0c0u08..3z2e0r2h120758..0h30160j6u6y0o2r3h7k397p35    ",
"  1s0r0u080940154h0d100d2u5i30616c6m2l6z742s7e142n||7t    ",
"  3k0s0v203x2a4a181a4w131f5j0s0i0f6n2e703g2t3i18140b3i  XX",
"XX1t1u1x0709||4b4i2m2q0j595k0f622w||0o3a75787f1s1g0a1kXX  ",
"  1t1v3r10..411y2j4o17511g2x1m1n6d356v1r1r3g3e0w1g1527    ",
"    3m3s0e..424c2k4p2r522v1k5t636e1e1p3b//790p1o0b3h1cXXXX",
"  XX3n3t21090h4d0x2c2s1c5a2y5u646f//34383a371h0w2a2v1jXX  ",
"  XX3o0w221343162l0l2o2t1e5l0m3334361p3c0o0p1d0p3d7q      ",
"  XX3p0x2324440s0j1b0a535b2y5v656g6o1k3d0a1n0a3j7m1rXXXXXX",
"    XX1y3v252b0i0j4q4x0k1h2z0l660x6p1q711d1q3j7l7n7r  XX  ",
"  XX    3w26454e4j1a0y545c1l311o||6q2m0b2z3f7g0m36XX  XXXX",
"  XXXX    2746170k2n4y552w5m250k186r1q17767a0n33      XX  ",
"XX  XXXX    2c4f2j264z1d5d5n1h0a15376w3c3b0n//    XXXXXX  ",
"XX  XX      XX2f4k4r1c561i1i1i2f6h6s0n////7bXX      XX    ",
"  XXXX      XXXX  2o0m1e1j0n1j0m//1p3872    XX  XX  XX    ",
"XXXX      XXXX  XX    XX  5o5wXXXXXXXX      XXXX  XXXXXXXX"};