/* XPM */
static char* picture[] = {
"29 26 298 2",
"  	c #00000000",
"XX	c #00010101",
"++	c #ff090906",
"..	c #ff4a4940",
"||	c #ff8a887d",
"//	c #ff828175",
"06	c #ff8c8a7f",
"07	c #ff4b4940",
"08	c #ff88867b",
"09	c #ff403f37",
"0a	c #ff424139",
"0b	c #ff848276",
"0c	c #ff706f63",
"0d	c #ff6d6b60",
"0e	c #ff3f3e36",
"0f	c #ff302f29",
"0g	c #ff262520",
"0h	c #ff37362f",
"0i	c #ff080705",
"0j	c #ff4c4a41",
"0k	c #ff090806",
"0l	c #ff717064",
"0m	c #ff68675b",
"0n	c #ff7c7b6f",
"0o	c #ff838175",
"0p	c #ff5f5d53",
"0q	c #ff838276",
"0r	c #ff8b8a7f",
"0s	c #ff87867a",
"0t	c #ff848377",
"0u	c #ff8d8b80",
"0v	c #ff1e1d18",
"0w	c #ff858377",
"0x	c #ff8b897e",
"0y	c #ff87857a",
"0z	c #ff757368",
"10	c #ff57554b",
"11	c #ff7e7c70",
"12	c #ff7b796e",
"13	c #ff3e3d35",
"14	c #ff22211c",
"15	c #ff807f73",
"16	c #ff68665b",
"17	c #ff7f7d71",
"18	c #ff7e7d71",
"19	c #ff727065",
"1a	c #ff5d5b51",
"1b	c #ff3d3c34",
"1c	c #ff8e8c81",
"1d	c #ffd0d0d0",
"1e	c #ffd1d1d1",
"1f	c #ff2e2d27",
"1g	c #ff0b0a07",
"1h	c #ff24231e",
"1i	c #ff0a0906",
"1j	c #ff737166",
"1k	c #ff414038",
"1l	c #ff43423a",
"1m	c #ff080805",
"1n	c #ff7a786d",
"1o	c #ff393831",
"1p	c #ff383730",
"1q	c #ff5a584e",
"1r	c #ff656459",
"1s	c #ff77756a",
"1t	c #ff727064",
"1u	c #ff868579",
"1v	c #ff89877c",
"1w	c #ff2e2d26",
"1x	c #ff8c8b80",
"1y	c #ff77766a",
"1z	c #ff69685c",
"20	c #ff7f7e72",
"21	c #ff59584d",
"22	c #ff5d5c51",
"23	c #ff4e4d43",
"24	c #ff4d4c42",
"25	c #ff32312a",
"26	c #ff2b2a23",
"27	c #ff6f6d62",
"28	c #ff44433b",
"29	c #ff838176",
"2a	c #ff8a897d",
"2b	c #ff56554b",
"2c	c #ffcdcdcd",
"2d	c #ff070705",
"2e	c #ff32312b",
"2f	c #ff7c7a6f",
"2g	c #ff4d4c43",
"2h	c #ff191915",
"2i	c #ff090805",
"2j	c #ff616055",
"2k	c #ff79776b",
"2l	c #ff1a1915",
"2m	c #ff1c1c17",
"2n	c #ff828074",
"2o	c #ff0d0c09",
"2p	c #ff161612",
"2q	c #ff504f46",
"2r	c #ff767569",
"2s	c #ff69675c",
"2t	c #ff545349",
"2u	c #ff6a695d",
"2v	c #ff35342d",
"2w	c #ff49483f",
"2x	c #ff605e54",
"2y	c #ff45443c",
"2z	c #ff6b6a5e",
"30	c #ff605f54",
"31	c #ff36352f",
"32	c #ff3c3b33",
"33	c #ff25241f",
"34	c #ff47463e",
"35	c #ff2d2c26",
"36	c #ff403f38",
"37	c #ff0c0b07",
"38	c #ac4c4a40",
"39	c #ac535248",
"3a	c #fc555349",
"3b	c #ff59574d",
"3c	c #ff45443b",
"3d	c #ff37362e",
"3e	c #ff33322a",
"3f	c #ff5a584d",
"3g	c #ff868478",
"3h	c #ff737266",
"3i	c #ff423f37",
"3j	c #ff313029",
"3k	c #ff6b695d",
"3l	c #ff8c8b7f",
"3m	c #ff89887d",
"3n	c #ff828075",
"3o	c #ff49473e",
"3p	c #ff2a2922",
"3q	c #ff26241e",
"3r	c #ff868479",
"3s	c #ff89887c",
"3t	c #ff817f74",
"3u	c #ff79786c",
"3v	c #ff67665b",
"3w	c #ff25241e",
"3x	c #ff676559",
"3y	c #ff424138",
"3z	c #ff4a483f",
"40	c #ff6e6d61",
"41	c #ff79776c",
"42	c #ff767468",
"43	c #ff626156",
"44	c #ff57564b",
"45	c #ff44423a",
"46	c #ff393830",
"47	c #ff2f2d26",
"48	c #ff6d6c61",
"49	c #ff302e28",
"4a	c #ff15140f",
"4b	c #fc1e1e19",
"4c	c #ff78766a",
"4d	c #ff3f3e35",
"4e	c #ff23221c",
"4f	c #ff22211b",
"4g	c #ff636257",
"4h	c #ff1a1914",
"4i	c #ff161611",
"4j	c #ff5b594f",
"4k	c #ff616056",
"4l	c #ff24231d",
"4m	c #ff23221d",
"4n	c #ffcccccb",
"4o	c #ff070604",
"4p	c #ff060503",
"4q	c #ff646357",
"4r	c #ff858378",
"4s	c #ff8f8e83",
"4t	c #ff8d8c81",
"4u	c #ff8b8a7e",
"4v	c #ff7b796d",
"4w	c #ff24241f",
"4x	c #ff2b2a24",
"4y	c #ff4f4d44",
"4z	c #ff040402",
"50	c #ff818074",
"51	c #ff7b7a6e",
"52	c #ff8d8c80",
"53	c #ff33322b",
"54	c #ffc8c8c8",
"55	c #ff050403",
"56	c #ff292822",
"57	c #ff11110d",
"58	c #ff817f73",
"59	c #ff48463e",
"5a	c #ff1e1e19",
"5b	c #ff2a2a24",
"5c	c #ffc3c3c3",
"5d	c #ff050503",
"5e	c #ff727165",
"5f	c #ff88877b",
"5g	c #ff6e6c61",
"5h	c #ff1f1f1a",
"5i	c #ff535148",
"5j	c #ff1b1a16",
"5k	c #ff858478",
"5l	c #ff7e7c71",
"5m	c #ff767469",
"5n	c #ff48473f",
"5o	c #ff1f1e1a",
"5p	c #ff13120f",
"5q	c #ff55544a",
"5r	c #ff1c1b16",
"5s	c #ff58564c",
"5t	c #ff807e72",
"5u	c #ff7a796d",
"5v	c #ff656358",
"5w	c #ff1a1a15",
"5x	c #ff0a0a07",
"5y	c #ff10100d",
"5z	c #ff4e4d44",
"60	c #ff171713",
"61	c #ff6e6d62",
"62	c #ff7a786c",
"63	c #ff7c7a6e",
"64	c #ff7d7b6f",
"65	c #ff5c5b50",
"66	c #ff12110d",
"67	c #ff13130f",
"68	c #ff3a3932",
"69	c #ff151511",
"6a	c #ff747267",
"6b	c #ff57564c",
"6c	c #ff6f6e62",
"6d	c #ff747367",
"6e	c #ff777569",
"6f	c #ff757468",
"6g	c #ff716f64",
"6h	c #ff5e5d53",
"6i	c #ff46453c",
"6j	c #ff0c0b08",
"6k	c #ff1b1b17",
"6l	c #ff43423b",
"6m	c #ff2d2f27",
"6n	c #ff0b0b07",
"6o	c #ff58574d",
"6p	c #ff68675c",
"6q	c #ff646358",
"6r	c #ff13120e",
"6s	c #ff090907",
"6t	c #ff282722",
"6u	c #ff5a594e",
"6v	c #ff5e5c52",
"6w	c #ff42413a",
"6x	c #ff30302a",
"6y	c #ff0b0b08",
"6z	c #ff1d1c18",
"70	c #ff161511",
"71	c #030b0a08",
"72	c #ff4f4e45",
"73	c #ff67655a",
"74	c #ff12120e",
"75	c #ff181814",
"76	c #ff49473f",
"77	c #ff3b3a33",
"78	c #ff67665a",
"79	c #ff2a2923",
"7a	c #ff1f1e19",
"7b	c #ff151410",
"7c	c #ff100f0b",
"7d	c #ff0e0e0a",
"7e	c #ff12110e",
"7f	c #ff23231e",
"7g	c #ff31302a",
"7h	c #ff141410",
"7i	c #ff66655a",
"7j	c #ff636157",
"7k	c #ff615f55",
"7l	c #ff4c4b42",
"7m	c #ff34332c",
"7n	c #ff44423b",
"7o	c #ff0a0a06",
"7p	c #ff070605",
"7q	c #ff515047",
"7r	c #ff5e5d52",
"7s	c #ff535249",
"7t	c #ff4b4a41",
"7u	c #ff545249",
"7v	c #ff5c5a50",
"7w	c #ff56544b",
"7x	c #ff525147",
"7y	c #ff504e45",
"7z	c #ff46453d",
"80	c #ff1d1c17",
"81	c #ff47463d",
"82	c #ff34332d",
"83	c #ff14130f",
"84	c #030c0c09",
"85	c #ff2c2c25",
"86	c #ff2c2b25",
"87	c #ff20201b",
"88	c #ff13130e",
"89	c #ff100f0a",
"  XX          XXXXXX    XX  XX    XX  XXXX  XX  XX    XX  ",
"          XX      4j4q191j5e0l0d2s2x23XX    XX    XX    XX",
"  XX  XX  XX  220z110q2915182f1n2r6a0d3072XX  XXXX    XX  ",
"XX  XX  XXXX3x20080s4r500p2j0p5s2t1j0l2773100aXXXX  XX    ",
"          0c0w0x||290m510w0o171n616b2y2u2z78100eXXXX      ",
"  XX  XX3k3r0x0x150c||06||5f0b5t626c6o0930167i7q1oXX      ",
"XX    3f0q0u060q160s1c52061v0b2n636d1z0j0h1a7j7r..  XX    ",
"XX    0n0r0u0y444c1c4s0606085k15646e2z6u1o097k2j7u1p  XX  ",
"XXXX3a0o3l0u0z23171c4t1x||0y0t18126f0d6v32797l2x1q2yXXXXXX",
"  XX1r1u1x3s2124182a4u2a081u2n0n2k1j6p1a1p7a321q7v..26XX  ",
"XX  0l1v0r0t07451908080y0w//5l5u0z6g6q2t2e2l357s1q0j85    ",
"  XX1s||0r3t3y461a11//0o58171n2r192s226w1h7b0g247w071f    ",
"  381t3g3m//3z254d4k4v122f2k5m0c2u6h..6x747c1h..7x8186  XX",
"XX390m0b0s//104726092b160c5g0m5v656i1f2p2o7d35077y1l0gXX  ",
"  XX3b0n0t0b401w4e4l1f0e59075n0a2v0g6r6y1i7e7m..2q1b87    ",
"    3c3h3n//41074f144w1h5a5h5o5w666j0i1i++7f367t7z8288XXXX",
"  XX3d0p1y20110d1b4m0f2e5b2l5p5x++1m0i0k752v7n0j1b3389XX  ",
"  XX3e3i1z3u121y1r0e4x0f0f2m2o1g0i0i6s6z251k34360f83      ",
"  XX  1w3o3v421s274n4y530g2h2p5y676k6t310a34090h8037XXXXXX",
"    XX3j3p..43481t1d2c545c1k1o0h1p130a1l760e0h0v3784  XX  ",
"  XX    3q3w13214g1e1d2c5d5i2q2g0j2w..28777g2m++2dXX  XXXX",
"  XXXX    0v0v49281e1e552g2b5q5z2w6l1331337h7o0k      XX  ",
"XX  XXXX    144a4h1d4z561k1l0a09686m14700k++7p    XXXXXX  ",
"XX  XX      XX4b4i4o1g572h5j5r60696n++++1mXXXX      XX    ",
"  XXXX      XXXX  4p2d1i2i1m1g++++2i0k71    XX  XX  XX    ",
"XXXX      XXXX  XX    XX    XXXXXXXXXX      XXXX  XXXXXXXX"};