/* XPM */
static char* picture[] = {
"29 26 267 2",
"  	c #ff000000",
"XX	c #ff010101",
"++	c #0047463d",
"..	c #0049483f",
"||	c #0043423a",
"//	c #00515047",
"06	c #0077756a",
"07	c #00818074",
"08	c #008b897e",
"09	c #00090806",
"0a	c #00414038",
"0b	c #003d3c34",
"0c	c #00838175",
"0d	c #0087857a",
"0e	c #008c8a7f",
"0f	c #0067665a",
"0g	c #00848276",
"0h	c #008d8b80",
"0i	c #00716f64",
"0j	c #00383730",
"0k	c #00141410",
"0l	c #0048473e",
"0m	c #00626056",
"0n	c #005a594e",
"0o	c #000a0906",
"0p	c #00d2d2d2",
"0q	c #000a0a07",
"0r	c #00090906",
"0s	c #00504f46",
"0t	c #00080705",
"0u	c #002c2b25",
"0v	c #00656358",
"0w	c #00737166",
"0x	c #0078766b",
"0y	c #004c4b41",
"0z	c #00828075",
"10	c #008a887d",
"11	c #00525148",
"12	c #0033322b",
"13	c #00858377",
"14	c #00807f73",
"15	c #0088867b",
"16	c #00424139",
"17	c #0068665b",
"18	c #00757468",
"19	c #005e5c52",
"1a	c #00858378",
"1b	c #004b4a41",
"1c	c #0034332c",
"1d	c #005c5b51",
"1e	c #00737266",
"1f	c #0087867a",
"1g	c #007d7b6f",
"1h	c #00d1d1d1",
"1i	c #000c0c08",
"1j	c #006c6a5f",
"1k	c #002b2a24",
"1l	c #000b0b07",
"1m	c #0067655a",
"1n	c #00080805",
"1o	c #001b1a16",
"1p	c #003e3d35",
"1q	c #006f6e62",
"1r	c #00605e54",
"1s	c #00868479",
"1t	c #007f7d72",
"1u	c #0069685c",
"1v	c #00313029",
"1w	c #00626156",
"1x	c #008a897e",
"1y	c #008c8b7f",
"1z	c #008c8b80",
"20	c #008b8a7f",
"21	c #007b796d",
"22	c #0022211b",
"23	c #007c7b6f",
"24	c #006c6b5f",
"25	c #001d1c17",
"26	c #005f5e53",
"27	c #005b594f",
"28	c #00646257",
"29	c #007e7c71",
"2a	c #007b7a6e",
"2b	c #00858478",
"2c	c #003f3e36",
"2d	c #0068675b",
"2e	c #0089887c",
"2f	c #00646358",
"2g	c #0032312a",
"2h	c #004f4e45",
"2i	c #0024231e",
"2j	c #006b6a5e",
"2k	c #008e8c81",
"2l	c #006a695d",
"2m	c #006c6b60",
"2n	c #0058564c",
"2o	c #00636257",
"2p	c #0089877c",
"2q	c #007e7c70",
"2r	c #00151410",
"2s	c #00838276",
"2t	c #00706f63",
"2u	c #001e1d19",
"2v	c #0011100c",
"2w	c #000d0c09",
"2x	c #00181814",
"2y	c #005e5d52",
"2z	c #0046453d",
"30	c #0021201b",
"31	c #007a796d",
"32	c #00545349",
"33	c #0010100c",
"34	c #0022211c",
"35	c #007f7d71",
"36	c #000f0e0b",
"37	c #0032312b",
"38	c #004e4d44",
"39	c #0057554b",
"3a	c #000c0b08",
"3b	c #00302f29",
"3c	c #0031302a",
"3d	c #004d4b42",
"3e	c #00535248",
"3f	c #006e6c61",
"3g	c #00717064",
"3h	c #00605f54",
"3i	c #00171612",
"3j	c #00292822",
"3k	c #0046453c",
"3l	c #000a0a06",
"3m	c #0047463e",
"3n	c #004a4940",
"3o	c #002e2d27",
"3p	c #00201f1a",
"3q	c #0021201c",
"3r	c #0036352e",
"3s	c #0044433b",
"3t	c #0025251f",
"3u	c #0057564c",
"3v	c #004c4a41",
"3w	c #004a493f",
"3x	c #0045433b",
"3y	c #03545349",
"3z	c #00767469",
"40	c #00323129",
"41	c #0057564b",
"42	c #0079776c",
"43	c #0089887d",
"44	c #008a897d",
"45	c #00868478",
"46	c #002c2b24",
"47	c #00848377",
"48	c #00838176",
"49	c #006d6c60",
"4a	c #0056554b",
"4b	c #002f2e28",
"4c	c #00828074",
"4d	c #0078766a",
"4e	c #0049483e",
"4f	c #00414037",
"4g	c #00504e45",
"4h	c #00767468",
"4i	c #007a786c",
"4j	c #0023221c",
"4k	c #001f1e19",
"4l	c #005f5d53",
"4m	c #004f4e44",
"4n	c #00515046",
"4o	c #003b3a32",
"4p	c #0034332b",
"4q	c #002e2d26",
"4r	c #002d2c25",
"4s	c #0077766a",
"4t	c #00171611",
"4u	c #001c1b16",
"4v	c #00807e72",
"4w	c #00817f73",
"4x	c #002b2a23",
"4y	c #0026251f",
"4z	c #00161510",
"50	c #0079786c",
"51	c #00868579",
"52	c #008e8d82",
"53	c #00828175",
"54	c #0023221d",
"55	c #001e1d18",
"56	c #0010100b",
"57	c #0012120e",
"58	c #005b594e",
"59	c #008d8c81",
"5a	c #00908e83",
"5b	c #001b1a15",
"5c	c #00181813",
"5d	c #000e0e0a",
"5e	c #00848277",
"5f	c #001f1e1a",
"5g	c #0011110c",
"5h	c #002a2923",
"5i	c #005e5d53",
"5j	c #000e0d09",
"5k	c #006f6d62",
"5l	c #00100f09",
"5m	c #007d7b70",
"5n	c #0024241f",
"5o	c #0088877b",
"5p	c #007f7e72",
"5q	c #00272721",
"5r	c #003c3b34",
"5s	c #00d3d2d2",
"5t	c #007d7c70",
"5u	c #000d0d09",
"5v	c #0046443c",
"5w	c #03090806",
"5x	c #00d2d2d1",
"5y	c #005c5b52",
"5z	c #00727065",
"60	c #00201f1b",
"61	c #000c0c09",
"62	c #00525147",
"63	c #0012110b",
"64	c #007c7a6e",
"65	c #0079776b",
"66	c #00727165",
"67	c #005f5e54",
"68	c #003d3c35",
"69	c #00171713",
"6a	c #00767569",
"6b	c #006a685d",
"6c	c #004c4b42",
"6d	c #0037362f",
"6e	c #0048463e",
"6f	c #0035342d",
"6g	c #0014130f",
"6h	c #0069675c",
"6i	c #0056544b",
"6j	c #005d5b51",
"6k	c #0056544a",
"6l	c #00181713",
"6m	c #00060604",
"6n	c #0049473e",
"6o	c #00373630",
"6p	c #003a3932",
"6q	c #0025241f",
"6r	c #00070704",
"6s	c #00525047",
"6t	c #00636156",
"6u	c #00161511",
"6v	c #000f0f0b",
"6w	c #0012110d",
"6x	c #00403f37",
"6y	c #00191814",
"6z	c #00636157",
"70	c #00282822",
"71	c #00393831",
"72	c #001f1f1a",
"73	c #000b0a07",
"74	c #005b5a50",
"75	c #00616055",
"76	c #00383731",
"77	c #00070705",
"78	c #0035342c",
"79	c #004b4940",
"7a	c #00272621",
"7b	c #000c0b07",
"7c	c #fc0c0c09",
"7d	c #0013130e",
"7e	c #000f0e0a",
"  XX          XXXXXX    XX0p0p    XX  XXXX  XX  XX    XX  ",
"          XX      XX582d5k1h1h5x0m3e3dXX    XX    XX    XX",
"  XX  XX  XX    2d501t0c1h0p5s0p2m2t0f1d6nXX  XXXX    XX  ",
"XX  XX  XXXX26231a0d132s5l0n2n5y631e3g1q0m6s  XXXX  XX    ",
"          0f4c1x2e512o1e5m075t060v0s1m3f1j1w3e0bXXXX      ",
"  XX  XX1w0g08080g2j1s082p1f0z290x3f//111m170m38  XX      ",
"XX    410z1z0e2b2f1a590h0e5o2s07640w170l++6t2o743s  XX    ",
"XX    421x0h154l062k5a1y0e152b141g6a2l6i6o3n6z750s78  XX  ",
"XXXX3y0c1y0h4d4m4v522k0h101f13352a1824196p3o//3h3u0aXXXXXX",
"  XX0v1s1z10274n4w082008150d0z1g651e6h6j0j3p3s271d0l3jXX  ",
"XX  0w4320134e..062e2p1f1a0c3531183g0v6k121o3b3u0n790u    ",
"  XX0x440e144f4o2f530g5e075p2106666b2y3k6q6u700s393n0u    ",
"  3w3z0d1007164p1b2l2q1g2q310x5z1j3h2h372r2v3t3v11++0u  XX",
"XX3x1q450d074g4q4x..1r2t0w0i1j1m676c122x2w6v3o1b0s||3tXX  ",
"  XX1r1t470g284r4y540j0l//32//..681k3i1i1l6w1c3v//1p30    ",
"    0y06480c4h2c22555b5f5n5q1k60693a093l6r3q0a1b3m3r7dXXXX",
"  XX0b1u2114291u2g252r0k2v335u3a0r0r0t0t0k2g||0y1p7a7eXX  ",
"  XX40++49232a18261c5c5g2w1i0q0r1n0t1n6l0u6x++||1c3i      ",
"  XX  1v11244i4s0i19||5h2x333661360k2i3c0a2z16763p7bXXXXXX",
"    XX46124a170i0i2j28//||5r373b3c6d2c||3m0a713q1i7c  XX  ",
"  XX    224b..190f2m0f0m0n32380y..++..3k1p3r721l77XX  XXXX",
"  XXXX    254j0j2h2n1d5i2y0n39623d6e0a0j1k6y733l      XX  ",
"XX  XXXX    4k4t2i1v0b0l2z++5v160b6f3j1o0q0o09    XXXXXX  ",
"XX  XX      XX4u4z560k2u3034342u1o6g0q0r090tXX      XX    ",
"  XXXX      XXXX  575d5j0o0o1l0q0o1n096m    XX  XX  XX    ",
"XXXX      XXXX  XX    XX  095wXXXXXXXX      XXXX  XXXXXXXX"};