/* XPM */
static char* picture[] = {
"29 26 292 2",
"  	c #00000000",
"XX	c #00010101",
"++	c #ff7e7c70",
"..	c #ff090906",
"||	c #ff080805",
"//	c #ff716f64",
"06	c #ff8b897e",
"07	c #ff88867b",
"08	c #ff8c8a7f",
"09	c #ff838175",
"0a	c #ff2d2c26",
"0b	c #ff0a0906",
"0c	c #ff626156",
"0d	c #ff727165",
"0e	c #ff8c8b80",
"0f	c #ff87857a",
"0g	c #ff4a4940",
"0h	c #ff656459",
"0i	c #ff36352e",
"0j	c #ff44433b",
"0k	c #ff424139",
"0l	c #ff45443c",
"0m	c #ff32312a",
"0n	c #ff858378",
"0o	c #ff807e72",
"0p	c #ff49483f",
"0q	c #ff8a887d",
"0r	c #ff515047",
"0s	c #ff747367",
"0t	c #ff8d8b80",
"0u	c #ff828074",
"0v	c #ff7e7d71",
"0w	c #ff7f7e72",
"0x	c #ff6b6a5e",
"0y	c #ff1d1c17",
"0z	c #ff818074",
"10	c #ff33322b",
"11	c #ff403f37",
"12	c #ff67665b",
"13	c #ff34332c",
"14	c #ff48473e",
"15	c #ff1c1b16",
"16	c #ff646358",
"17	c #ff5a584e",
"18	c #ff7c7a6e",
"19	c #ff6d6c60",
"1a	c #ff13130f",
"1b	c #ff43423a",
"1c	c #ff817f73",
"1d	c #ff1e1d19",
"1e	c #ff5c5a50",
"1f	c #ff23221d",
"1g	c #ff3e3d35",
"1h	c #ff7a786c",
"1i	c #ff767569",
"1j	c #ff37362f",
"1k	c #ff4f4e45",
"1l	c #ff191814",
"1m	c #ff090805",
"1n	c #ff47463e",
"1o	c #ffcdcdcd",
"1p	c #ff7b7a6e",
"1q	c #ff7b796d",
"1r	c #ff78766b",
"1s	c #ff757367",
"1t	c #ff636257",
"1u	c #ff504e45",
"1v	c #ff3d3b33",
"1w	c #ff7f7d71",
"1x	c #ff868579",
"1y	c #ff78766a",
"1z	c #ff858377",
"20	c #ff848277",
"21	c #ff7b796e",
"22	c #ff87867a",
"23	c #ff828175",
"24	c #ff7c7b6f",
"25	c #ff545249",
"26	c #ff2c2b25",
"27	c #ff6c6a5f",
"28	c #ff46453c",
"29	c #ff47463d",
"2a	c #ff8a897e",
"2b	c #ff545349",
"2c	c #ff3b3a32",
"2d	c #ff2b2a23",
"2e	c #ff706e63",
"2f	c #ff848377",
"2g	c #ff605e54",
"2h	c #ff22211c",
"2i	c #ff161511",
"2j	c #ff8e8c81",
"2k	c #ff55544a",
"2l	c #ff838176",
"2m	c #ff67665a",
"2n	c #ff706f63",
"2o	c #ff8b8a7f",
"2p	c #ff12110d",
"2q	c #ff2e2d27",
"2r	c #ff5b5a50",
"2s	c #ff0c0a07",
"2t	c #ff727065",
"2u	c #ff5e5d53",
"2v	c #ff717064",
"2w	c #ff0c0b08",
"2x	c #ff4e4d44",
"2y	c #ff0f0f0b",
"2z	c #ff13120f",
"30	c #ff59574d",
"31	c #ff69685c",
"32	c #ff6b695e",
"33	c #ff68675b",
"34	c #ff090806",
"35	c #ff0b0b08",
"36	c #ff080705",
"37	c #ff282722",
"38	c #ff46453d",
"39	c #ff535148",
"3a	c #ff3f3e36",
"3b	c #ff34342d",
"3c	c #ff0b0a07",
"3d	c #ff2f2e28",
"3e	c #ff5a594f",
"3f	c #ffc8c8c8",
"3g	c #ff56554b",
"3h	c #ffcfcfcf",
"3i	c #ff292822",
"3j	c #ff4b4a40",
"3k	c #ff49473e",
"3l	c #ff434239",
"3m	c #ff3f3e35",
"3n	c #fc4f4d43",
"3o	c #fc5b5a4f",
"3p	c #203e3d35",
"3q	c #ff5f5d52",
"3r	c #ff88877b",
"3s	c #ff8b8a7e",
"3t	c #ff6b695d",
"3u	c #ff2f2e27",
"3v	c #ff2b2923",
"3w	c #ff6d6b60",
"3x	c #ff32322b",
"3y	c #ff25241e",
"3z	c #ff8c8b7f",
"40	c #ff7e7c71",
"41	c #ff1f1d17",
"42	c #ff6a695d",
"43	c #ff858478",
"44	c #ff4f4c42",
"45	c #ff403f36",
"46	c #ff605f54",
"47	c #ff78776b",
"48	c #ff666559",
"49	c #ff23221c",
"4a	c #ff5d5c51",
"4b	c #ff57554b",
"4c	c #ff5a584d",
"4d	c #ff4e4c43",
"4e	c #ff757468",
"4f	c #ff77766a",
"4g	c #ff5c5b51",
"4h	c #ff15140f",
"4i	c #ff1f1d18",
"4j	c #ff757368",
"4k	c #ff89887d",
"4l	c #ff848276",
"4m	c #ff79786c",
"4n	c #ff4c4b42",
"4o	c #ff24241d",
"4p	c #ff201f1a",
"4q	c #ff4b4a41",
"4r	c #ff5b594f",
"4s	c #ff7d7c70",
"4t	c #ff828075",
"4u	c #ff737266",
"4v	c #ff8e8d82",
"4w	c #ff89877c",
"4x	c #ff69685d",
"4y	c #ff22211b",
"4z	c #ff1f1e18",
"50	c #ff5e5d52",
"51	c #ff6a695e",
"52	c #ff2b2a24",
"53	c #ff10100b",
"54	c #ff151410",
"55	c #ff69675c",
"56	c #ff8f8e83",
"57	c #ff8d8c80",
"58	c #ff7d7b6f",
"59	c #ff5d5b51",
"5a	c #ff1a1915",
"5b	c #ff151510",
"5c	c #ff1b1a15",
"5d	c #ff48463e",
"5e	c #ff393730",
"5f	c #ff13130e",
"5g	c #ff0f0e0a",
"5h	c #ff8a897d",
"5i	c #ff616055",
"5j	c #ff1b1914",
"5k	c #ff838276",
"5l	c #ff89887c",
"5m	c #ff87867b",
"5n	c #ff4c4a41",
"5o	c #ff1f1f1a",
"5p	c #ff100f0b",
"5q	c #ff5b5a4f",
"5r	c #ff868479",
"5s	c #ff79776c",
"5t	c #ff6e6d62",
"5u	c #ff55534a",
"5v	c #ff6f6e62",
"5w	c #ff201f1b",
"5x	c #ff0d0c09",
"5y	c #ff12120e",
"5z	c #ff56544a",
"60	c #ff79776b",
"61	c #ff1a1a16",
"62	c #ff0a0a07",
"63	c #ff090a06",
"64	c #ff100f0c",
"65	c #ff35332d",
"66	c #ff4d4c43",
"67	c #ff7c7a6f",
"68	c #ff7a796d",
"69	c #ff6a685d",
"6a	c #ff5c5b50",
"6b	c #ff35352e",
"6c	c #ff35342e",
"6d	c #ff4b4940",
"6e	c #ff393831",
"6f	c #ff161611",
"6g	c #ff737166",
"6h	c #ff767468",
"6i	c #ff5e5c52",
"6j	c #ff44423b",
"6k	c #ff262520",
"6l	c #ff1c1b17",
"6m	c #ff3d3c34",
"6n	c #ff4c4b41",
"6o	c #ff67655a",
"6p	c #ff414038",
"6q	c #ff080806",
"6r	c #ff5d5c52",
"6s	c #ff6f6d62",
"6t	c #ff414037",
"6u	c #ff171713",
"6v	c #ff0c0c08",
"6w	c #ff373630",
"6x	c #ff43423b",
"6y	c #ff4a483f",
"6z	c #ff2e2d28",
"70	c #ff21201c",
"71	c #ff22221e",
"72	c #ff292824",
"73	c #ff1b1b16",
"74	c #ff25241f",
"75	c #ff23231d",
"76	c #ff2e2d29",
"77	c #ff353530",
"78	c #ff272622",
"79	c #ff181714",
"7a	c #0336352e",
"7b	c #ff626056",
"7c	c #ff636156",
"7d	c #ff525148",
"7e	c #ff34332d",
"7f	c #ffbcbcbc",
"7g	c #ffc0c0c0",
"7h	c #ff1b1a16",
"7i	c #ff0a0a06",
"7j	c #ff070605",
"7k	c #ff3d3b34",
"7l	c #ff5a594e",
"7m	c #ff615f55",
"7n	c #ff58574c",
"7o	c #ffcacaca",
"7p	c #ffc7c7c7",
"7q	c #ff0b0a08",
"7r	c #ff3e3d36",
"7s	c #ff050504",
"7t	c #ff070604",
"7u	c #ff49473f",
"7v	c #ff050503",
"7w	c #ff181814",
"7x	c #ff0e0d09",
"7y	c #030c0c09",
"7z	c #ff272621",
"80	c #ffd0d0d0",
"81	c #ff040403",
"82	c #ffd1d1d1",
"83	c #ff060604",
"  XX          XXXXXX    XX  XX    XX  XXXX  XX  XX    XX  ",
"          XX      4r1t2n2t//5v320h176nXX    XX    XX    XX",
"  XX  XX  XX  4a4j4s09090o++181h1i0d336r6yXX  XXXX    XX  ",
"XX  XX  XXXX420w070f1z0z2u2u1e2b2t6g//6s0c257aXXXX  XX    ",
"          0s0n2a4k4t55215k0z++60330r16190x0c397kXXXX      ",
"  XX  XX0d2206061w4u062o5l07090v1y190r6t0h127b2x  XX      ",
"XX    3q1z0t080z270q2j0t0807091c1p0d2m380l0c7c7l1b  XX    ",
"XX    1w0e0t432b++2j56082o220n0o676h31390m0g0c7m1k10  XX  ",
"XXXX3o0n0e3z274b2f4v570e0q1x20++681s32171j3d7d2g3g1gXXXXXX",
"  XX//3r0e0f444c4l2a065h5m5r1c181r0d6o303b75283e2r38  XX  ",
"XX  1p06080u284d4m4w070f2f0u++1h0s2n0c1k6z1f7e7n3e7u3i    ",
"  3j1q3s080v452c0h232l2l1c0v1h1i2v121e3a70760a7o3g1n3i    ",
"  3k1r070q401v104n4x5818245s1i2e696i1n0a71770a3f1o0l7z  XX",
"XX3l1s1x0f0w0g0a2d1459192v5t31166a6j0a6u72780m7p1o3h2hXX  ",
"  3m1t0o200u462d4o4y100j5n2x0g0k6b6k2p2y1l797f3f1o3h8082  ",
"  3n1u1y09230s114p4z5a155o1f5w611a35||6v3c377g7q7s7v1m3cXX",
"  XX1v3t210w++1213155b1a5p2y5x621m||36..731j0l0l137w8183  ",
"  XX0m0p3w241q4e2g0i5c2p2w2w0b63||36..1d3b0k147r267x      ",
"  XX3p3u0r0x474f//505d2q1d2z5y642z6l376w0k1n110i1l1mXXXXXX",
"    XX3v3x25482e//51162k291g1j656c6m6p6x0p3a0i150b7y  XX  ",
"  XX    3y26294g0h0x2m5i5q5u1k666d140g0j2c3d7h..7tXX  XXXX",
"  XXXX    4149134q2k172r1e305z1u0p0j1g0i741a7i||      XX  ",
"XX  XXXX    0y4h2h525e1b1b0j0k116e2q1f2i..0b7j    XXXXXX  ",
"XX  XX      XX4i2i535f5j0y1d0y1l6f35..34||XXXX      XX    ",
"  XXXX      XXXX  545g2s0b..2s0b34||6q      XX  XX  XX    ",
"XXXX      XXXX  XX    XX    XXXXXXXXXX      XXXX  XXXXXXXX"};