/* XPM */
static char* picture[] = {
"20 19 172 2",
"  	c #00000000",
"XX	c #00010101",
"++	c #ffcecece",
"..	c #ff737266",
"||	c #ff3f3e36",
"//	c #ff858478",
"06	c #ff626156",
"07	c #ff6d6b60",
"08	c #ff5a594f",
"09	c #ff666459",
"0a	c #ff090906",
"0b	c #ff56554b",
"0c	c #ff181713",
"0d	c #ff4b4a40",
"0e	c #ff7e7d71",
"0f	c #ff2e2d26",
"0g	c #ff89877c",
"0h	c #ff706f63",
"0i	c #ff7f7d72",
"0j	c #ff47463d",
"0k	c #ff727065",
"0l	c #ff757468",
"0m	c #ff807e72",
"0n	c #ff69685c",
"0o	c #ff515047",
"0p	c #ff78776b",
"0q	c #ff868579",
"0r	c #ff13130f",
"0s	c #ff716f64",
"0t	c #ff7b7a6e",
"0u	c #ff31312a",
"0v	c #ff35342d",
"0w	c #ff31302a",
"0x	c #ff45433b",
"0y	c #ff0b0a07",
"0z	c #ff090806",
"10	c #ff292823",
"11	c #ff080805",
"12	c #ff33322b",
"13	c #ff37362f",
"14	c #ff383730",
"15	c #ff080705",
"16	c #ff0a0a07",
"17	c #ff36352e",
"18	c #ff2a2923",
"19	c #ff34342d",
"1a	c #ff302f27",
"1b	c #ff626055",
"1c	c #ff757368",
"1d	c #ff636157",
"1e	c #ff393830",
"1f	c #ff7f7e72",
"1g	c #ff8b8a7e",
"1h	c #ff8b897e",
"1i	c #ff89887c",
"1j	c #ff87857a",
"1k	c #ff6f6d62",
"1l	c #ff7d7b6f",
"1m	c #ffcececd",
"1n	c #ff807f73",
"1o	c #ff7c7a6e",
"1p	c #ff6c6b5f",
"1q	c #ff3e3d35",
"1r	c #ff26251f",
"1s	c #ff87867a",
"1t	c #ff54534a",
"1u	c #ff3e3d34",
"1v	c #ff7a786c",
"1w	c #ff302f28",
"1x	c #ff1f1e19",
"1y	c #ff666559",
"1z	c #ff77756a",
"20	c #ff424138",
"21	c #ff2d2c25",
"22	c #ff272620",
"23	c #ff504f46",
"24	c #ff191914",
"25	c #ff6b695e",
"26	c #ff8c8a7f",
"27	c #ff848277",
"28	c #ff727165",
"29	c #ff434139",
"2a	c #ff201f1a",
"2b	c #ff1b1a15",
"2c	c #ff656459",
"2d	c #ff59574d",
"2e	c #ff282721",
"2f	c #ff151410",
"2g	c #ff717064",
"2h	c #ff7d7c70",
"2i	c #ff79776b",
"2j	c #ff88877b",
"2k	c #ff858378",
"2l	c #ff807e73",
"2m	c #ff5c5b50",
"2n	c #ff23221d",
"2o	c #ff272621",
"2p	c #ff59584d",
"2q	c #ff34332c",
"2r	c #ff0e0e09",
"2s	c #ff817f74",
"2t	c #ff828075",
"2u	c #ff747267",
"2v	c #ff67655a",
"2w	c #ff32312a",
"2x	c #ff100f0b",
"2y	c #ff10100c",
"2z	c #ff45443c",
"30	c #ff55534a",
"31	c #ff3e3c35",
"32	c #ff0c0b08",
"33	c #ff77766a",
"34	c #ff7b796d",
"35	c #ff78766a",
"36	c #ff6d6c61",
"37	c #ff605e54",
"38	c #ff0d0d09",
"39	c #ff0a0907",
"3a	c #ff4c4b42",
"3b	c #ff3a3932",
"3c	c #ff0a0a06",
"3d	c #ff6d6c60",
"3e	c #ff6e6d61",
"3f	c #ff6c6a5f",
"3g	c #ff57554b",
"3h	c #ff292822",
"3i	c #ff070705",
"3j	c #ff68675c",
"3k	c #ff67665a",
"3l	c #ff68675b",
"3m	c #ff44433b",
"3n	c #ff151511",
"3o	c #ff080806",
"3p	c #ff403f37",
"3q	c #ff48463e",
"3r	c #ff535248",
"3s	c #ff5a594e",
"3t	c #ff5a584e",
"3u	c #ff545349",
"3v	c #ff49483f",
"3w	c #ff252520",
"3x	c #ff0a0906",
"3y	c #ff070604",
"3z	c #ff12120e",
"40	c #ff5d5b51",
"41	c #ff3b3a33",
"42	c #ff21211c",
"43	c #ff2c2b25",
"44	c #ff3d3c34",
"45	c #ff56544b",
"46	c #ff1b1a16",
"47	c #ff141310",
"48	c #ff33322c",
"49	c #ff302f29",
"4a	c #ff171612",
"4b	c #ff3b3a32",
"4c	c #ff4e4d44",
"4d	c #ff514f46",
"4e	c #ff4b4a41",
"4f	c #ff3c3b34",
"4g	c #ff2f2e28",
"4h	c #ff1d1c18",
"4i	c #ff313029",
"4j	c #ff414038",
"4k	c #ff48473f",
"4l	c #ff45433c",
"4m	c #ff2d2c26",
"4n	c #ff070704",
"4o	c #ff25251f",
"4p	c #ff282822",
"4q	c #ff24231e",
"4r	c #ff0d0d08",
"          XX          XXXXXX    XX  XXXX",
"XX  XX  XX    XX    XX    XXXX      XXXX",
"XX  XX      252g0s0709083qXX  XX        ",
"      XX0h0m0m2h0l070n3j060b44  XXXX  XX",
"XX++  1l1s//0p2i0e333d0b0x40454b      XX",
"  1a++1m++1y0q2j2s0t..3k3r120b4c4i  XX  ",
"XXXX1f++0i0k260q2t340s3l3s14||4d4j    XX",
"  1b1g0f1t1z0g2k0i353e093t41464e0j4o  XX",
"  ..1h0g0j0n272l0t..3f063u0u0r4f4k4pXXXX",
"  1c1i//1u20280p2u3609083v420y194l18XX  ",
"  1d1j//0d21292m2v373g3m3w0a1619||4q  XX",
"XX0d0e1n0k222a2n2w0u3h3n3x154717130cXX  ",
"XX1e1k1o1v232b0r2x380a0z3y1618144m4rXX  ",
"  XX||1p0l0h0o2o2y393i3o3z10484g0cXX    ",
"    0f1q06072c2p2z0v0w0w1217494h4n    XX",
"XXXX  1r1w0o2d08303a0x3p13434a0z      XX",
"    XXXX1x242e2q313b0v100c0a15XXXX    XX",
"      XXXX  2f2r323c0y1111XX  XX        ",
"  XXXXXX    XX  XXXXXX  XX    XX      XX"};