/* XPM */
static char* picture[] = {
"20 19 172 2",
"  	c #ff000000",
"XX	c #ff010101",
"++	c #00807e72",
"..	c #0034332c",
"||	c #00080805",
"//	c #007e7c70",
"06	c #00727165",
"07	c #00656459",
"08	c #0059574d",
"09	c #00727065",
"0a	c #00545349",
"0b	c #00393830",
"0c	c #008a887d",
"0d	c #008c8a7f",
"0e	c #008a897e",
"0f	c #00807f73",
"0g	c #008b8a7f",
"0h	c #0087857a",
"0i	c #00838276",
"0j	c #00817f73",
"0k	c #0044433b",
"0l	c #0079786c",
"0m	c #003c3b33",
"0n	c #0077766a",
"0o	c #00757367",
"0p	c #00504f46",
"0q	c #005e5c52",
"0r	c #001a1915",
"0s	c #00646257",
"0t	c #0023221d",
"0u	c #005a584e",
"0v	c #000f0e0a",
"0w	c #00737166",
"0x	c #006d6b60",
"0y	c #00535248",
"0z	c #00767569",
"10	c #004b4a41",
"11	c #00393831",
"12	c #0068665b",
"13	c #00090805",
"14	c #00090906",
"15	c #0057564c",
"16	c #0011110d",
"17	c #003e3d35",
"18	c #0024231e",
"19	c #00070604",
"1a	c #0043423a",
"1b	c #0012120e",
"1c	c #00383730",
"1d	c #00403f37",
"1e	c #0089877c",
"1f	c #00868579",
"1g	c #00716f64",
"1h	c #0046443c",
"1i	c #00292821",
"1j	c #00838175",
"1k	c #007b796e",
"1l	c #006e6c61",
"1m	c #0021201a",
"1n	c #0089887c",
"1o	c #006e6d61",
"1p	c #004e4c42",
"1q	c #00434239",
"1r	c #00636257",
"1s	c #0032312a",
"1t	c #001d1d18",
"1u	c #00828074",
"1v	c #00858378",
"1w	c #005a584d",
"1x	c #007b796d",
"1y	c #006f6e62",
"1z	c #004a493f",
"20	c #002c2b24",
"21	c #0026251f",
"22	c #0047463d",
"23	c #006f6d62",
"24	c #006c6a5f",
"25	c #00191813",
"26	c #00706e63",
"27	c #007f7e72",
"28	c #0088877b",
"29	c #0046453c",
"2a	c #001f1f1a",
"2b	c #004e4d44",
"2c	c #0058574d",
"2d	c #00282721",
"2e	c #000d0c08",
"2f	c #007c7b6f",
"2g	c #007d7b6f",
"2h	c #0087867a",
"2i	c #00868478",
"2j	c #00848377",
"2k	c #007f7d71",
"2l	c #005d5c51",
"2m	c #0013120e",
"2n	c #0023231e",
"2o	c #0058564c",
"2p	c #00717064",
"2q	c #007a786d",
"2r	c #00303029",
"2s	c #0010100c",
"2t	c #00535249",
"2u	c #003a3932",
"2v	c #000b0b07",
"2w	c #007a796d",
"2x	c #006c6b5f",
"2y	c #002f2e28",
"2z	c #000d0c09",
"30	c #00080705",
"31	c #0035352e",
"32	c #000a0906",
"33	c #006b6a5f",
"34	c #006f6e63",
"35	c #006a695d",
"36	c #0025241f",
"37	c #0032312b",
"38	c #0045443c",
"39	c #0031302a",
"3a	c #000a0a06",
"3b	c #00535148",
"3c	c #00656359",
"3d	c #0067655a",
"3e	c #00646358",
"3f	c #00615f55",
"3g	c #003d3c35",
"3h	c #00090806",
"3i	c #000a0907",
"3j	c #0046453d",
"3k	c #00616056",
"3l	c #00545249",
"3m	c #004d4b42",
"3n	c #0057554b",
"3o	c #00515047",
"3p	c #00413f38",
"3q	c #0021201c",
"3r	c #00151511",
"3s	c #0035342d",
"3t	c #0034342d",
"3u	c #00161511",
"3v	c #0054534a",
"3w	c #005c5b50",
"3x	c #002b2b25",
"3y	c #00171612",
"3z	c #000c0c08",
"40	c #00070705",
"41	c #000e0d0a",
"42	c #002c2b25",
"43	c #0037362f",
"44	c #00292923",
"45	c #0056554b",
"46	c #00373632",
"47	c #0022211d",
"48	c #002e2d27",
"49	c #0036352f",
"4a	c #002d2d27",
"4b	c #00c9c9c9",
"4c	c #00c3c3c3",
"4d	c #00bcbcbc",
"4e	c #00030302",
"4f	c #002c2c26",
"4g	c #00161611",
"4h	c #492f2e28",
"4i	c #0042413a",
"4j	c #00cbcbcb",
"4k	c #00c8c8c8",
"4l	c #0033322b",
"4m	c #00282722",
"4n	c #00cccccc",
"4o	c #000e0e0b",
"4p	c #0013120f",
"4q	c #000d0d09",
"4r	c #000a0a07",
"          XX          XXXXXX    XX  XXXX",
"XX  XX  XX    XX    XX    XXXX      XXXX",
"XX  XX    0826062p0x070u3jXX  XX        ",
"      XX0l1u272f0w0y12123k3v0m  XXXX  XX",
"XXXX  ++0h1v0q2g//0z333b3l3w0y1c      XX",
"    ++0e1n1w0c2h0f2w063c3m1a45104h  XX  ",
"XX080c0d1o1x0g2i0j0l343d15..1a0p17    XX",
"  090d0g1p++282j//0z0x3e3n..0t4b4iXX  XX",
"  ++0e0h1q1y0i2k2q09353f3o3x464c4j4nXXXX",
"  //1e0i0m1z0o0n0w2x0s153p3y474d4k4o4r  ",
"  061f1j0b20292l070q0a3g3q3z1b4e184p  XX",
"XX0a0f0j07212a0t2r2y361614400r1c4l4qXX  ",
"XX0b1g1k0n220r2m0v2z133h194148114m  XX  ",
"  1d1h1l0o232b2n2s30143i3r42494f1bXX    ",
"    1i0k1r240s2o0k3137..3s434a4g19    XX",
"XXXX  1m1s0p2c0u2t1038173t4416||      XX",
"    XXXX1t252d..2u1139183u13||XXXX    XX",
"      XXXX  2e0v2v323a||||XX  XX        ",
"  XXXXXX    XX  XXXXXX  XX    XX      XX"};