/* XPM */
static char* picture[] = {
"20 19 170 2",
"  	c #00000000",
"XX	c #00010101",
"++	c #ff080805",
"..	c #ff8c8a7f",
"||	c #ff090806",
"//	c #ff727165",
"06	c #ff807f73",
"07	c #ff45443c",
"08	c #ff7a796d",
"09	c #ff7f7e72",
"0a	c #ff34332c",
"0b	c #ff424139",
"0c	c #ff2b2a24",
"0d	c #ffcdcdcd",
"0e	c #ff57554b",
"0f	c #ff7d7b6f",
"0g	c #ff89887c",
"0h	c #ff87857a",
"0i	c #ff46453d",
"0j	c #ff7e7d71",
"0k	c #ff8a887d",
"0l	c #ff87867a",
"0m	c #ff89877c",
"0n	c #ff716f64",
"0o	c #ff636257",
"0p	c #ff646257",
"0q	c #ff35342d",
"0r	c #ff58574c",
"0s	c #ff706e63",
"0t	c #ff4b4a41",
"0u	c #ff6c6a5f",
"0v	c #ff1a1915",
"0w	c #ff767469",
"0x	c #ff59584e",
"0y	c #ff43423a",
"0z	c #ff535249",
"10	c #ff0d0c09",
"11	c #ff393831",
"12	c #ff0a0906",
"13	c #ff656358",
"14	c #ff33322c",
"15	c #ff171612",
"16	c #ff070705",
"17	c #ff3c3b33",
"18	c #ff383730",
"19	c #ff737165",
"1a	c #ff807e73",
"1b	c #ff555349",
"1c	c #ff37362e",
"1d	c #ff44423a",
"1e	c #ff7b796d",
"1f	c #ff8b897e",
"1g	c #ff717064",
"1h	c #ff2a2922",
"1i	c #ff838176",
"1j	c #ff838276",
"1k	c #ff7b7a6e",
"1l	c #ff6f6d62",
"1m	c #ff22221b",
"1n	c #ff78766a",
"1o	c #ff4f4e44",
"1p	c #ff44433a",
"1q	c #ff3d3c33",
"1r	c #ff393830",
"1s	c #ff77766a",
"1t	c #ff757368",
"1u	c #ff1a1a15",
"1v	c #0847463e",
"1w	c #ff818074",
"1x	c #ff858478",
"1y	c #ff2c2b25",
"1z	c #ff272620",
"20	c #ff6e6c61",
"21	c #ff515047",
"22	c #cc21201b",
"23	c #ff6f6e62",
"24	c #ff5c5a4f",
"25	c #ff848276",
"26	c #ff47463d",
"27	c #ff201f1a",
"28	c #ff191813",
"29	c #ff4d4c43",
"2a	c #ff292823",
"2b	c #ff12110d",
"2c	c #ff706f63",
"2d	c #ff7c7b6f",
"2e	c #ff868479",
"2f	c #ff848377",
"2g	c #ff78766b",
"2h	c #ff5e5d53",
"2i	c #ff25251f",
"2j	c #ff13130e",
"2k	c #ff23221d",
"2l	c #ff5a594f",
"2m	c #ff36352f",
"2n	c #ff0d0c08",
"2o	c #ff737166",
"2p	c #ff7e7c70",
"2q	c #ff817f74",
"2r	c #ff737266",
"2s	c #ff666459",
"2t	c #ff32322b",
"2u	c #ff0f0f0b",
"2v	c #ff0e0e0a",
"2w	c #ff3d3c34",
"2x	c #ff0c0b07",
"2y	c #ff6d6b60",
"2z	c #ff7a786c",
"30	c #ff777569",
"31	c #ff6c6b60",
"32	c #ff5f5d53",
"33	c #ff31302a",
"34	c #ff4b4a40",
"35	c #ff6a695d",
"36	c #ff6b6a5e",
"37	c #ff6d6c60",
"38	c #ff6b695e",
"39	c #ff646358",
"3a	c #ff55544a",
"3b	c #ff262621",
"3c	c #ff302f29",
"3d	c #ff44433b",
"3e	c #ff0b0b07",
"3f	c #ff68665b",
"3g	c #ff504f46",
"3h	c #ff67665a",
"3i	c #ff616055",
"3j	c #ff403f37",
"3k	c #ff13120f",
"3l	c #ff080806",
"3m	c #ff3f3e36",
"3n	c #ff262520",
"3o	c #ff626056",
"3p	c #ff56554b",
"3q	c #ff58564c",
"3r	c #ff57564c",
"3s	c #ff525047",
"3t	c #ff42413a",
"3u	c #ff22221d",
"3v	c #ff090906",
"3w	c #ff070604",
"3x	c #ff141310",
"3y	c #ff33332c",
"3z	c #ff36352e",
"40	c #ff5c5b50",
"41	c #ff2c2c26",
"42	c #ff37362f",
"43	c #ff090805",
"44	c #ff525148",
"45	c #ff25241f",
"46	c #ff151410",
"47	c #ff0c0b08",
"48	c #ff0e0e0b",
"49	c #ff2d2c26",
"4a	c #ff35352e",
"4b	c #ff2f2e28",
"4c	c #ff12120e",
"4d	c #ffcccccc",
"4e	c #ff050504",
"4f	c #ff3a3932",
"4g	c #ff393932",
"4h	c #ff2e2d27",
"4i	c #ff171712",
"4j	c #ff3d3c35",
"4k	c #ff13120e",
"4l	c #ff060604",
"4m	c #ff24231e",
"4n	c #ff23231d",
"4o	c #ff1d1c17",
"4p	c #ff14130f",
"          XX          XXXXXX    XX  XXXX",
"XX  XX  XX    XX    XX    XXXX      XXXX",
"XX  XX    1v232c0n2y0o0x07XX  XX        ",
"      XX1n1w092d2o0u353f3o0z17  XXXX  XX",
"XXXX  0j0l1x240f2p0w363g3p404411      XX",
"    1e0k0m0r0k0l0608//130t0b0d0d0d  XX  ",
"XX0e0g..0n08..2e2q2z0s3h3q0a0b4d16    XX",
"  19....1o090m2f0j3037133r0a454e4jXX  XX",
"  1a1f0h1p0s250908//383i3s41460b074mXXXX",
"  0f0g1i1q0t0w2g2r31390r3t15474f0y4nXX  ",
"  //0h1j1r1y262h2s323a3j3u124818174o  XX",
"XX1b06060o1z272i2t333b3k3v160v18144pXX  ",
"XX1c1g1k1s0i282j2u10||++3w10494g0c||XX  ",
"  1d0i1l1t20292k2v||++3l3x0c4a4h4kXX    ",
"    1h070p0u0p0e0y0a3c143y424b4i4l    XX",
"XXXX  1m0q210x2l0z343d3m3z0c4c||      XX",
"    XXXX1u0v2a2m2w110q3n1543++XXXX    XX",
"      XXXX222b2n2x123e++++XX  XX        ",
"  XXXXXX    XX  XXXXXX  XX    XX      XX"};