/* XPM */
static char* picture[] = {
"20 19 167 2",
"  	c #ff000000",
"XX	c #ff010101",
"++	c #008c8a7f",
"..	c #0043423a",
"||	c #00858378",
"//	c #006c6b5f",
"06	c #0034332c",
"07	c #002d2c26",
"08	c #00545349",
"09	c #003f3e36",
"0a	c #00090906",
"0b	c #003a3932",
"0c	c #00070705",
"0d	c #0036352e",
"0e	c #00080805",
"0f	c #0037362f",
"0g	c #0068675b",
"0h	c #00777569",
"0i	c #00706f63",
"0j	c #0088867b",
"0k	c #0087857a",
"0l	c #00706e63",
"0m	c #00817f73",
"0n	c #006d6c60",
"0o	c #0089887c",
"0p	c #0045443b",
"0q	c #00747367",
"0r	c #007a796d",
"0s	c #006b6a5e",
"0t	c #00cecece",
"0u	c #004f4e45",
"0v	c #005a584e",
"0w	c #002a2923",
"0x	c #0079776b",
"0y	c #0024231e",
"0z	c #0033322c",
"10	c #000b0a07",
"11	c #00666459",
"12	c #00626156",
"13	c #0045443c",
"14	c #00403f37",
"15	c #00292823",
"16	c #0056554b",
"17	c #00070704",
"18	c #000a0906",
"19	c #000a0a07",
"1a	c #00302f29",
"1b	c #0035342d",
"1c	c #00282722",
"1d	c #006a685d",
"1e	c #004e4d43",
"1f	c #0039372f",
"1g	c #104c4b42",
"1h	c #008b897e",
"1i	c #0089887d",
"1j	c #007f7e72",
"1k	c #002b2a23",
"1l	c #007c7b6f",
"1m	c #008a887d",
"1n	c #008c8b80",
"1o	c #0089877c",
"1p	c #007c7a6e",
"1q	c #0023231c",
"1r	c #006e6d61",
"1s	c #007e7c70",
"1t	c #00514f45",
"1u	c #003e3d34",
"1v	c #00424139",
"1w	c #0079786c",
"1x	c #00757468",
"1y	c #00636257",
"1z	c #001b1a15",
"20	c #00807f73",
"21	c #00858478",
"22	c #00666559",
"23	c #00282721",
"24	c #004b4a40",
"25	c #00525047",
"26	c #001a1914",
"27	c #00cdcdcd",
"28	c #00cececd",
"29	c #00767468",
"2a	c #0087867a",
"2b	c #00848277",
"2c	c #0046453c",
"2d	c #0021201a",
"2e	c #00191914",
"2f	c #00646358",
"2g	c #0012110d",
"2h	c #00cfcfcf",
"2i	c #00868579",
"2j	c #00807e72",
"2k	c #005e5d53",
"2l	c #0026251f",
"2m	c #0014130f",
"2n	c #0058564c",
"2o	c #005c5a50",
"2p	c #00383731",
"2q	c #000d0c08",
"2r	c #00cecdcd",
"2s	c #007e7c71",
"2t	c #00828074",
"2u	c #007f7d71",
"2v	c #007b7a6e",
"2w	c #00747267",
"2x	c #0067665a",
"2y	c #000f0f0b",
"2z	c #000e0d0a",
"30	c #000c0c08",
"31	c #006d6c61",
"32	c #00767569",
"33	c #007b796e",
"34	c #0077766a",
"35	c #00737266",
"36	c #00605e54",
"37	c #000d0c09",
"38	c #0033322b",
"39	c #004c4a41",
"3a	c #000a0a06",
"3b	c #00636157",
"3c	c #006c6b60",
"3d	c #00737166",
"3e	c #00716f64",
"3f	c #006e6c61",
"3g	c #006c6a5f",
"3h	c #00656459",
"3i	c #0057554b",
"3j	c #00292923",
"3k	c #002e2d28",
"3l	c #0044433b",
"3m	c #00525148",
"3n	c #0068665b",
"3o	c #005a594e",
"3p	c #00151511",
"3q	c #00090806",
"3r	c #002e2e28",
"3s	c #0046443c",
"3t	c #0059584e",
"3u	c #0059584d",
"3v	c #00545249",
"3w	c #0049483f",
"3x	c #00262520",
"3y	c #000a0907",
"3z	c #0011110d",
"40	c #001a1a15",
"41	c #005d5b51",
"42	c #00383730",
"43	c #0031302a",
"44	c #0021201c",
"45	c #003c3b34",
"46	c #00414038",
"47	c #001f1f1a",
"48	c #0013130f",
"49	c #000c0b08",
"4a	c #00141410",
"4b	c #00161511",
"4c	c #004d4b42",
"4d	c #00514f46",
"4e	c #004b4a41",
"4f	c #002f2e28",
"4g	c #001b1a16",
"4h	c #0048473e",
"4i	c #0045433b",
"4j	c #003f3d36",
"4k	c #00161612",
"4l	c #0021201b",
"4m	c #00181713",
"          XX          XXXXXX    XX  XXXX",
"XX  XX  XX  27XX    XX    XXXX      XXXX",
"XX  XX      0t0t0i//3b0v3sXX  XX        ",
"      XX1r20282h2r310s0g120845  XXXX  XX",
"XXXX  1l0k21290x2s323c3m1641080b      XX",
"    0i1m0o222a0j0m333d110u14164c1a  XX  ",
"XXXX0j++1s0q++2i2t0r3e3n3t0f464d09    XX",
"  0g++1n1t0r0o||2u343f113u42474e130y  XX",
"  0h1h1o0p0s2b2j2v353g123v4348094h1cXXXX",
"  0h1i||1u0p0q0x2w0n3h3o3w44491b4i1cXX  ",
"  1d0k||1v072c2k2x363i133x18191b4j4l  XX",
"XX1e1j0m//232d2l060z3j3p3y0c4a0f0d4mXX  ",
"XX1f0l1p1w242e2m2y370a3q17190w0b0710XX  ",
"  1g..0n1x0l0u0y2z0a0c0c3z15064f4kXX    ",
"    1k..1y//2f2n..383k3r0z0d1a4g17    XX",
"XXXX  1q06250v2o08393l140f074b0a      XX",
"    XXXX1z260w2p090b0d1540180eXXXX    XX",
"      XXXX  2g2q303a100e0eXX  XX        ",
"  XXXXXX    XX  XXXXXX  XX    XX      XX"};