/* XPM */
static char* picture[] = {
"20 19 174 2",
"  	c #00000000",
"XX	c #00010101",
"++	c #ff8c8a7f",
"..	c #ff3e3d35",
"||	c #ff58574c",
"//	c #ff7b796d",
"06	c #ff6d6c60",
"07	c #ff88867b",
"08	c #ff807e72",
"09	c #ff2d2c26",
"0a	c #ff706f63",
"0b	c #ff57564c",
"0c	c #ff090906",
"0d	c #ff3d3c34",
"0e	c #ff37362f",
"0f	c #ff77766a",
"0g	c #ff89877c",
"0h	c #ff8a897e",
"0i	c #ff848377",
"0j	c #ff7a786d",
"0k	c #ff706e63",
"0l	c #ff59584d",
"0m	c #ff626056",
"0n	c #ff1f1e19",
"0o	c #ff1a1a15",
"0p	c #ff777569",
"0q	c #ff727165",
"0r	c #ff1d1d18",
"0s	c #ff5d5c52",
"0t	c #ff080705",
"0u	c #ff68665b",
"0v	c #ff58574d",
"0w	c #ff3c3b34",
"0x	c #ff0c0b08",
"0y	c #ff35342d",
"0z	c #ff21211c",
"10	c #ff161612",
"11	c #ff0d0c09",
"12	c #ff36352e",
"13	c #ff080805",
"14	c #ff272621",
"15	c #ff6d6b5f",
"16	c #ff7b7a6e",
"17	c #ff67665b",
"18	c #ff4c4b41",
"19	c #ff38372f",
"1a	c #ff868579",
"1b	c #ff7e7c71",
"1c	c #ff2d2c25",
"1d	c #ff7f7e72",
"1e	c #ff858377",
"1f	c #ff6a695d",
"1g	c #ff3c3b33",
"1h	c #ff24231d",
"1i	c #ff89887c",
"1j	c #ff716f64",
"1k	c #ff4f4d43",
"1l	c #ff44433a",
"1m	c #ff3e3c33",
"1n	c #ff47463d",
"1o	c #ff79776c",
"1p	c #ff747367",
"1q	c #ff5f5e54",
"1r	c #ff1d1c17",
"1s	c #ff838175",
"1t	c #ff858478",
"1u	c #ff78776b",
"1v	c #ff69675c",
"1w	c #ff403f37",
"1x	c #ff2c2b24",
"1y	c #ff272620",
"1z	c #ff535148",
"20	c #ff6f6e62",
"21	c #ff6b6a5e",
"22	c #ff4a4940",
"23	c #ff171711",
"24	c #ff717064",
"25	c #ff8a897d",
"26	c #ff88877c",
"27	c #ff838276",
"28	c #ff3d3b34",
"29	c #ff55534a",
"2a	c #ff646358",
"2b	c #ff56544b",
"2c	c #ff23221d",
"2d	c #ff12120e",
"2e	c #ff747267",
"2f	c #ff7c7b6f",
"2g	c #ff868479",
"2h	c #ff7f7d72",
"2i	c #ff201f1a",
"2j	c #ff2c2b25",
"2k	c #ff545248",
"2l	c #ff2f2e28",
"2m	c #ff0c0b07",
"2n	c #ff757367",
"2o	c #ff7f7d71",
"2p	c #ff817f73",
"2q	c #ff818074",
"2r	c #ff7e7d71",
"2s	c #ff7a796d",
"2t	c #ff636257",
"2u	c #ff292823",
"2v	c #ff1f1e1a",
"2w	c #ffc1c1c1",
"2x	c #ffcacaca",
"2y	c #ff302f28",
"2z	c #ff0a0a06",
"30	c #ff535249",
"31	c #ff7b796e",
"32	c #ff6c6b5f",
"33	c #ff2c2b26",
"34	c #ff201f1b",
"35	c #ff22221d",
"36	c #ffb9b9b9",
"37	c #ffc7c7c7",
"38	c #ffcccccc",
"39	c #ff66655a",
"3a	c #ff737166",
"3b	c #ff6b695e",
"3c	c #ff646257",
"3d	c #ff545349",
"3e	c #ff23231e",
"3f	c #ff13130f",
"3g	c #ff0f0f0c",
"3h	c #ffb4b4b4",
"3i	c #ff12120f",
"3j	c #ff24241f",
"3k	c #ff68675b",
"3l	c #ff67655a",
"3m	c #ff656459",
"3n	c #ff616055",
"3o	c #ff11100d",
"3p	c #ff0c0c09",
"3q	c #ff4d4c43",
"3r	c #ff535248",
"3s	c #ff525148",
"3t	c #ff424139",
"3u	c #ff070604",
"3v	c #ff34332d",
"3w	c #ff14130f",
"3x	c #ff090806",
"3y	c #ff5c5b50",
"3z	c #ff313029",
"40	c #ff36362f",
"41	c #ff2e2d27",
"42	c #ff0a0906",
"43	c #ff070705",
"44	c #ff2b2a24",
"45	c #ff2a2923",
"46	c #ff090805",
"47	c #ff57554b",
"48	c #ff56554b",
"49	c #ff12110d",
"4a	c #ff191814",
"4b	c #ff2e2d28",
"4c	c #ff11100c",
"4d	c #ff4e4d44",
"4e	c #ff504f46",
"4f	c #ff4b4940",
"4g	c #ff373630",
"4h	c #ff393831",
"4i	c #ff161511",
"4j	c #ff31302a",
"4k	c #ff403e37",
"4l	c #ff45443c",
"4m	c #ff47463e",
"4n	c #ff44433b",
"4o	c #ff34332c",
"4p	c #ff2a2a24",
"4q	c #ff13120e",
"4r	c #ff060604",
"4s	c #ff24231e",
"4t	c #ff141410",
"          XX          XXXXXX    XX  XXXX",
"XX  XX  XX    XX    XX    XXXX      XXXX",
"XX  XX    0l242e2n0k0u0s3qXX  XX        ",
"      XX0j1s082f0a30393k0m0b..  XXXX  XX",
"XXXX  1d071t0m082o0f060v0w3y470d      XX",
"    //0h1i||25072p313a3l3r3z484d4j  XX  ",
"XX||0g++1j1u++2g2q0j0a0u0l40..4e4k    XX",
"  15++++1k//260i2r0p063m0v0e0r4f4l4s  XX",
"  160h071l1v272h2s0q3b3n3s4149..4m14XXXX",
"  0f0g0i1m1w0a0p0q323c0b3t100x124n14XX  ",
"  171a1e1n1x280b2t0s3d0w0z42110e0d0n  XX",
"XX181b080k1y0n2i2u333e3o0c434a4g4o4tXX  ",
"XX1906//1o1z0o0o2v343f0x3u11094h4p0cXX  ",
"  XX..1f1p20292j0r353g3p10440e094qXX    ",
"    1c1g1q212a2k2w363h0y0y124b4i4r    XX",
"XXXX  1h09222b||2x373i0d3v454c13      XX",
"    XXXX1r232c2l2y383j0z3w4613XXXX    XX",
"      XXXX  2d2m2z0t0c0t3xXX  XX        ",
"  XXXXXX    XX  XXXXXX  XX    XX      XX"};