/* XPM */
static char* picture[] = {
"20 19 175 2",
"  	c #00000000",
"XX	c #00010101",
"++	c #ff080805",
"..	c #ff424139",
"||	c #ff727165",
"//	c #ff060604",
"06	c #ff545349",
"07	c #ff45443c",
"08	c #ff7f7d72",
"09	c #ff6c6a5f",
"0a	c #ff636257",
"0b	c #ff23221d",
"0c	c #ff2e2d27",
"0d	c #ff37362f",
"0e	c #ff34332c",
"0f	c #ff807f73",
"0g	c #ff717064",
"0h	c #ff8a897e",
"0i	c #ff807e72",
"0j	c #ff706f63",
"0k	c #ff8c8a7f",
"0l	c #ff838276",
"0m	c #ff87867a",
"0n	c #ff646358",
"0o	c #ff32312a",
"0p	c #ff6f6d62",
"0q	c #ff262520",
"0r	c #ff504f46",
"0s	c #ff191813",
"0t	c #ff58564c",
"0u	c #ff656358",
"0v	c #ff393831",
"0w	c #ff767569",
"0x	c #ff090906",
"0y	c #ff24241f",
"0z	c #ff3e3d35",
"10	c #ff2c2b25",
"11	c #ff57564b",
"12	c #ff757468",
"13	c #ff7d7b6f",
"14	c #ff37362e",
"15	c #ff8a887d",
"16	c #ff8c8b7f",
"17	c #ff89887c",
"18	c #ff87857a",
"19	c #ff2a2922",
"1a	c #ff8a897d",
"1b	c #ff8b8a7e",
"1c	c #ff868579",
"1d	c #ff838175",
"1e	c #ff807e73",
"1f	c #ff7b796d",
"1g	c #ff6d6c60",
"1h	c #ff23221c",
"1i	c #ff7a786c",
"1j	c #ff89877c",
"1k	c #ff4e4d43",
"1l	c #ff444239",
"1m	c #ff3c3b33",
"1n	c #ff3a3931",
"1o	c #ff78766a",
"1p	c #ff757367",
"1q	c #ff626156",
"1r	c #ff1b1a15",
"1s	c #ff59574c",
"1t	c #ff828175",
"1u	c #ff858378",
"1v	c #ff59584d",
"1w	c #ff7c7a6e",
"1x	c #ff49473f",
"1y	c #ff2c2b24",
"1z	c #ff49483f",
"20	c #ff7f7e72",
"21	c #ff88877c",
"22	c #ff747367",
"23	c #ff44433b",
"24	c #ff1f1f1a",
"25	c #ff4f4e45",
"26	c #ff12120e",
"27	c #ff7c7b6f",
"28	c #ff868479",
"29	c #ff848377",
"2a	c #ff7f7d71",
"2b	c #ff77756a",
"2c	c #ff5c5a50",
"2d	c #ff12120d",
"2e	c #ff26251f",
"2f	c #ff58574c",
"2g	c #ff5a584e",
"2h	c #ff33322b",
"2i	c #ff0c0c07",
"2j	c #ff7e7c71",
"2k	c #ff817f73",
"2l	c #ff7e7c70",
"2m	c #ff7a786d",
"2n	c #ff302f29",
"2o	c #ff0f0e0a",
"2p	c #ff100f0c",
"2q	c #ff46453d",
"2r	c #ff535249",
"2s	c #ff0c0b08",
"2t	c #ff6e6d61",
"2u	c #ff515046",
"2v	c #ff7a796d",
"2w	c #ff79786c",
"2x	c #ff727065",
"2y	c #ff6c6b5f",
"2z	c #ff5e5c52",
"30	c #ff0d0c08",
"31	c #ff36362f",
"32	c #ff4c4a41",
"33	c #ff0a0906",
"34	c #ff68675b",
"35	c #ff6f6e63",
"36	c #ff6d6b60",
"37	c #ff6a695d",
"38	c #ff090806",
"39	c #ff080806",
"3a	c #ff32312b",
"3b	c #ff46453c",
"3c	c #ff0a0a07",
"3d	c #ff5b594f",
"3e	c #ff68665b",
"3f	c #ff525148",
"3g	c #ff656359",
"3h	c #ff67655a",
"3i	c #ff615f55",
"3j	c #ff57564c",
"3k	c #ff3d3c34",
"3l	c #ff11100d",
"3m	c #ff0b0a08",
"3n	c #ff34332d",
"3o	c #ff47463e",
"3p	c #ff616055",
"3q	c #ff4d4b42",
"3r	c #ff57554b",
"3s	c #ff515047",
"3t	c #ff403f37",
"3u	c #ff20201b",
"3v	c #ff161612",
"3w	c #ff141410",
"3x	c #ff54534a",
"3y	c #ff5c5b50",
"3z	c #ff3f3e36",
"40	c #ff33332c",
"41	c #ff181714",
"42	c #ff181815",
"43	c #ff0f0f0c",
"44	c #ff0e0d0a",
"45	c #ff36352f",
"46	c #ff292923",
"47	c #ff090805",
"48	c #ff3c3b34",
"49	c #ff535248",
"4a	c #ff56554b",
"4b	c #ff22221c",
"4c	c #ff191814",
"4d	c #ff201f1b",
"4e	c #ff141310",
"4f	c #ff1a1a15",
"4g	c #ff11100c",
"4h	c #ff4b4a41",
"4i	c #ff4b4940",
"4j	c #ff43423a",
"4k	c #ffbcbcbc",
"4l	c #ffb9b9b9",
"4m	c #ffbbbbbb",
"4n	c #ff2d2c26",
"4o	c #ff151511",
"4p	c #ff2f2e28",
"4q	c #ffc6c6c6",
"4r	c #ff11110d",
"4s	c #ff23231d",
"4t	c #ffcbcbcb",
"4u	c #ff020201",
"          XX          XXXXXX    XX  XXXX",
"XX  XX  XX    XX    XX    XXXX      XXXX",
"XX  XX    1s0j||||2t0u3d3oXX  XX        ",
"      XX1i1t20270g2u343e3p3x48  XXXX  XX",
"XXXX  0i0m1u0a082j0w093f063y490v      XX",
"    081a1j1v0h0m0f2v||3g3q3z4a4h4p  XX  ",
"XX11150k091w0k282k2w353h0t0e..0r0z    XX",
"  12161b1k0821292l0w360n3r404b4i..XX  XX",
"  0f0h1c1l0p0l2a2m2x373i3s104c4j074sXXXX",
"  13171d1m1x222b||2y0a3j3t414d4k..0bXX  ",
"  0g180l1n1y232c0u2z063k3u424e4l4q4t  XX",
"XX060i1e0n0q240b2n0c0y3l0x434f4m////XX  ",
"XX140j1f1o1z0s2d2o3038++//440c0d0y4uXX  ",
"  07071g1p0p252e2p0x393m3v100d4n4rXX    ",
"    19..1q090a2f2q313a3n0e450c4o//    XX",
"XXXX  1h0o0r0t2g2r323b0z0e464g++      XX",
"    XXXX1r0s0q2h0v0d0o0b3w47++XXXX    XX",
"      XXXX  262i2s333c++++XX  XX        ",
"  XXXXXX    XX  XXXXXX  XX    XX      XX"};