/* XPM */
static char* picture[] = {
"36 26 457 2",
"  	c #ff000000",
"XX	c #ff010101",
"++	c #00070705",
"..	c #00080806",
"||	c #00090907",
"//	c #004c4b41",
"06	c #000a0a07",
"07	c #00060604",
"08	c #004a483f",
"09	c #00080705",
"0a	c #00090806",
"0b	c #00626156",
"0c	c #00090906",
"0d	c #003b3a33",
"0e	c #0087857a",
"0f	c #003a3932",
"0g	c #004d4c42",
"0h	c #004b4a40",
"0i	c #00636156",
"0j	c #007e7c70",
"0k	c #00040403",
"0l	c #0089887d",
"0m	c #0088867b",
"0n	c #0089877c",
"0o	c #0049483e",
"0p	c #001a1914",
"0q	c #000c0b08",
"0r	c #00514f45",
"0s	c #00737166",
"0t	c #00a2a098",
"0u	c #00080805",
"0v	c #009c9c94",
"0w	c #009b9994",
"0x	c #00393831",
"0y	c #0087867a",
"0z	c #00171611",
"10	c #0012110d",
"11	c #004d4b41",
"12	c #004d4c41",
"13	c #004f4e44",
"14	c #0011110d",
"15	c #00070604",
"16	c #005f5d53",
"17	c #00626055",
"18	c #00646257",
"19	c #00656257",
"1a	c #00646258",
"1b	c #000d0c09",
"1c	c #00504d44",
"1d	c #00504f46",
"1e	c #003f3b32",
"1f	c #00737266",
"1g	c #00050403",
"1h	c #00a5a8a1",
"1i	c #009da09a",
"1j	c #003b3a32",
"1k	c #00070605",
"1l	c #00423d34",
"1m	c #009f9a93",
"1n	c #009b9b95",
"1o	c #0079776b",
"1p	c #000b0b08",
"1q	c #00747367",
"1r	c #009a9c94",
"1s	c #009a9b96",
"1t	c #00767468",
"1u	c #00535148",
"1v	c #00423b33",
"1w	c #00999992",
"1x	c #009b9c95",
"1y	c #00a0a29c",
"1z	c #00545147",
"20	c #009e9d96",
"21	c #00777569",
"22	c #00474238",
"23	c #009d9b95",
"24	c #009d9e97",
"25	c #007e7d71",
"26	c #000d0d09",
"27	c #00454339",
"28	c #00050503",
"29	c #00807d71",
"2a	c #000e0e0a",
"2b	c #00302a23",
"2c	c #00807e72",
"2d	c #00383730",
"2e	c #007d7a6e",
"2f	c #00817f73",
"2g	c #00838175",
"2h	c #00868579",
"2i	c #0088877c",
"2j	c #008c8a7e",
"2k	c #008b897e",
"2l	c #008a887d",
"2m	c #0089887c",
"2n	c #001b1a15",
"2o	c #00171612",
"2p	c #00161611",
"2q	c #00161511",
"2r	c #00151410",
"2s	c #00171712",
"2t	c #004f4d43",
"2u	c #004e4c42",
"2v	c #004a493f",
"2w	c #0044433a",
"2x	c #00292821",
"2y	c #000e0e09",
"2z	c #004e4d43",
"30	c #004c4a41",
"31	c #004b4940",
"32	c #0048473e",
"33	c #0047463d",
"34	c #002d2c26",
"35	c #001d1d18",
"36	c #00858378",
"37	c #006a665b",
"38	c #00615d53",
"39	c #00615f55",
"3a	c #00656258",
"3b	c #00656358",
"3c	c #006d6c61",
"3d	c #003d3c34",
"3e	c #0010100c",
"3f	c #00716f64",
"3g	c #00616055",
"3h	c #0056544b",
"3i	c #004b483f",
"3j	c #004c4b42",
"3k	c #004c4d43",
"3l	c #00514c42",
"3m	c #00514d43",
"3n	c #004f4e46",
"3o	c #00515048",
"3p	c #00524f45",
"3q	c #00535047",
"3r	c #00525046",
"3s	c #00514f46",
"3t	c #0056554b",
"3u	c #00757468",
"3v	c #003c3b33",
"3w	c #00717064",
"3x	c #004d4d43",
"3y	c #0046463d",
"3z	c #0037362e",
"40	c #003f3a31",
"41	c #00403a31",
"42	c #003e3931",
"43	c #003f3a30",
"44	c #003e3a31",
"45	c #00403a30",
"46	c #003e3a32",
"47	c #003f3b31",
"48	c #00433e34",
"49	c #00403d33",
"4a	c #003f3d33",
"4b	c #003d3930",
"4c	c #005f5c51",
"4d	c #00625f55",
"4e	c #004d4d44",
"4f	c #0090917e",
"4g	c #008b8779",
"4h	c #00868073",
"4i	c #00867d71",
"4j	c #00817d71",
"4k	c #00828071",
"4l	c #007a8379",
"4m	c #00868074",
"4n	c #00818779",
"4o	c #00858579",
"4p	c #00858679",
"4q	c #007e6c5a",
"4r	c #004e4a38",
"4s	c #005a554a",
"4t	c #00777468",
"4u	c #00080706",
"4v	c #00040302",
"4w	c #00615f54",
"4x	c #00423f36",
"4y	c #00aaaaa1",
"4z	c #00a0968c",
"50	c #009f9a91",
"51	c #00a3a097",
"52	c #00a5a29c",
"53	c #00a7a59f",
"54	c #00a7a9a2",
"55	c #00a6a8a0",
"56	c #00a4a6a0",
"57	c #007a6554",
"58	c #00582f21",
"59	c #00423c33",
"5a	c #00797469",
"5b	c #004e4e45",
"5c	c #00413e34",
"5d	c #009e978a",
"5e	c #00958d81",
"5f	c #00978d83",
"5g	c #0096938e",
"5h	c #00a09993",
"5i	c #00a39c95",
"5j	c #00a19f99",
"5k	c #00a29f97",
"5l	c #009d9d96",
"5m	c #00999890",
"5n	c #00958c82",
"5o	c #00725f4d",
"5p	c #00532b1e",
"5q	c #0039322a",
"5r	c #0079756a",
"5s	c #009a9588",
"5t	c #0090867e",
"5u	c #008e8981",
"5v	c #00939186",
"5w	c #0099948b",
"5x	c #009d9890",
"5y	c #009c9a95",
"5z	c #0095968f",
"60	c #00939388",
"61	c #00858b82",
"62	c #006c5b4c",
"63	c #004a2e21",
"64	c #003e342c",
"65	c #00030302",
"66	c #00636055",
"67	c #004f4d44",
"68	c #00423e35",
"69	c #009d9b8e",
"6a	c #00998c83",
"6b	c #00939086",
"6c	c #00939087",
"6d	c #009c9791",
"6e	c #00969893",
"6f	c #009b9a93",
"6g	c #009c9b94",
"6h	c #00969992",
"6i	c #00949690",
"6j	c #00898d81",
"6k	c #006e6555",
"6l	c #005c3728",
"6m	c #003d372f",
"6n	c #007a786b",
"6o	c #00433e35",
"6p	c #009ea095",
"6q	c #009a9289",
"6r	c #009c928a",
"6s	c #0098948b",
"6t	c #009b9891",
"6u	c #00979b94",
"6v	c #009b9a95",
"6w	c #009a9f97",
"6x	c #009a9a92",
"6y	c #00909288",
"6z	c #006f6b5d",
"70	c #0053362b",
"71	c #00403a32",
"72	c #007d7b6f",
"73	c #000b0a08",
"74	c #00636257",
"75	c #00423e36",
"76	c #00a0a395",
"77	c #009c9a92",
"78	c #009a978c",
"79	c #0097968e",
"7a	c #009a9d98",
"7b	c #009e9d95",
"7c	c #00a0a197",
"7d	c #009c9e97",
"7e	c #009c9c96",
"7f	c #0094978d",
"7g	c #00727366",
"7h	c #00593e30",
"7i	c #007d7c6f",
"7j	c #000a0907",
"7k	c #01080806",
"7l	c #00757368",
"7m	c #00434238",
"7n	c #009b9991",
"7o	c #009b9992",
"7p	c #009ba099",
"7q	c #009ea19b",
"7r	c #009da09b",
"7s	c #00979a93",
"7t	c #00767965",
"7u	c #005d3e30",
"7v	c #007c7a6e",
"7w	c #01040402",
"7x	c #00646358",
"7y	c #00454036",
"7z	c #00a4a69c",
"80	c #00a09f96",
"81	c #009d9b94",
"82	c #009a9a96",
"83	c #009a9a95",
"84	c #009d9f99",
"85	c #009f9e98",
"86	c #00a2a39c",
"87	c #00a3a59f",
"88	c #00979a94",
"89	c #00747768",
"8a	c #006b4436",
"8b	c #00413c33",
"8c	c #00040402",
"8d	c #00767569",
"8e	c #00656459",
"8f	c #00565349",
"8g	c #00464239",
"8h	c #00a6a59e",
"8i	c #00a59e95",
"8j	c #009f9b94",
"8k	c #009d9e96",
"8l	c #009c9e99",
"8m	c #00a4a39c",
"8n	c #00a5a49c",
"8o	c #00767566",
"8p	c #00543e30",
"8q	c #003f3c33",
"8r	c #0057554a",
"8s	c #00abaaa4",
"8t	c #00a4a09a",
"8u	c #009e9e98",
"8v	c #009d9c95",
"8w	c #009c9d97",
"8x	c #00a09f99",
"8y	c #00a2a29a",
"8z	c #00a2a69f",
"90	c #00a0a39d",
"91	c #00747366",
"92	c #005b3c2f",
"93	c #000a0906",
"94	c #00656359",
"95	c #0057564b",
"96	c #00aaa9a0",
"97	c #00a1a099",
"98	c #009a9e98",
"99	c #009d9e9b",
"9a	c #009fa39c",
"9b	c #00a1a29c",
"9c	c #00a2a49e",
"9d	c #00a4a59f",
"9e	c #00a0a49e",
"9f	c #00726f5f",
"9g	c #00563a2d",
"9h	c #003d3931",
"9i	c #007f7e71",
"9j	c #00070706",
"9k	c #0077756a",
"9l	c #00656559",
"9m	c #0059584c",
"9n	c #00aca9a1",
"9o	c #00929792",
"9p	c #00959992",
"9q	c #00999d97",
"9r	c #009ea099",
"9s	c #00a0a19a",
"9t	c #00a2a39d",
"9u	c #00a2a6a1",
"9v	c #009fa49d",
"9w	c #006f6856",
"9x	c #0053392d",
"9y	c #0040372f",
"9z	c #007f7d71",
"a0	c #0077766a",
"a1	c #0067655a",
"a2	c #0058564c",
"a3	c #00a8a69e",
"a4	c #008f8f84",
"a5	c #00898981",
"a6	c #00868982",
"a7	c #00898d84",
"a8	c #00868e88",
"a9	c #008c9085",
"aa	c #00909891",
"ab	c #00979c94",
"ac	c #00999f98",
"ad	c #009ea39e",
"ae	c #00686458",
"af	c #00493127",
"ag	c #0039342d",
"ah	c #01050503",
"ai	c #0078766a",
"aj	c #0069685d",
"ak	c #0059594d",
"al	c #00424037",
"am	c #00847968",
"an	c #006d6858",
"ao	c #006a5d53",
"ap	c #00645e4f",
"aq	c #00606254",
"ar	c #00656259",
"as	c #005d675a",
"at	c #0064675b",
"au	c #00666d62",
"av	c #006a7365",
"aw	c #006d6f63",
"ax	c #00707367",
"ay	c #005b4c3a",
"az	c #00382c23",
"b0	c #003d362e",
"b1	c #00383831",
"b2	c #000f0e0b",
"b3	c #0079776c",
"b4	c #006a695d",
"b5	c #0058574d",
"b6	c #004b483e",
"b7	c #0039342b",
"b8	c #00312821",
"b9	c #002c241d",
"ba	c #002c251f",
"bb	c #002f2721",
"bc	c #002f2922",
"bd	c #00312a23",
"be	c #002f2a23",
"bf	c #002f2720",
"bg	c #002a251e",
"bh	c #002b2620",
"bi	c #00615e54",
"bj	c #0079786c",
"bk	c #006c6a5f",
"bl	c #00727065",
"bm	c #00828174",
"bn	c #00827f73",
"bo	c #00858275",
"bp	c #00848175",
"bq	c #00848276",
"br	c #00817e72",
"bs	c #00828074",
"bt	c #00383731",
"bu	c #007b796e",
"bv	c #0087867b",
"bw	c #0088867a",
"bx	c #008a887c",
"by	c #008c8b7f",
"bz	c #008c8a7f",
"c0	c #fc33322c",
"c1	c #0088877b",
"c2	c #008a897e",
"c3	c #000d0d0a",
"c4	c #000c0c09",
"c5	c #0020201a",
"c6	c #001e1d18",
"c7	c #001e1d17",
"c8	c #001c1b16",
"c9	c #001c1c16",
"ca	c #001d1c17",
"cb	c #00181712",
"cc	c #00161510",
"cd	c #0011100c",
"ce	c #0014140f",
"cf	c #000d0c08",
"cg	c #000e0d09",
"ch	c #000c0c08",
"ci	c #000f0e0a",
"cj	c #00151510",
"ck	c #00181814",
"cl	c #000f0f0b",
"cm	c #001a1a15",
"cn	c #00171713",
"co	c #000e0d0a",
"XXXX363f3w0s1f0s0s1q1q1t7l1t8d21219ka0aib3bjbuc0        XX  XX  XXXX    ",
"  //373g164d4w0b0b660i74187x8e1a949la1ajb4bk252h  XX  XX    XXXXXX    XX",
"2t2z383h3x4e1c5b0r671d1u1u1z8f8r959ma2akb5bl0e0ec5XX  XX      XX  XX    ",
"2u0g163i3y1e4x5c1l686o757m7y8g22222727al1z0j2h0ec62s  XXXXXX            ",
"////393j3z4f4y5d5s696p760t7z8h8s969na3amb62e0y0mc72r  XXXX    XX  XX    ",
"1130173k404g4z5e5t6a6q771m808i8t9720a4anb70j0e0yc8ceXX    XXXX    XX    ",
"12//0b3l414h505f5u6b6r787n81208u989oa5aob81o0m0mc9cf  XX                ",
"130g173m424i515g5v6c6s791w828j8v1n1w0lapb92ebv0mca2aXX          XX    XX",
"0g0h0b1c434j525h5w6d6t0w1s831x23239pa6aqba2cbw0n0pcg                    ",
"//0h0i3n444k535i5x6e6u0w1x0v0v8w240wa7arbb2f2ic12nch      XX          XX",
"13313a0r454l1h5j5y6f1r7a7o1r8k24999qa8asbcbm0n2i2n10XX  XXXX      XXXXXX",
"//0h0i3o464m545k1m6g6v7b7p848l8x9a9ra9at2bbn0n0l0z26XX    XXXXXX  XX    ",
"0h080i3p474n1h0t1n0v6w7c7q850t8y9b9saaau2bbo0l0ncbciXXXX    XXXX      XX",
"12080b3q1e0e555l5z6h1s7d1y868m1y9c9tabavbdbpbx2l2ocj      XX  XXXXXX  XX",
"0g08180r484o565m606i6x7e7r878n8z9d9uacawbebq2j2m2p2pXX      XX  XX    XX",
"2v08193r494p1i5n616j6y7f7s881i909e9vadaxbf2g2k2m2o2s  XXXXXX        XXXX",
"11323b3s4a4q575o626k6z7g7t898o919f9waeaybg2f2jc2cc10XXXX    XXXX    XX  ",
"//08191d4b4r585p636l707h7u8a8p929g9xafazbhbrby0l0z14XX  XX  XX  XXXXXXXX",
"08331a3t4c4s595q646m711v1l8b8q1v9h9yagb0bi0ybz2l0zck        XXXXXXXXXXXX",
"//0o3c3u1f4t5a5r1o6n727i7v0j0j259i9z29292cbs2k2g2qcl  XX          XX    ",
"0o343d3v0d0d1j1j0f0d0d0d0f0f0f0x0f0x0xb12dbt2d062r0p                XX  ",
"0o350606||0c||||||0a..........||0a..++0a..0a||..10cm        XX  XX      ",
"2w140c||0a4u++09....++..++++..++9j..++091k..++1pcdcn        XXXXXXXX  XX",
"2x0q0c09++..++++06..++7j0c0707++09090707..||06c30u2qXX    XX  XXXX      ",
"0p0q1b0a15++060u1p0u061b||0707932628072a++++0qc4++coXXXX      XX  XX    ",
"2y153e++1g4v..1k650c737k7w8c0k0k1g0kahb2||09++280k  XXXX      XXXX      "};