/* XPM */
static char* picture[] = {
"36 26 427 2",
"  	c #00000000",
"XX	c #00010101",
"++	c #ff070705",
"..	c #ff080806",
"||	c #ff090907",
"//	c #ff4c4b41",
"06	c #ff060604",
"07	c #ff4a483f",
"08	c #ff636257",
"09	c #ff0a0a07",
"0a	c #ff080705",
"0b	c #ff090806",
"0c	c #ff88867b",
"0d	c #ff4d4c42",
"0e	c #ff090906",
"0f	c #ff3b3a33",
"0g	c #ff3a3932",
"0h	c #ff89877c",
"0i	c #ff87857a",
"0j	c #ff89887d",
"0k	c #ff4f4e44",
"0l	c #ff4e4d43",
"0m	c #ff616055",
"0n	c #ff626156",
"0o	c #ff646258",
"0p	c #ff4d4c43",
"0q	c #ff4f4e45",
"0r	c #ff040403",
"0s	c #ff4d4c41",
"0t	c #ff4b4a40",
"0u	c #ff49483e",
"0v	c #ff1a1914",
"0w	c #ff4c4a41",
"0x	c #ff4b4940",
"0y	c #ff0c0b08",
"0z	c #ff616056",
"10	c #ff4c4b42",
"11	c #ff4f4d44",
"12	c #ff37362f",
"13	c #ff737166",
"14	c #ff080805",
"15	c #ff383730",
"16	c #ff7d7b6f",
"17	c #ff767569",
"18	c #ff7e7c70",
"19	c #ff393831",
"1a	c #ff3e3d35",
"1b	c #ff7f7d71",
"1c	c #ff8a887d",
"1d	c #ff8b897e",
"1e	c #ff171611",
"1f	c #ff12110d",
"1g	c #ff4d4b41",
"1h	c #ff4d4b42",
"1i	c #ff48473e",
"1j	c #ff11110d",
"1k	c #ff5e5d53",
"1l	c #ff5f5d53",
"1m	c #ff626056",
"1n	c #ff0d0c09",
"1o	c #ff55534a",
"1p	c #ff757368",
"1q	c #ff0a0907",
"1r	c #ff33322b",
"1s	c #ff34332c",
"1t	c #ff35342d",
"1u	c #ff5c5b50",
"1v	c #ff737266",
"1w	c #ff050403",
"1x	c #ff58564c",
"1y	c #ff605e54",
"1z	c #ff4e4c43",
"20	c #ff949993",
"21	c #ff3b3a32",
"22	c #ff9c9d96",
"23	c #ff9b9e97",
"24	c #ff77766a",
"25	c #ff070605",
"26	c #ff999a94",
"27	c #ff0b0b08",
"28	c #ff747367",
"29	c #ff989b95",
"2a	c #ff79786c",
"2b	c #ff9c9c95",
"2c	c #ff767468",
"2d	c #ff5d5c51",
"2e	c #ffa0a29b",
"2f	c #ff979a94",
"2g	c #ff7d7c70",
"2h	c #ff3c3c34",
"2i	c #ff9ca19a",
"2j	c #ff9b9c96",
"2k	c #ffa2a5a0",
"2l	c #ff7e7d71",
"2m	c #ff0d0d09",
"2n	c #ff050503",
"2o	c #ff69675c",
"2p	c #ff0e0e0a",
"2q	c #ff4f4f45",
"2r	c #ff807f73",
"2s	c #ff848276",
"2t	c #ff868579",
"2u	c #ff1b1a15",
"2v	c #ff171612",
"2w	c #ff161611",
"2x	c #ff161511",
"2y	c #ff151410",
"2z	c #ff171712",
"30	c #ff4f4d43",
"31	c #ff4e4c42",
"32	c #ff4a493f",
"33	c #ff44433a",
"34	c #ff292821",
"35	c #ff0e0e09",
"36	c #ff47463d",
"37	c #ff2d2c26",
"38	c #ff1d1d18",
"39	c #ff070704",
"3a	c #ff858378",
"3b	c #ff68665b",
"3c	c #ff636157",
"3d	c #ff646358",
"3e	c #ff6d6c61",
"3f	c #ff3d3c34",
"3g	c #ff10100c",
"3h	c #ff706f64",
"3i	c #ff56544a",
"3j	c #ff49483f",
"3k	c #ff4a4940",
"3l	c #ff504e45",
"3m	c #ff3c3b33",
"3n	c #ff717064",
"3o	c #ff44433b",
"3p	c #ff313029",
"3q	c #ff32312b",
"3r	c #ff32322b",
"3s	c #ff35352e",
"3t	c #ff36352e",
"3u	c #ff36362e",
"3v	c #ff373730",
"3w	c #ff070604",
"3x	c #ff615f55",
"3y	c #ff13140e",
"3z	c #ff0d0401",
"40	c #ff4e4f41",
"41	c #ff524136",
"42	c #ff4f3e34",
"43	c #ff4a3b30",
"44	c #ff4e3c2f",
"45	c #ff553a2e",
"46	c #ff4f4835",
"47	c #ff574333",
"48	c #ff494132",
"49	c #ff544530",
"4a	c #ff5d4f43",
"4b	c #ff5c5343",
"4c	c #ff757469",
"4d	c #ff080706",
"4e	c #ff040302",
"4f	c #ff19150c",
"4g	c #ff718178",
"4h	c #ff919a92",
"4i	c #ff8f978e",
"4j	c #ff999e99",
"4k	c #ff99a09c",
"4l	c #ff9da39e",
"4m	c #ff9ea49e",
"4n	c #ffa0a59e",
"4o	c #ffa2a9a2",
"4p	c #ff9ba3a0",
"4q	c #ff9ca29b",
"4r	c #ff878f85",
"4s	c #ff5a594e",
"4t	c #ff777469",
"4u	c #ff373630",
"4v	c #ff181911",
"4w	c #ff6e7b71",
"4x	c #ff898e82",
"4y	c #ff8a8c85",
"4z	c #ff909087",
"50	c #ff969791",
"51	c #ff999b96",
"52	c #ff9fa099",
"53	c #ff9ba09b",
"54	c #ff9c9890",
"55	c #ff93938c",
"56	c #ff7d8477",
"57	c #ff5a594f",
"58	c #ff4e4d44",
"59	c #ff18160f",
"5a	c #ff60655e",
"5b	c #ff838980",
"5c	c #ff858c7f",
"5d	c #ff8d8c83",
"5e	c #ff93938a",
"5f	c #ff949791",
"5g	c #ff9c9992",
"5h	c #ff9a9d97",
"5i	c #ff95988f",
"5j	c #ff8d958e",
"5k	c #ff8b9187",
"5l	c #ff7c847b",
"5m	c #ff5a5a4f",
"5n	c #ff79776b",
"5o	c #ff030302",
"5p	c #ff393730",
"5q	c #ff181710",
"5r	c #ff2b201a",
"5s	c #ff869086",
"5t	c #ff858a81",
"5u	c #ff94928b",
"5v	c #ff92948e",
"5w	c #ff969790",
"5x	c #ff9b9d95",
"5y	c #ff999c95",
"5z	c #ff94978d",
"60	c #ff8d9289",
"61	c #ff7d8980",
"62	c #ff5b5a4f",
"63	c #ff3a3831",
"64	c #ff191911",
"65	c #ff170502",
"66	c #ff93928c",
"67	c #ff8d9187",
"68	c #ff96958d",
"69	c #ff939991",
"6a	c #ff979d95",
"6b	c #ff999992",
"6c	c #ff99a098",
"6d	c #ff9b9d97",
"6e	c #ff9b9b93",
"6f	c #ff949891",
"6g	c #ff82887f",
"6h	c #ff7c7b6f",
"6i	c #ff0b0a08",
"6j	c #ff504f46",
"6k	c #ff3a3832",
"6l	c #ff191b10",
"6m	c #ff140702",
"6n	c #ff919890",
"6o	c #ff90948a",
"6p	c #ff979690",
"6q	c #ff989893",
"6r	c #ff959c97",
"6s	c #ff9d9a92",
"6t	c #ffa1a095",
"6u	c #ff9d9f98",
"6v	c #ff9d9c96",
"6w	c #ff9d9f96",
"6x	c #ff999d96",
"6y	c #ff868e85",
"6z	c #fe080806",
"70	c #ff515047",
"71	c #ff3a3a32",
"72	c #ff1e1a14",
"73	c #ff120502",
"74	c #ff929b94",
"75	c #ff939791",
"76	c #ff979994",
"77	c #ff9a9891",
"78	c #ff999f97",
"79	c #ff9f9f98",
"7a	c #ff9d9f9a",
"7b	c #ff9fa19a",
"7c	c #ff9ea196",
"7d	c #ff8a928d",
"7e	c #ff7c7a6e",
"7f	c #fe040402",
"7g	c #ff525147",
"7h	c #ff1c1811",
"7i	c #ff170603",
"7j	c #ff999d97",
"7k	c #ff969a95",
"7l	c #ff999b94",
"7m	c #ff999b93",
"7n	c #ff9a9e98",
"7o	c #ff9c9d97",
"7p	c #ffa3a49e",
"7q	c #ff9ea29a",
"7r	c #ff9da29d",
"7s	c #ff8f948d",
"7t	c #ff5e5d52",
"7u	c #ff040402",
"7v	c #ff535248",
"7w	c #ff181812",
"7x	c #ff1d0903",
"7y	c #ff989c95",
"7z	c #ff9b9c94",
"80	c #ff9b9d94",
"81	c #ff9b9d98",
"82	c #ffa09e96",
"83	c #ffa3a199",
"84	c #ffa6a39a",
"85	c #ffa2a49f",
"86	c #ff949a91",
"87	c #ff5d5d52",
"88	c #ff393932",
"89	c #ff545349",
"8a	c #ff191912",
"8b	c #ff150502",
"8c	c #ff9da49e",
"8d	c #ff9b9e96",
"8e	c #ff9a9b95",
"8f	c #ff9b9d96",
"8g	c #ff9e9d96",
"8h	c #ffa0a098",
"8i	c #ff9ea099",
"8j	c #ffa0a29a",
"8k	c #ffa5a69f",
"8l	c #ff999c96",
"8m	c #ff7e7d72",
"8n	c #ff0a0906",
"8o	c #ff656359",
"8p	c #ff3c3b34",
"8q	c #ff1a1911",
"8r	c #ff5a645c",
"8s	c #ff9da5a0",
"8t	c #ff989d96",
"8u	c #ff9b9d99",
"8v	c #ff9da09a",
"8w	c #ffa0a19c",
"8x	c #ffa3a29c",
"8y	c #ffa1a5a0",
"8z	c #ffa6a6a0",
"90	c #ff949e97",
"91	c #ff5c5c51",
"92	c #ff070706",
"93	c #ff77756a",
"94	c #ff656459",
"95	c #ff56554b",
"96	c #ff191812",
"97	c #ff63796f",
"98	c #ff98a09b",
"99	c #ff989a94",
"9a	c #ff999892",
"9b	c #ff9c9e96",
"9c	c #ff9fa09a",
"9d	c #ffa0a39f",
"9e	c #ffa1a59e",
"9f	c #ffa4a5a0",
"9g	c #ff959a94",
"9h	c #ff5f5e53",
"9i	c #ff67655a",
"9j	c #ff57554b",
"9k	c #ff181811",
"9l	c #ff70867d",
"9m	c #ff919993",
"9n	c #ff888b82",
"9o	c #ff878a82",
"9p	c #ff888c82",
"9q	c #ff848b85",
"9r	c #ff878e83",
"9s	c #ff88928a",
"9t	c #ff8e948c",
"9u	c #ff91978f",
"9v	c #ff9a9c95",
"9w	c #ff9ba29b",
"9x	c #ff838f85",
"9y	c #fe050503",
"9z	c #ff78766b",
"a0	c #ff12110a",
"a1	c #ff50534b",
"a2	c #ff647265",
"a3	c #ff646554",
"a4	c #ff626757",
"a5	c #ff666c5d",
"a6	c #ff6b6a5d",
"a7	c #ff666f61",
"a8	c #ff6d7262",
"a9	c #ff717264",
"aa	c #ff757163",
"ab	c #ff727769",
"ac	c #ff676d5e",
"ad	c #ff5e5e53",
"ae	c #ff383831",
"af	c #ff0f0e0b",
"ag	c #ff79776c",
"ah	c #ff6a695d",
"ai	c #ff58574d",
"aj	c #ff514f46",
"ak	c #ff47463e",
"al	c #ff504e43",
"am	c #ff757468",
"an	c #ff6c6a5f",
"ao	c #ff727065",
"ap	c #ff7c7a6f",
"aq	c #ff828174",
"ar	c #ff817f73",
"as	c #ff828175",
"at	c #ff838176",
"au	c #ff848277",
"av	c #ff838276",
"aw	c #ff828075",
"ax	c #ff383731",
"ay	c #ff7b7a6e",
"az	c #ff88877c",
"b0	c #ff8b8a7f",
"b1	c #ff8d8b80",
"b2	c #ff8c8a7f",
"b3	c #0333322c",
"b4	c #ff88867a",
"b5	c #ff88877b",
"b6	c #ff89887c",
"b7	c #ff8a897e",
"b8	c #ff838175",
"b9	c #ff0d0d0a",
"ba	c #ff0c0c09",
"bb	c #ff20201a",
"bc	c #ff1e1d18",
"bd	c #ff1e1d17",
"be	c #ff1c1b16",
"bf	c #ff1c1c16",
"bg	c #ff1d1c17",
"bh	c #ff181712",
"bi	c #ff161510",
"bj	c #ff11100c",
"bk	c #ff14140f",
"bl	c #ff0d0c08",
"bm	c #ff0e0d09",
"bn	c #ff0c0c08",
"bo	c #ff0f0e0a",
"bp	c #ff151510",
"bq	c #ff181814",
"br	c #ff0f0f0b",
"bs	c #ff1a1a15",
"bt	c #ff171713",
"bu	c #ff0e0d0a",
"XXXX3a3h3n1313131v28282c1p2c17171793249zag2aayb3        XX  XX  XXXX    ",
"  //3b0z1l3x1y0m0z0m0n0808080o0o8o949i2oahan2l2t  XX  XX    XXXXXX    XX",
"300l1k3i0p1h1z0p581z116j707g7v891o959j1xaiao0i0ibbXX  XX      XX  XX    ",
"310d1l3j3o12124u155p636k710g2h2h8p1a1a1aaj2g2t0ibc2z  XXXXXX            ",
"////0m3k3p3y4f4v595q646l727h7w8a8q969ka0akap0i0cbd2y  XXXX    XX  XX    ",
"1g0w0z0x3q3z4g4w5a5r656m737i7x8b8r979la11i160ib4bebkXX    XXXX    XX    ",
"0s0w1m103r404h4x5b5s666n747j2i8c8s989ma20t160c0cbfbl  XX                ",
"0k1h0m101r414i4y5c5t676o757k2j8d8t999na31g180c0cbg2pXX          XX    XX",
"0d0t1m0d1r42204z5d5u686p762f7y8e2j209oa40d1b0c0h0vbm                    ",
"//0w0n0p1s434j505e5v696q297l7z23229a9p2o0l2razb52ubn      XX          XX",
"0k0x0o0p1s444k515f5w6a6r777m808f8u2f9qa510aq0j0h2u1fXX  XXXX      XXXXXX",
"//0x0n0q1t454l225g266b6s787n818g2i2b9ra60lar0h0h1e2mXX    XXXXXX  XX    ",
"0t073c111t464m525h5x6c6t797o828h8v9b9sa70las1cb6bhboXXXX    XXXX      XX",
"0s070n0q3s474n53265y6d6u2e2e838i8w9c9ta80kat0j1c2vbp      XX  XXXXXX  XX",
"0d0708113t484o235i292b6v7a7p848j8x9d9ua92qau1d0j2w2wXX      XX  XX    XX",
"3207083l3u494p545j5z6e6w7b7q858k8y9e9vaaalav1d0j2v2z  XXXXXX        XXXX",
"0s1i3d0q3v4a4q555k606f6x7c7r2k2k8z9f9wab2q2sb0b7bi1fXXXX    XXXX    XX  ",
"//07080q124b4r565l616g6y7d7s868l909g9xac0k2sb10j1e1jXX  XX  XX  XXXXXXXX",
"07360o1o1u1x4s575m621u2d2d7t871k919h1yadam0hb21c1ebq        XXXXXXXXXXXX",
"//0u3e1p1v4c4t245n2a6h167e2g188m2l181b1b2raw1db82xbr  XX          XX    ",
"0u373f3m0f0f21210g0f0f0f0g0g88190g1919ae15ax15092y0v                XX  ",
"0u38091q||0e||||||0b..........||0b..++0b..0b||..1fbs        XX  XX      ",
"331j0e||0b4d++0a....++..++++..++92..++0a25..++27bjbt        XXXXXXXX  XX",
"340y0e0a++..++++09..++1q0e0606++0a0a0606..||09b9142xXX    XX  XXXX      ",
"0v0y1n0b3w++09142714091n||06068n2m2n062p++++0yba++buXXXX      XX  XX    ",
"35393g++1w4e..255o0e6i6z7f7u0r0r1w0r9yaf||0a++2n0r  XXXX      XXXX      "};