/* XPM */
static char* picture[] = {
"11 50 47 2",
"  	c #ff000000",
"XX	c #ffacaba1",
"++	c #ff010101",
"..	c #ffacaaa1",
"||	c #ffadaba2",
"//	c #ffadaca2",
"06	c #ffabaaa0",
"07	c #ffaaa99f",
"08	c #ffaba9a0",
"09	c #ffabaaa1",
"0a	c #ffacaba2",
"0b	c #ff5ebb3b",
"0c	c #ffa9a89e",
"0d	c #ffaaa89f",
"0e	c #ff5ebb3c",
"0f	c #ffa9a79e",
"0g	c #00000000",
"0h	c #ff5dbb3b",
"0i	c #ff0c0b08",
"0j	c #ffa8a79d",
"0k	c #ffa9a89f",
"0l	c #00010101",
"0m	c #ffa8a69c",
"0n	c #ffa7a59b",
"0o	c #fda8a69c",
"0p	c #ffa9a79d",
"0q	c #fdacaaa1",
"0r	c #ff2f2e25",
"0s	c #ffa7a69c",
"0t	c #ffa8a69d",
"0u	c #ffaaa9a0",
"0v	c #ffaeada3",
"0w	c #fc292821",
"0x	c #ffaeaca3",
"0y	c #ff0b0a08",
"0z	c #ff050503",
"10	c #ff0b0a07",
"11	c #ff080805",
"12	c #ff5dba3b",
"13	c #ff0a0a07",
"14	c #ff090906",
"15	c #ff0c0c08",
"16	c #ff0b0b07",
"17	c #ff5fbc3c",
"18	c #ff0b0b08",
"19	c #ff161612",
"1a	c #ff15140f",
"0l0s0f0c0d0807....XX0g",
"0m0t0d0d07080608XXXXXX",
"0n0j0c0711141606XX..||",
"0o0c0c0z++    1906XXXX",
"0j0d0c++++  ++++XXXX..",
"0f0f0d++++++  ++07||||",
"0p070d        ++..06//",
"0c070d++++      XX||0a",
"070c07    ++    ....||",
"0c0707  ++    ++09..XX",
"0k0u07++++++    XXXXXX",
"080708++    ++  XXXX09",
"070807  ++      XX//..",
"0808..  ++  ++  XX||||",
"..0608  ++++++++....||",
"0k....      ++  XX||..",
"..XX0a    ++  ++06XX..",
"XXXXXX++    ++  //||||",
"..XX09++++      XX//XX",
"XX..XX++  ++  ++XXXXXX",
"..XX//    ++  ++XX..XX",
"0q..XX  ++      ..XX06",
"//XXXX          ||||||",
"XXXX..++++  ++++||||XX",
"//||||      ++++XXXX0a",
"||XXXX          //XXXX",
"XX||//    ++    XXXX//",
"//////++++++  ++||XX//",
"//||0x          ..||XX",
"XX0v||++++++    ||||..",
"XX//||    ++++  XXXXXX",
"||..0a++++      //||..",
"||XXXX++    ++  XX||||",
"||//XX  ++  ++  ..0a..",
"||||..  ++  ++  ||XX0a",
"XX||||    ++    06..//",
"||XXXX++++++  ++||....",
"....XX  ++++++  //09..",
"..XXXX          0aXX0a",
"XX0a//++  ++    ||XX||",
"09XX||      ++++XX06..",
"XX..XX++  ++  ++XXXX..",
"06..06  ++++    ......",
"||XX||0b0b0b0e0hXX0909",
"09..060b120e0b0h06XX06",
"09XX||0b0b0h0b0e||XX06",
"||..XXXX0b0e170609..08",
"..0a......||06..XX..06",
"0rXXXX..XX//06XX06..1a",
"0g0w0y101315180i0i0i0g"};