/* XPM */
static char* picture[] = {
"11 50 139 2",
"  	c #ffadaca2",
"XX	c #ffadaba2",
"++	c #ffacaba1",
"..	c #ff5ebb3b",
"||	c #ffaeaca3",
"//	c #ffaeada3",
"06	c #ffacaaa1",
"07	c #ff5ebb3c",
"08	c #ffadaca3",
"09	c #ffabaaa0",
"0a	c #ffacaba2",
"0b	c #ffaba9a0",
"0c	c #ffaaa99f",
"0d	c #ffa9a79e",
"0e	c #ff5dbb3b",
"0f	c #ffaaa89f",
"0g	c #ff010101",
"0h	c #ff5dba3b",
"0i	c #ff5ebc3c",
"0j	c #ffafada4",
"0k	c #ffa8a79d",
"0l	c #ffd3964a",
"0m	c #ffd09848",
"0n	c #ffa2b03b",
"0o	c #ff75b83b",
"0p	c #ff68ba3b",
"0q	c #ffdb8f4e",
"0r	c #ffabaaa1",
"0s	c #ffaeaca2",
"0t	c #ffa7a69c",
"0u	c #ffa7a59b",
"0v	c #ffa6a49a",
"0w	c #00000000",
"0x	c #ffa9a89e",
"0y	c #ffa6a59b",
"0z	c #ff0a0a07",
"10	c #ffe88155",
"11	c #ffe68454",
"12	c #ffdd8c4f",
"13	c #ffd6934b",
"14	c #ffcd9b47",
"15	c #ffc2a143",
"16	c #ffbea442",
"17	c #ff92b33b",
"18	c #ffd8914c",
"19	c #ff7fb63a",
"1a	c #ff000000",
"1b	c #ffdf8a50",
"1c	c #ff89b53b",
"1d	c #ff0c0b08",
"1e	c #ffa5a49a",
"1f	c #ffa8a69d",
"1g	c #ffee7c59",
"1h	c #ffec7d57",
"1i	c #ffea8056",
"1j	c #ffe48753",
"1k	c #ffe28952",
"1l	c #ffe08b50",
"1m	c #ffc99d45",
"1n	c #ffb9a740",
"1o	c #ffb5a93e",
"1p	c #ffa9ae3d",
"1q	c #ff9bb23b",
"1r	c #ffec7e57",
"1s	c #ffe28951",
"1t	c #ffcc9a46",
"1u	c #ffafab3c",
"1v	c #ffea7f56",
"1w	c #ffe88255",
"1x	c #ffa9ae3c",
"1y	c #ff5fbc3c",
"1z	c #ffe48652",
"20	c #ffc69f44",
"21	c #ffc2a243",
"22	c #ffbaa740",
"23	c #ffb4a93d",
"24	c #ff9ab13a",
"25	c #00010101",
"26	c #fcaeaca3",
"27	c #ffafada3",
"28	c #fdacaba2",
"29	c #fea9a89e",
"2a	c #ff23221b",
"2b	c #fd22211b",
"2c	c #ffacaaa0",
"2d	c #ffa9a79d",
"2e	c #ff291103",
"2f	c #ffdb8e4e",
"2g	c #ffd8914d",
"2h	c #ffc59e44",
"2i	c #ffafac3d",
"2j	c #ff8ab53b",
"2k	c #ff80b73c",
"2l	c #ff0b0b08",
"2m	c #ff3a1502",
"2n	c #ffe78454",
"2o	c #ffe58753",
"2p	c #ffde8d4f",
"2q	c #ffd5934a",
"2r	c #ffd39549",
"2s	c #ffd09849",
"2t	c #ffc99c45",
"2u	c #ffc6a045",
"2v	c #ffb9a73f",
"2w	c #ffb4a93e",
"2x	c #ff9bb23c",
"2y	c #ff92b33a",
"2z	c #ff8ab63b",
"30	c #ff75b93b",
"31	c #ff3e1602",
"32	c #ffee7b58",
"33	c #ffe68353",
"34	c #ffe18851",
"35	c #ffd6944c",
"36	c #ffc99d46",
"37	c #ffc59f44",
"38	c #ffbea441",
"39	c #ffb0ac3d",
"3a	c #ff93b43b",
"3b	c #ff0b0a08",
"3c	c #ff411903",
"3d	c #ffed7b58",
"3e	c #ffeb7d57",
"3f	c #ffde8d50",
"3g	c #ffd9924d",
"3h	c #ffa8ad3c",
"3i	c #ffa1af3b",
"3j	c #ff80b73b",
"3k	c #ff68ba3c",
"3l	c #ff1c1914",
"3m	c #ffee7c58",
"3n	c #ffe97f55",
"3o	c #ffca9d46",
"3p	c #ffbea542",
"3q	c #ffafac3c",
"3r	c #ffaeada4",
"3s	c #ffaaa9a0",
"3t	c #ffadaba1",
"3u	c #ff151510",
"25||||      08  08080w",
"||  ////||||//0s||  XX",
"||//////2m313c  //    ",
"26||  2e0g1a1a3l  ||  ",
"||0j  0g0g1a0g0g||||||",
"0j////1g1g323d3m++  0j",
"27////1h1r1h3e1r  XX//",
"||0j0s1i1i1v1v3n||3r08",
"//XX//10101w1w10XX  //",
"||  XX112n331111      ",
"  ||  1j2o1j1z1z||||  ",
"  //XX1k1s341k1s    ++",
"XX08XX1l1l1b1b1b  //++",
"//08  122p123f120808  ",
"//XX  2f0q0q0q0q0aXX  ",
"++  //2g18183g180a  ++",
"||08  132q35131306XXXX",
"||  //0l2r0l0l0l//    ",
"    XX0m2s0m0m0m//08  ",
"0sXX  141t141t14XX0a++",
"XX  ||1m2t361m3o++++3t",
"28++  2h2u372020++XX0r",
"  XXXX1515152121++  XX",
"XX++++161638163p++  XX",
"      1n2v1n2222++XXXX",
"  XX++1o2w1o2323||++++",
"  XX  2i1u391u3q++++  ",
"0a    1p1p1x3h1xXX++  ",
"  XX||0n0n0n3i0n06XX++",
"++//XX1q2x1q2424XXXX06",
"++  XX172y3a1717++++++",
"XX06++2j2z1c1c1c  XX06",
"0a++++2k19193j19++XXXX",
"XX  ++0o300o0o0o060a06",
"XX  ++0p0p0p3k0pXX++0a",
"++++XX....1y0h..0606  ",
"++++0a070707..07XX060r",
"0c090b..0i....0hXX0r06",
"0b090b0h........XX++0a",
"0f0b2c07..0i0h..XX++++",
"290x0b..0e..070i060906",
"0k0d0f070e07..07++++06",
"0t0k0d..0i0i0e..090606",
"0u0k0d......070e0b090r",
"0v1f0d..0h07..0e090609",
"1e0u2d....0e..0709090b",
"0v0y0t0k..071y0c0c0b0c",
"1e0u0y1f0d0x0f0c0b3s0c",
"2a0v0y0t0d0f0x0c0f093u",
"0w2b0z2l0z3b0z1d1d1d0w"};