/* XPM */
static char* picture[] = {
"11 50 46 2",
"  	c #00000000",
"XX	c #00acaba1",
"++	c #00010101",
"..	c #00acaaa1",
"||	c #00abaaa0",
"//	c #00adaba2",
"06	c #00adaca2",
"07	c #005ebb3b",
"08	c #00abaaa1",
"09	c #00a8a79d",
"0a	c #00aaa99f",
"0b	c #00a9a89e",
"0c	c #00aba9a0",
"0d	c #005ebb3c",
"0e	c #00aaa89f",
"0f	c #00acaba2",
"0g	c #005dbb3b",
"0h	c #00a9a79e",
"0i	c #00a8a69d",
"0j	c #00a7a69c",
"0k	c #ff000000",
"0l	c #00aaa9a0",
"0m	c #005ebc3c",
"0n	c #000c0b08",
"0o	c #ff010101",
"0p	c #00a6a59b",
"0q	c #02a7a69c",
"0r	c #00a8a69c",
"0s	c #00a9a89f",
"0t	c #01abaaa0",
"0u	c #002f2e25",
"0v	c #03292821",
"0w	c #00a9a79d",
"0x	c #000b0a08",
"0y	c #00060503",
"0z	c #000b0a07",
"10	c #00080905",
"11	c #005dba3b",
"12	c #000a0a07",
"13	c #00080806",
"14	c #000c0c08",
"15	c #000b0b07",
"16	c #005fbc3c",
"17	c #000b0b08",
"18	c #00181814",
"19	c #0015140f",
"0o0j0h0b0a0l0c||XXXX0k",
"0j0j0b0b0a0c..XX||..XX",
"0p09090a101315||....//",
"0q0i090y++    18||XXXX",
"0r090w++++  ++++....XX",
"0h0i0b++++++  ++0aXX//",
"0i0e0h        ++....//",
"090e09++++      XX//..",
"0h090b    ++    0808XX",
"0i0b0b  ++    ++||XXXX",
"090e0b++++++    ..XXXX",
"0s0a0e++    ++  ....0c",
"090e0b  ++      ||06||",
"0a0e0l  ++  ++  XXXX..",
"||0a0e  ++++++++XX||XX",
"0a0a0l      ++  ||XXXX",
"0c||..    ++  ++||XX..",
"||0c||++    ++  //XXXX",
"||||0c++++      XX06XX",
"..||||++  ++  ++..XXXX",
"||08XX    ++  ++||....",
"0t||..  ++      08XX0c",
"XX||..          XX//XX",
"..||||++++  ++++XXXXXX",
"XXXXXX      ++++XXXX0f",
"XXXX..          06..XX",
"XXXX//    ++    XXXX06",
"XX////++++++  ++XXXX06",
"//XX06          ..XX..",
"..06//++++++    ////XX",
"XX0606    ++++  XXXXXX",
"//....++++      06//..",
"//..XX++    ++  XX////",
"//06XX  ++  ++  ..0f..",
"////..  ++  ++  //XX0f",
"XX////    ++    ||..06",
"//XXXX++++++  ++//..08",
"XX..XX  ++++++  //....",
"..XXXX          0fXX0f",
"XX0f06++  ++    //XX//",
"08XX//070g070d0mXX||..",
"XX..XX0d0g0d070dXXXX..",
"||..||070m0m0g07......",
"//XX//0707070d0gXX0808",
"08..||07110d070g||XX||",
"08XX//07070g070d//XX||",
"//..XXXX070d16||||..0c",
"..0f......XX||..XX..||",
"0uXXXX..XX06||XX||XX19",
"0k0v0x0z1214170n0n0n0k"};