/* XPM */
static char* picture[] = {
"11 50 98 2",
"  	c #ff000000",
"XX	c #ffaaa99f",
"++	c #ff010101",
"..	c #ffadaca2",
"||	c #ff5ebb3b",
"//	c #ffaeaca3",
"06	c #ffaba9a0",
"07	c #ffabaaa0",
"08	c #ffadaba2",
"09	c #ffaeada3",
"0a	c #ffa7a69c",
"0b	c #ffacaba1",
"0c	c #ffacaaa1",
"0d	c #ff5ebb3c",
"0e	c #ffa9a89e",
"0f	c #ffa9a79e",
"0g	c #ffaaa89f",
"0h	c #ffa8a79d",
"0i	c #ffaaa9a0",
"0j	c #ffa6a59b",
"0k	c #ff5dbb3b",
"0l	c #ffadaca3",
"0m	c #ffa7a59b",
"0n	c #ffa8a69c",
"0o	c #ff5dba3b",
"0p	c #ff5ebc3c",
"0q	c #ffafada4",
"0r	c #ffa2b03b",
"0s	c #ff75b83b",
"0t	c #ff68ba3b",
"0u	c #ffa8a69d",
"0v	c #ffa5a49a",
"0w	c #ffa6a49a",
"0x	c #00000000",
"0y	c #ffa9a89f",
"0z	c #ffc2a143",
"10	c #ffbea442",
"11	c #ff92b33b",
"12	c #ff7fb63a",
"13	c #ff89b53b",
"14	c #ff0c0b08",
"15	c #fea7a69c",
"16	c #ffa7a59c",
"17	c #ffb9a740",
"18	c #ffb5a93e",
"19	c #ffa9ae3d",
"1a	c #ff9bb23b",
"1b	c #ffafab3c",
"1c	c #ffa9ae3c",
"1d	c #ff5fbc3c",
"1e	c #ffc69f44",
"1f	c #ffc2a243",
"1g	c #ffbaa740",
"1h	c #ffb4a93d",
"1i	c #ff9ab13a",
"1j	c #00010101",
"1k	c #fcaeaca3",
"1l	c #fea8a79d",
"1m	c #fea7a59b",
"1n	c #ffa5a399",
"1o	c #ffa5a499",
"1p	c #ffa8a79e",
"1q	c #ff2e2d25",
"1r	c #fc282721",
"1s	c #ff0b0a08",
"1t	c #ffafaea4",
"1u	c #ff0b0b04",
"1v	c #ffc59e44",
"1w	c #ffafac3d",
"1x	c #ff8ab53b",
"1y	c #ff80b73c",
"1z	c #ff0b0a07",
"20	c #ff0a0c04",
"21	c #ffc6a045",
"22	c #ffb9a73f",
"23	c #ffb4a93e",
"24	c #ff9bb23c",
"25	c #ff92b33a",
"26	c #ff8ab63b",
"27	c #ff75b93b",
"28	c #ff0a0a07",
"29	c #ff0b0e06",
"2a	c #ffc59f44",
"2b	c #ffbea441",
"2c	c #ffb0ac3d",
"2d	c #ff93b43b",
"2e	c #ff0c0c08",
"2f	c #ff0e1006",
"2g	c #ffa8ad3c",
"2h	c #ffa1af3b",
"2i	c #ff80b73b",
"2j	c #ff68ba3c",
"2k	c #ff0b0b08",
"2l	c #ff191914",
"2m	c #ffbea542",
"2n	c #ffafac3c",
"2o	c #ffacaba2",
"2p	c #ff14140f",
"1j////......0l..0l0l0x",
"//..091t09//09....//08",
"//09090920292f////..//",
"1k//..1u++    2l......",
"//0q..++++  ++++08//0l",
"0q0909++++++  ++0b////",
"0909//        ++..0809",
"//0q..++++      //0q//",
"09..09    ++    08..09",
"//..08  ++    ++......",
"..//08++++++    ////..",
"08//08++    ++  08..0b",
"0b080c  ++      ..090b",
"080b0b  ++  ++  0l....",
"080b0c  ++++++++2o0808",
"0g070b      ++  0b080b",
"06070b    ++  ++0c0808",
"XX060c++    ++  0l08..",
"0e0e0g++++      //0808",
"1l0f0e++  ++  ++0c0c0c",
"0u0h0g    ++  ++0c070c",
"1m0a0f1v212a1e1e0c0c07",
"0m0a0h0z0z0z1f1f070c0b",
"0j0j0n10102b102m0c070c",
"0j0a0n1722171g1g06XX0b",
"1n0m161823181h1h07XX07",
"1o0v0f1w1b2c1b2nXXXX07",
"0v160a19191c2g1c060606",
"0j0j0n0r0r0r2h0r0e07XX",
"0v0a0a1a241a1i1i0g060g",
"0w0a0h11252d1111XXXX06",
"0a0j0m1x26131313XX06XX",
"0w0w0a1y12122i12XX0i07",
"0m0a0a0s270s0s0s0e06XX",
"0m0u0a0t0t0t2j0t06XX07",
"0a0n0u||||1d0o||0gXX07",
"0a0a0f0d0d0d||0d06XX0e",
"150h0f||0p||||0oXXXXXX",
"0n0h0e0o||||||||XXXX07",
"0h0h0e0d||0p0o||060i06",
"150f0y||0k||0d0pXX0g0i",
"0h0h0y0d0k0d||0d06XX06",
"1p0f0f||0p0p0k||XX0607",
"0e0g06||||||0d0kXX0iXX",
"0e0e0y||0o0d||0kXX07XX",
"0f0e07||||0k||0d070706",
"XXXXXX0g||0d1dXX0i06XX",
"0f0iXX0iXX07XX0606070i",
"1qXXXXXX060bXX0706072p",
"0x1r1s1z282e2k1414140x"};