/* XPM */
static char* picture[] = {
"11 50 77 2",
"  	c #ff000000",
"XX	c #ffabaaa0",
"++	c #ff010101",
"..	c #ffacaaa1",
"||	c #ff5ebb3b",
"//	c #ffaaa99f",
"06	c #ffacaba1",
"07	c #ffaba9a0",
"08	c #ffadaca2",
"09	c #ffa7a69c",
"0a	c #ffaeaca3",
"0b	c #ff5ebb3c",
"0c	c #ffa8a79d",
"0d	c #ffaaa89f",
"0e	c #ffa9a89e",
"0f	c #ffabaaa1",
"0g	c #ffa9a79e",
"0h	c #ffaeada3",
"0i	c #ffadaba2",
"0j	c #ff5dbb3b",
"0k	c #ffaaa9a0",
"0l	c #ffa7a59b",
"0m	c #ff5dba3b",
"0n	c #ff5ebc3c",
"0o	c #ffa6a59b",
"0p	c #ffa7a59c",
"0q	c #ffa2b03b",
"0r	c #ff75b83b",
"0s	c #ff68ba3b",
"0t	c #00000000",
"0u	c #ffadaca3",
"0v	c #ff92b33b",
"0w	c #ff7fb63a",
"0x	c #ff89b53b",
"0y	c #ff0c0b08",
"0z	c #ffa9a89f",
"10	c #ffa9a79d",
"11	c #ff9bb23b",
"12	c #ffaeaca2",
"13	c #ff5fbc3c",
"14	c #ff9ab13a",
"15	c #00010101",
"16	c #fdadaba2",
"17	c #ffa5a49a",
"18	c #fea6a59b",
"19	c #fea5a49a",
"1a	c #fdaba9a0",
"1b	c #ff2f2e25",
"1c	c #ffa8a69c",
"1d	c #fc292821",
"1e	c #ffa8a69d",
"1f	c #ffaba99f",
"1g	c #ff0b0a08",
"1h	c #ffafaea4",
"1i	c #ff080805",
"1j	c #ff020101",
"1k	c #ff8ab53b",
"1l	c #ff80b73c",
"1m	c #ff0b0a07",
"1n	c #ff060903",
"1o	c #ff9bb23c",
"1p	c #ff92b33a",
"1q	c #ff8ab63b",
"1r	c #ff75b93b",
"1s	c #ff0a0a07",
"1t	c #ff0a0e06",
"1u	c #ff93b43b",
"1v	c #ff0c0c08",
"1w	c #ff0d0e06",
"1x	c #ffa1af3b",
"1y	c #ff80b73b",
"1z	c #ff68ba3c",
"20	c #ff0b0b08",
"21	c #ff181814",
"22	c #ffaeada4",
"23	c #ffafada4",
"24	c #ff15140f",
"150a0a0a12080a0a0u0a0t",
"0a080h1h0h0a0h080a120i",
"080a0h0u1n1t1w080h0808",
"1608081i++    21080a08",
"0i0h06++++  ++++0a0a0a",
"0i0608++++++  ++060823",
"..0606        ++080i0h",
"//..XX++++      08220u",
"////XX    ++    06080h",
"0z0d//  ++    ++060i08",
"0c0d0e++++++    08080i",
"0c0e0d++    ++  0606XX",
"0l0g0c  ++      ..0aXX",
"091c0g  ++  ++  ..0606",
"0l0909  ++++++++//XX..",
"170p0c      ++  XX....",
"0o090c    ++  ++07XX..",
"0l090g++    ++  060706",
"0p0909++++      XXXX..",
"180o091j  ++  ++//0k07",
"0o0p0c    ++  ++070k0k",
"190l09  ++      XX07//",
"090909          0z07XX",
"0p0l1e++++  ++++//0kXX",
"0o0c0g      ++++//0kXX",
"09090c          XX07//",
"09100g    ++    //0d06",
"090c0e++++++  ++07//06",
"100g0d0q0q0q1x0q//0k07",
"0c0e0e111o11141407XX//",
"0c0e0d0v1p1u0v0vXX07XX",
"0c0g0e1k1q0x0x0x07XX//",
"0g0g0e1l0w0w1y0w070f0f",
"0e0e0e0r1r0r0r0r//XXXX",
"0d////0s0s0s1z0sXXXXXX",
"0d////||||130m||0dXX06",
"//0d070b0b0b||0bXXXX07",
"0d0d//||0n||||0m..0707",
"//XX//0m||||||||XX0f..",
"XXXX..0b||0n0m||06....",
"1aXXXX||0j||0b0n0fXXXX",
"07//0f0b0j0b||0b06..XX",
"//XX1f||0n0n0j||07XXXX",
"XX0f06||||||0b0j..XXXX",
"XX0fXX||0m0b||0jXX06XX",
"....06||||0j||0b06..XX",
"06......||0b130fXX0f07",
"0f06..0fXX06XXXX..XX07",
"1b....XX..080706XX..24",
"0t1d1g1m1s1v200y0y0y0t"};