/* XPM */
static char* picture[] = {
"11 50 137 2",
"  	c #00adaca2",
"XX	c #00acaba1",
"++	c #00adaba2",
"..	c #00aeaca3",
"||	c #005ebb3b",
"//	c #00aeada3",
"06	c #00acaaa1",
"07	c #00abaaa0",
"08	c #005ebb3c",
"09	c #00adaca3",
"0a	c #00acaba2",
"0b	c #00aba9a0",
"0c	c #005dbb3b",
"0d	c #00abaaa1",
"0e	c #00aaa89f",
"0f	c #00a8a79d",
"0g	c #005dba3b",
"0h	c #005ebc3c",
"0i	c #00afada4",
"0j	c #00a9a89e",
"0k	c #00aaa99f",
"0l	c #00d3964a",
"0m	c #00d09848",
"0n	c #00a2b03b",
"0o	c #0075b83b",
"0p	c #0068ba3b",
"0q	c #00db8f4e",
"0r	c #00a7a69c",
"0s	c #ff000000",
"0t	c #00e88155",
"0u	c #00e68454",
"0v	c #00dd8c4f",
"0w	c #00d6934b",
"0x	c #00cd9b47",
"0y	c #00c2a143",
"0z	c #00bea442",
"10	c #0092b33b",
"11	c #00ef7a59",
"12	c #00d8914c",
"13	c #007fb63a",
"14	c #00df8a50",
"15	c #0089b53b",
"16	c #000c0b08",
"17	c #00adaba1",
"18	c #00aeaca2",
"19	c #00a8a69d",
"1a	c #00a9a79e",
"1b	c #00ee7c59",
"1c	c #00ec7d57",
"1d	c #00ea8056",
"1e	c #00e48753",
"1f	c #00e28952",
"1g	c #00e08b50",
"1h	c #00c99d45",
"1i	c #00b9a740",
"1j	c #00b5a93e",
"1k	c #00a9ae3d",
"1l	c #009bb23b",
"1m	c #000b0b08",
"1n	c #00ec7e57",
"1o	c #00e28951",
"1p	c #00cc9a46",
"1q	c #00afab3c",
"1r	c #00f0775a",
"1s	c #00ea7f56",
"1t	c #00e88255",
"1u	c #00a9ae3c",
"1v	c #005fbc3c",
"1w	c #00e48652",
"1x	c #00c69f44",
"1y	c #00c2a243",
"1z	c #00baa740",
"20	c #00b4a93d",
"21	c #009ab13a",
"22	c #ff010101",
"23	c #03aeaca3",
"24	c #02acaba2",
"25	c #01aba9a0",
"26	c #00aaa9a0",
"27	c #0023221b",
"28	c #021f1e18",
"29	c #000a0907",
"2a	c #00afaea4",
"2b	c #00902600",
"2c	c #00f07a5a",
"2d	c #00db8e4e",
"2e	c #00d8914d",
"2f	c #00c59e44",
"2g	c #00afac3d",
"2h	c #008ab53b",
"2i	c #0080b73c",
"2j	c #00852501",
"2k	c #00f1785b",
"2l	c #00e78454",
"2m	c #00e58753",
"2n	c #00de8d4f",
"2o	c #00d5934a",
"2p	c #00d39549",
"2q	c #00d09849",
"2r	c #00c99c45",
"2s	c #00c6a045",
"2t	c #00b9a73f",
"2u	c #00b4a93e",
"2v	c #009bb23c",
"2w	c #0092b33a",
"2x	c #008ab63b",
"2y	c #0075b93b",
"2z	c #00a9a89f",
"30	c #000a0a07",
"31	c #00892601",
"32	c #00ee7958",
"33	c #00ee7b58",
"34	c #00e68353",
"35	c #00e18851",
"36	c #00d6944c",
"37	c #00c99d46",
"38	c #00c59f44",
"39	c #00bea441",
"3a	c #00b0ac3d",
"3b	c #0093b43b",
"3c	c #000c0c08",
"3d	c #00882701",
"3e	c #00ed7b58",
"3f	c #00eb7d57",
"3g	c #00de8d50",
"3h	c #00d9924d",
"3i	c #00a8ad3c",
"3j	c #00a1af3b",
"3k	c #0080b73b",
"3l	c #0068ba3c",
"3m	c #009e2c01",
"3n	c #00ee7c58",
"3o	c #00e97f55",
"3p	c #00ca9d46",
"3q	c #00bea542",
"3r	c #00afac3c",
"3s	c #0015140f",
"22....      09  09090s",
"..  //2a//..//18  ..++",
"..//....2j313d  //  //",
"23....2b2k1r1r3m      ",
"..0i  2c11321111++....",
"0i////1b1b333e3nXX....",
"////..1c1n1c3f1n  ++//",
"..0i..1d1d1s1s3o..0i09",
"//++//0t0t1t1t0t++  //",
"..  ++0u2l340u0u      ",
"  ..  1e2m1e1w1w....  ",
"  //++1f1o351f1o    XX",
"++09++1g1g141414  //XX",
"//09  0v2n0v3g0v..09  ",
"//++  2d0q0q0q0q0a++  ",
"17  //2e12123h120a  XX",
"..09  0w2o360w0w06++++",
"..  //0l2p0l0l0l//    ",
"    ++0m2q0m0m0m//..  ",
"  ++  0x1p0x1p0x++0aXX",
"++  ..1h2r371h3pXXXXXX",
"24XX  2f2s381x1xXX++0d",
"18++++0y0y0y1y1yXX  ++",
"  XXXX0z0z390z3qXX  ++",
"      1i2t1i1z1zXX++++",
"  ++XX1j2u1j2020..XXXX",
"  ++  2g1q3a1q3rXX17  ",
"0a    1k1k1u3i1u++XX  ",
"  ++..0n0n0n3j0n06++XX",
"XX//++1l2v1l2121++++06",
"XX  ++102w3b1010XXXXXX",
"++06XX2h2x151515  ++XX",
"++XXXX2i13133k13XX++++",
"0a  XX0o2y0o0o0o060a06",
"++++060p0p0p3l0p++XX++",
"XX++++||||1v0g||0706  ",
"++XXXX080808||08++060d",
"XX06XX||0h||||0g++0d06",
"06XXXX0g||||||||0aXXXX",
"0606  08||0h0g||++XXXX",
"2506++||0c||080h060706",
"260b07080c08||08XXXX06",
"0e0b0k||0h0h0c||060606",
"0j0e07||||||080cXX0d0d",
"0f0j0k||0g08||0c07XX07",
"0r1a0k||||0c||08XXXX07",
"190f1a0e||081v0707070b",
"0r190f0j2z070e0b070707",
"270r0f0f0j0b0e0b0k0d3s",
"0s28291m303c1m1616160s"};