/* XPM */
static char* picture[] = {
"11 50 137 2",
"  	c #00adaca2",
"XX	c #00adaba2",
"++	c #00acaba1",
"..	c #00aeaca3",
"||	c #005ebb3b",
"//	c #00aeada3",
"06	c #00acaaa1",
"07	c #00abaaa0",
"08	c #005ebb3c",
"09	c #00acaba2",
"0a	c #00adaca3",
"0b	c #00aaa99f",
"0c	c #00abaaa1",
"0d	c #005dbb3b",
"0e	c #00aba9a0",
"0f	c #00aaa89f",
"0g	c #00a8a79d",
"0h	c #005dba3b",
"0i	c #005ebc3c",
"0j	c #00afada4",
"0k	c #00d3964a",
"0l	c #00d09848",
"0m	c #00a2b03b",
"0n	c #0075b83b",
"0o	c #0068ba3b",
"0p	c #00db8f4e",
"0q	c #00a9a89e",
"0r	c #ff000000",
"0s	c #00e88155",
"0t	c #00e68454",
"0u	c #00dd8c4f",
"0v	c #00d6934b",
"0w	c #00cd9b47",
"0x	c #00c2a143",
"0y	c #00bea442",
"0z	c #0092b33b",
"10	c #00ef7a59",
"11	c #00d8914c",
"12	c #007fb63a",
"13	c #00df8a50",
"14	c #0089b53b",
"15	c #000c0b08",
"16	c #00aeaca2",
"17	c #00a9a79e",
"18	c #00ee7c59",
"19	c #00ec7d57",
"1a	c #00ea8056",
"1b	c #00e48753",
"1c	c #00e28952",
"1d	c #00e08b50",
"1e	c #00c99d45",
"1f	c #00b9a740",
"1g	c #00b5a93e",
"1h	c #00a9ae3d",
"1i	c #009bb23b",
"1j	c #00ec7e57",
"1k	c #00e28951",
"1l	c #00cc9a46",
"1m	c #00afab3c",
"1n	c #00f0775a",
"1o	c #00ea7f56",
"1p	c #00e88255",
"1q	c #00a9ae3c",
"1r	c #005fbc3c",
"1s	c #00e48652",
"1t	c #00c69f44",
"1u	c #00c2a243",
"1v	c #00baa740",
"1w	c #00b4a93d",
"1x	c #009ab13a",
"1y	c #ff010101",
"1z	c #03aeaca3",
"20	c #00adaba1",
"21	c #02adaba2",
"22	c #01aba9a0",
"23	c #00a8a69d",
"24	c #00a8a69c",
"25	c #0024221b",
"26	c #00a7a69c",
"27	c #021f1e18",
"28	c #000a0907",
"29	c #00afaea4",
"2a	c #00902600",
"2b	c #00f07a5a",
"2c	c #00db8e4e",
"2d	c #00d8914d",
"2e	c #00c59e44",
"2f	c #00afac3d",
"2g	c #008ab53b",
"2h	c #0080b73c",
"2i	c #000b0a07",
"2j	c #00852501",
"2k	c #00f1785b",
"2l	c #00e78454",
"2m	c #00e58753",
"2n	c #00de8d4f",
"2o	c #00d5934a",
"2p	c #00d39549",
"2q	c #00d09849",
"2r	c #00c99c45",
"2s	c #00c6a045",
"2t	c #00b9a73f",
"2u	c #00b4a93e",
"2v	c #009bb23c",
"2w	c #0092b33a",
"2x	c #008ab63b",
"2y	c #0075b93b",
"2z	c #000a0a07",
"30	c #00892601",
"31	c #00ee7958",
"32	c #00ee7b58",
"33	c #00e68353",
"34	c #00e18851",
"35	c #00d6944c",
"36	c #00c99d46",
"37	c #00c59f44",
"38	c #00bea441",
"39	c #00b0ac3d",
"3a	c #0093b43b",
"3b	c #000c0c08",
"3c	c #00882701",
"3d	c #00ed7b58",
"3e	c #00eb7d57",
"3f	c #00de8d50",
"3g	c #00d9924d",
"3h	c #00a8ad3c",
"3i	c #00a1af3b",
"3j	c #0080b73b",
"3k	c #0068ba3c",
"3l	c #000b0b08",
"3m	c #009e2c01",
"3n	c #00ee7c58",
"3o	c #00e97f55",
"3p	c #00ca9d46",
"3q	c #00bea542",
"3r	c #00afac3c",
"3s	c #0015140f",
"1y....      0a  0a0a0r",
"..  //29//..//16  ..XX",
"..//....2j303c  //  //",
"1z....2a2k1n1n3m      ",
"..0j  2b10311010XX....",
"0j////1818323d3n++....",
"////..191j193e1j  XX//",
"..0j..1a1a1o1o3o..0j0a",
"//XX//0s0s1p1p0sXX  //",
"..  XX0t2l330t0t      ",
"  ..  1b2m1b1s1s....  ",
"  //XX1c1k341c1k    ++",
"XX0aXX1d1d131313  //++",
"//0a  0u2n0u3f0u..0a  ",
"//XX  2c0p0p0p0p09XX  ",
"20  //2d11113g1109  ++",
"..0a  0v2o350v0v06XXXX",
"..  //0k2p0k0k0k//    ",
"    XX0l2q0l0l0l//..  ",
"  XX  0w1l0w1l0wXX09++",
"XX  ..1e2r361e3p++++++",
"21++  2e2s371t1t++XX0c",
"16XXXX0x0x0x1u1u++  XX",
"XXXX++0y0y380y3q++  XX",
"..  ..1f2t1f1v1v++XXXX",
"XXXX++1g2u1g1w1w..++++",
"  XX  2f1m391m3r++++  ",
"09    1h1h1q3h1qXX++  ",
"    ..0m0m0m3i0m06XX++",
"++//XX1i2v1i1x1xXXXX06",
"++  XX0z2w3a0z0z++++++",
"XX06XX2g2x141414  XX06",
"XX++++2h12123j12++XXXX",
"XX  ++0n2y0n0n0n060906",
"XXXX060o0o0o3k0oXX++09",
"++XXXX||||1r0h||0706  ",
"XX++++080808||08XX060c",
"++06++||0i||||0hXX0c06",
"0609++0h||||||||09++++",
"++++  08||0i0h||XX++++",
"2206XX||0d||080i060706",
"0e0e0c080d08||08++++06",
"0b0b0e||0i0i0d||060606",
"0f0b07||||||080d++0c0c",
"0q0f0b||0h08||0d07++07",
"230q0b||||0d||08++++07",
"0g0g170f||081r07070c07",
"240g0g0q0b070f07070707",
"25260g170f0e0b070e063s",
"0r27282i2z3b3l1515150r"};