/* XPM */
static char* picture[] = {
"11 50 133 2",
"  	c #00adaca2",
"XX	c #00adaba2",
"++	c #00acaba1",
"..	c #00aeaca3",
"||	c #005ebb3b",
"//	c #00aeada3",
"06	c #00acaaa1",
"07	c #005ebb3c",
"08	c #00abaaa0",
"09	c #00acaba2",
"0a	c #00010101",
"0b	c #00aaa99f",
"0c	c #00000000",
"0d	c #00aba9a0",
"0e	c #00adaca3",
"0f	c #00aaa89f",
"0g	c #00a9a89e",
"0h	c #005dbb3b",
"0i	c #00a9a79e",
"0j	c #00a6a59b",
"0k	c #00a7a59b",
"0l	c #005dba3b",
"0m	c #005ebc3c",
"0n	c #00afada4",
"0o	c #00a8a69c",
"0p	c #00a7a69c",
"0q	c #00d3964a",
"0r	c #00d09848",
"0s	c #00a2b03b",
"0t	c #0075b83b",
"0u	c #0068ba3b",
"0v	c #00db8f4e",
"0w	c #00abaaa1",
"0x	c #00a8a79d",
"0y	c #00a6a49a",
"0z	c #00a5a399",
"10	c #ff000000",
"11	c #00a8a69d",
"12	c #00e88155",
"13	c #00e68454",
"14	c #00dd8c4f",
"15	c #00d6934b",
"16	c #00cd9b47",
"17	c #00c2a143",
"18	c #00bea442",
"19	c #0092b33b",
"1a	c #00d8914c",
"1b	c #007fb63a",
"1c	c #00df8a50",
"1d	c #0089b53b",
"1e	c #000c0b08",
"1f	c #00ea8056",
"1g	c #00e48753",
"1h	c #00e28952",
"1i	c #00e08b50",
"1j	c #00c99d45",
"1k	c #00b9a740",
"1l	c #00b5a93e",
"1m	c #00a9ae3d",
"1n	c #009bb23b",
"1o	c #00e28951",
"1p	c #00cc9a46",
"1q	c #00afab3c",
"1r	c #000a0a07",
"1s	c #00ea7f56",
"1t	c #00e88255",
"1u	c #00a9ae3c",
"1v	c #005fbc3c",
"1w	c #00e48652",
"1x	c #00c69f44",
"1y	c #00c2a243",
"1z	c #00baa740",
"20	c #00b4a93d",
"21	c #009ab13a",
"22	c #00adaba1",
"23	c #00aaa9a0",
"24	c #ff010101",
"25	c #03aeaca3",
"26	c #00afada3",
"27	c #02acaba2",
"28	c #01a9a79e",
"29	c #00a4a399",
"2a	c #0026251e",
"2b	c #0321201a",
"2c	c #000b0a08",
"2d	c #00afaea4",
"2e	c #00180d05",
"2f	c #00db8e4e",
"2g	c #00d8914d",
"2h	c #00c59e44",
"2i	c #00afac3d",
"2j	c #008ab53b",
"2k	c #0080b73c",
"2l	c #000b0a07",
"2m	c #001a0f03",
"2n	c #00e78454",
"2o	c #00e58753",
"2p	c #00de8d4f",
"2q	c #00d5934a",
"2r	c #00d39549",
"2s	c #00d09849",
"2t	c #00c99c45",
"2u	c #00c6a045",
"2v	c #00b9a73f",
"2w	c #00b4a93e",
"2x	c #009bb23c",
"2y	c #0092b33a",
"2z	c #008ab63b",
"30	c #0075b93b",
"31	c #001b1106",
"32	c #00e68353",
"33	c #00e18851",
"34	c #00d6944c",
"35	c #00c99d46",
"36	c #00c59f44",
"37	c #00bea441",
"38	c #00b0ac3d",
"39	c #0093b43b",
"3a	c #00261605",
"3b	c #00de8d50",
"3c	c #00d9924d",
"3d	c #00a8ad3c",
"3e	c #00a1af3b",
"3f	c #0080b73b",
"3g	c #0068ba3c",
"3h	c #001a1914",
"3i	c #00e97f55",
"3j	c #00ca9d46",
"3k	c #00bea542",
"3l	c #00afac3c",
"3m	c #00aeada4",
"3n	c #000b0b08",
"3o	c #0014140f",
"24....      0e  ..0e10",
"..  //2d//..//  ..  XX",
"..//..0e2m313a  //    ",
"25....2e0a0c0c3h  ..  ",
"..0n  0a0a0c0a0a......",
"0n////0a0a0a0c0a++  0n",
"26//..0c0c0c0c0a  XX//",
"..0n  1f1f1s1s3i..3m..",
"//  //12121t1t12XX  //",
"..  XX132n321313      ",
"  ..  1g2o1g1w1w....  ",
"  //XX1h1o331h1oXX  22",
"XX..XX1i1i1c1c1c  //++",
"//0e  142p143b140e0e  ",
"//XX  2f0v0v0v0vXXXX  ",
"++  //2g1a1a3c1a09  ++",
"....  152q34151506XXXX",
"//  //0q2r0q0q0q//    ",
"    XX0r2s0r0r0r//0e  ",
"  XX  161p161p16XX09++",
"XX  ..1j2t351j3j++++++",
"27++  2h2u361x1x++XX0w",
"  XXXX1717171y1y++  XX",
"XX++++181837183k++  09",
"      1k2v1k1z1z++XXXX",
"  XXXX1l2w1l2020..++++",
"  XX  2i1q381q3l++++  ",
"09    1m1m1u3d1uXX++  ",
"  XX..0s0s0s3e0s06XX++",
"++//XX1n2x1n2121XXXX06",
"++  XX192y39191922++++",
"XX06092j2z1d1d1d  XX06",
"++06++2k1b1b3f1b++XXXX",
"0609080t300t0t0t060906",
"0606080u0u0u3g0uXX++09",
"0d0806||||1v0l||0806  ",
"0f0d0d070707||07XX060w",
"280f0d||0m||||0lXX0w06",
"0i0g0b0l||||||||09++09",
"0x0i0f07||0m0l||XX++++",
"0j110i||0h||070m080808",
"0j0o0x070h07||070w0608",
"290p11||0m0m0h||230d08",
"0y0k0o||||||070h0b0d08",
"0z0k0k||0l07||0h0f060b",
"0z0j0o||||0h||07080d0b",
"0y0y0k0p||071v0g0b230f",
"0z0p0j0o110i0g0g0b0b0f",
"2a0j0k0p0x0g0i0b0g0b3o",
"102b2c2l1r1e1r1e1e3n10"};