/* XPM */
static char* picture[] = {
"31 31 5 1",
" 	c #ff000000",
"X	c #ff913e00",
"+	c #ffff6e00",
".	c #ff2d1300",
"|	c #ff5b2600",
"                               ",
"                               ",
"                               ",
"                               ",
"                               ",
"                               ",
"                               ",
"           XXXXXXXXX           ",
"          XX.......XX          ",
"         XX.       .XX         ",
"        XX.    +    .XX        ",
"       XX.    +++    .XX       ",
"       X.    +++++    .X       ",
"       X    +++|+++    X       ",
"       X   +++| |+++   X       ",
"       X  ++++   ++++  X       ",
"       X  ||+++++++||  X       ",
"       X    ||+++||    X       ",
"       X      +++      X       ",
"       XX     +++     XX       ",
"       .XX    +++    XX.       ",
"        .XX   |||   XX.        ",
"         .XX       XX.         ",
"          .XXXXXXXXX.          ",
"           .........           ",
"                               ",
"                               ",
"                               ",
"                               ",
"                               ",
"                               "};