/* XPM */
static char* picture[] = {
"31 31 5 1",
" 	c #00000000",
"X	c #00ff0062",
"+	c #00910038",
".	c #005b0024",
"|	c #002d0012",
"                               ",
"                               ",
"                               ",
"                               ",
"             XX XX             ",
"            XX. .XX            ",
"            ..   ..            ",
"           +++++++++           ",
"          ++|||||||++          ",
"         ++|       |++         ",
"        ++|   XXX   |++        ",
"       ++|   XX.XX   |++       ",
"     X +|   XX. .XX   |+ X     ",
"    XX +   XX. X .XX   + XX    ",
"    X. +   X. XXX .X   + .X    ",
"    .  +   X XX.XX X   +  .    ",
"    X  +   XXX. .XXX   +  X    ",
"    XX +   XX.   .XX   + XX    ",
"    .X +   .XX   XX.   + X.    ",
"     . ++   .XXXXX.   ++ .     ",
"       |++   .....   ++|       ",
"        |++         ++|        ",
"         |++       ++|         ",
"          |+++++++++|          ",
"           |||||||||           ",
"            XX   XX            ",
"            .XX XX.            ",
"             .. ..             ",
"                               ",
"                               ",
"                               "};