/* XPM */
static char *_302_85fdedcacb43c2a5f8b215d40fcb7d10803d2c92902f479b5739e4d8fd0ca3d8[] = {
/* columns rows colors chars-per-pixel */
"70 176 12 1 ",
"  c black",
". c gray7",
"X c #141417",
"o c #211F1F",
"O c #292930",
"+ c #343131",
"@ c #373739",
"# c #37373F",
"$ c #3C3C44",
"% c #535050",
"& c #6E6969",
"* c #AFA6A6",
/* pixels */
"@@@@@@@@@@@@@@@@@@@@@@@@@@@@@@@@@@@@@@@@@@@@@@@@@@@@@@@@@@@@@@@@@@@@@@",
"@@@@@@@@@@@@@@@@@@@@@@@@@@@@@@@@@@@@@@@@@@@@@@@@@@@@@@@@@@@@@@@@@@@@@@",
"@@@@@@@@@@@@@@@@@@@@@@@@@@@@@@@@@@@@@@@@@@@@@@@@@@@@@@@@@@@@@@@@@@@@@@",
"@@@@@@@@@@@@@@@@@@@@@@@@@@@@@@@@@@@@@@@@@@@@@@@@@@@@@@@@@@@@@@@@@@@@@@",
"@@@@@@@@@@@@@@@                                       @@@@@@@@@@@@@@@@",
"@@@@@@@@@@@@@                                           @@@@@@@@@@@@@@",
"@@@@@@@@@@@@    OOOOOOOOOOOOOOOOOOOOOOOOOOOOOOOOOOOOOO   @@@@@@@@@@@@@",
"@@@@@@@@@@@   OOOOOOOOOOOOOOOOOOOOOOOOOOOOOOOOOOOOOOOOO   @@@@@@@@@@@@",
"@@@@@@@@@@@  OOOOOOOOOOOOOOOOOOOOOOOOOOOOOOOOOOOOOOOOOOO   @@@@@@@@@@@",
"@@@@@@@@@@   OOO$$$$$$$$$$$$$$$$$$$$$$$$$$$$$$$$$$$$$OOOO  @@@@@@@@@@@",
"@@@@@@@@@@  OOOO$$$$$$$$$$$$$$$$$$    $$$$$$$$$$$$$$$$OOO   @@@@@@@@@@",
"@@@@@@@@@@  OOO$$$$$$$$$$$$$$$$$$ &&&& $$$$$$$$$$$$$$$OOO   @@@@@@@@@@",
"@@@@@@@@@@  OOO$$$$$$$$$$$$$$$$$ & && & $$$$$$$$$$$$$$OOO   @@@@@@@@@@",
"@@@@@@@@@@  OOO$$$$$$$O$$$$$$$$$ &&  && $$$$$$$$$$$$$$OOO   @@@@@@@@@@",
"@@@@@@@@@@  OOO$$$$#$#$$$$$$$$$$ &&  && $$$$$$$$$$$$$$OOO   @@@@@@@@@@",
"@@@@@@@@@@  OOO$$$$#$$$$$$$$$$$$ & && & $$$$$$$$$O$$$$OOO   @@@@@@@@@@",
"@@@@@@@@@@  OOO$$$$$$$$$$$$$$$$$$ &&&& $$$$$$$$$$$$$$$OOO   @@@@@@@@@@",
"@@@@@@@@@@  OOO$$$$$$$$$$$$$$$$$$$    $$$$$$$$$$$$$$$$OOO   @@@@@@@@@@",
"@@@@@@@@@@  OOO$$$$$$$$$$$$$$$$$###$$$$$$$$###$$$$$$$$OOO   @@@@@@@@@@",
"@@@@@@@@@@  OOO$$$#$$$$$$$$$$$$$$$$$$$$$$$$$$$$$$$$$$$OOO   @@@@@@@@@@",
"@@@@@@@@@@  OOO$$$$$$$$$$$$$$$$$$$$$$$$$$$$$$$$$$$$$$$OOO   @@@@@@@@@@",
"@@@@@@@@@@  OOO$$$$$$$$$$$$$$$$$$$$$$$$$$$$$$$$$$$$$$$OOO   @@@@@@@@@@",
"@@@@@@@@@@  OOO$$$$$$$$$$$$$$$$$$$$$$$$$$$$$$$$$$$$$$$OOO   @@@@@@@@@@",
"@@@@@@@@@@  OOO$$$$$$$$$$$$$$$$$$$$$$$$$$$$$$$$$$$$$$$OOO   @@@@@@@@@@",
"@@@@@@@@@@  OOO$$$$#$$$$$$$$$$$$$$$$$$$$$$$$$$$$$$$$$$OOO   @@@@@@@@@@",
"@@@@@@@@@@  OOO$$$$$$$$$$$$$$$$$$$$$$$$$$$$$$$$$$$$$$$OOO   @@@@@@@@@@",
"@@@@@@@@@@  OOO$$$$$$$$$$$$$$$$$$$$$$$$$$$$$$$$$$$$$$$OOO   @@@@@@@@@@",
"@@@@@@@@@@  OOO$$$$$$$$$$$$$$$$$$$$$$$$$$$$$$$$$$$$$$$OOO   @@@@@@@@@@",
"@@@@@@@@@@  OOO$$$$#$$$$#$$$$$$$$$$$$$$$$$$$$$$$$$#$$$OOO   @@@@@@@@@@",
"@@@@@@@@@@  OOO$$$$#$$$$$$$$$$$$$$$$$$$$$$$$$$$$$$$$$$OOO   @@@@@@@@@@",
"@@@@@@@@@@  OOO$$$$#$$$$$$$$$$$$$$XX$$$$$XX$$$$$$$$$$$OOO   @@@@@@@@@@",
"@@@@@@@@@@  OOO$$$$$O$$$$$$$$$$$$$XX$$$$$XX$$$$$$$$$$$OOO   @@@@@@@@@@",
"@@@@@@@@@@  OOO$$$$$$$$$$$$$$$$$$XXX$$$$XXX$$$$$$$$$$$OOO   @@@@@@@@@@",
"@@@@@@@@@@  OOO$$$$#$$$$$$$$$$$$$XX$$$$$XX$$$$$$$$$$$$OOO   @@@@@@@@@@",
"@@@@@@@@@@  OOO$$$$$$$$$$$$$$$O$XXX$$#$XXX$$$$$$#$$$$$OOO   @@@@@@@@@@",
"@@@@@@@@@@  OOO$$$$$$$$$$$$$$$$$XX$$$$$XX$$$$$$$$$$$$$OOO   @@@@@@@@@@",
"@@@@@@@@@@  OOO$$$$$$$$$$$$$$$$XXX$$$$XXX$$$$$$$$$$$$$OOO   @@@@@@@@@@",
"@@@@@@@@@@  OOO$$$$$$$$$$$$$#$$XX$$$$$XX$#$$$$$$$$$$$$OOO   @@@@@@@@@@",
"@@@@@@@@@@  OOO$$$$$$$$$$$$$$$XXX$$$$$XX$$$$$$$$$$$$$$OOO   @@@@@@@@@@",
"@@@@@@@@@@  OOO$$$$#$$$$$$$$$$XX$$$$$XXX$$$$$$$$$$$$$$OOO   @@@@@@@@@@",
"@@@@@@@@@@  OOO$$$$$$$$$$$$$#XXX$$$$$XX$$#$$$$$$$$$$$$OOO   @@@@@@@@@@",
"@@@@@@@@@@  OOO$$$$$$$$$$$$$$XX$$$$$XXX$$$$$$$$$$$$$$$OOO   @@@@@@@@@@",
"@@@@@@@@@@  OOO$$$$$$$$$$$$$XXX$$$$$XX$$$#$$$$$$$$$$$$OOO   @@@@@@@@@@",
"@@@@@@@@@@  OOO$$$$$$$$$$$$$XX$$$$$$XX$$$$$$$$$$$$$$$$OOO   @@@@@@@@@@",
"@@@@@@@@@@  OOO$$$$$$$$$$$$XXX$$$$$XXX$$$$$$$$$$$$$$$$OOO   @@@@@@@@@@",
"@@@@@@@@@@  OOO$$$$$$$$$$$$XX$$$$$$XX$$$$$$$$$$$$$$$$$OOO   @@@@@@@@@@",
"@@@@@@@@@@  OOO$$$$$$$$$$$XXX$$$$$XXX$$$$#$$$$$$$$$$$$OOO   @@@@@@@@@@",
"@@@@@@@@@@  OOO$$$$$$$$$$$XX$$$$$$XX$$$$$$$$$$$$$$$$$$OOO   @@@@@@@@@@",
"@@@@@@@@@@  OOO$$$$$$$$$$XXX$$$$$XXX$$$$$$$$$$$$$$$$$$OOO   @@@@@@@@@@",
"@@@@@@@@@@  OOO$$$$$$$$$$XX$$$$$$XX$$$$$$$$$$$$$$$$$$$OOO   @@@@@@@@@@",
"@@@@@@@@@@  OOO$$$$$$$$$$XX$#$$$$XX$$$$$$#$$$$$$$$$$$$OOO   @@@@@@@@@@",
"@@@@@@@@@@  OOO$$$$$$$$$$$$$$$$$$$$$$$$$$$$$$$$$$$$$$$OOO   @@@@@@@@@@",
"@@@@@@@@@@  OOO$$$$$$$$$$$$$#$$$$$$$$$$$$#$$$$$$$$$$$$OOO   @@@@@@@@@@",
"@@@@@@@@@@  OOO$$$$#$$$$$$$$$$$$$$$$$$$$$$$$$$$$$$#$$$OOO   @@@@@@@@@@",
"@@@@@@@@@@  OOO$$$$#$$$$$$$$#$$$$$$$$$$$$#$$$$$$$$$$$$OOO   @@@@@@@@@@",
"@@@@@@@@@@  OOO$$$$#$$$$$$$$$$$$$$$$$$$$$$$$$$$$$$$$$$OOO   @@@@@@@@@@",
"@@@@@@@@@@  OOO$$$$$$$$$$$$$#$$$$$$$$$$$$#$$$$$$$$$$$$OOO   @@@@@@@@@@",
"@@@@@@@@@@  OOO$$$$$$$$$$$$$$$$$$$$$$$$$$$$$$$$$$$$$$$OOO   @@@@@@@@@@",
"@@@@@@@@@@  OOO$$$$$$$$$$$$$O$$$$$$$$$$$$O$$$$$$$$$$$$OOO   @@@@@@@@@@",
"@@@@@@@@@@  OOO$$$$$$$$$$$$$$$$$$$$$$$$$$$$$$$$$$$$$$$OOO   @@@@@@@@@@",
"@@@@@@@@@@  OOO$$$$$O$$$$$$$$$$$$$$$$$$$$$$$$$$$$$$$$$OOO   @@@@@@@@@@",
"@@@@@@@@@@  OOO$$$$$$$$$$$$$$$$$$$$$$$$$$$$$$$$$$$$$$$OOO   @@@@@@@@@@",
"@@@@@@@@@@  OOO$$$$$$$$$$$$$$$$$$$$$$$$$$$$$$$$$$$$$$$OOO   @@@@@@@@@@",
"@@@@@@@@@@  OOO$$$$$$$$$$$$$$$$$$$$#$$$$$$$$$$$$#$$$$$OOO   @@@@@@@@@@",
"@@@@@@@@@@  OOO$$$$$$$$$$$$$$$$$$$$#$$$$$$$$$$$$#$$$$$OOO   @@@@@@@@@@",
"@@@@@@@@@@  OOO$$$$$$$$$$$$$$$$$$$$$$$$$$$$$$$$$$$$$$$OOO   @@@@@@@@@@",
"@@@@@@@@@@  OOO$$$$$$$$$$$$$$$$$$$$$$$$$$$$$$$$$$$$#$$OOO   @@@@@@@@@@",
"@@@@@@@@@@  OOO$$$$$$$$$$$$$$$$$$$$$$$$$$$$$$$$$$$$#$$OOO   @@@@@@@@@@",
"@@@@@@@@@@  OOO$$$$$$$$$$$$$$$$$$$$$$$$$$$$$$$$$$$$$$$OOO   @@@@@@@@@@",
"@@@@@@@@@@  OOO$$$$$$$$$                      $$$$$$$$OOO   @@@@@@@@@@",
"@@@@@@@@@@  OOO$$$$$$$$$ .................... $$$$$$$$OOO   @@@@@@@@@@",
"@@@@@@@@@@  OOO$$$#$$$$$                    . $$$$$$$$OOO   @@@@@@@@@@",
"@@@@@@@@@@  OOO$$$$$$$$$  ................. . $$$$$$$$OOO   @@@@@@@@@@",
"@@@@@@@@@@  OOO$$$$$$$$$  ooooooooooooooooo . $$$$$$$$OOO   @@@@@@@@@@",
"@@@@@@@@@@  OOO$$$$$$$$$  ooooooooooooooooo . $$$O$$$$OOO   @@@@@@@@@@",
"@@@@@@@@@@  OOO$$$$$$$$$  +++++++++++++++++ . $$$$$$$$OOO   @@@@@@@@@@",
"@@@@@@@@@@  OOO$$$$$$$$$  +++++++++++++++++ . $$$$#$$$OOO   @@@@@@@@@@",
"@@@@@@@@@@  OOO$$$$$$$$$  %%%%%%%%%%%%%%%%% . $$$$$$$$OOO   @@@@@@@@@@",
"@@@@@@@@@@  OOO$$$$$$$$$  %%%%%%%%%%%%%%%%% . $$$$$$$$OOO   @@@@@@@@@@",
"@@@@@@@@@@  OOO$$$$$$$$$  &&&&&&&&&&&&&&&&& . $$$$$$$$OOO   @@@@@@@@@@",
"@@@@@@@@@@  OOO$$$$$$$$$  &&&&&&&&&&&&&&&&& . $$$$$$$$OOO   @@@@@@@@@@",
"@@@@@@@@@@  OOO$#O$$$$$$  &&&&&&&&&&&&&&&&& . $$$##$$$OOO   @@@@@@@@@@",
"@@@@@@@@@@  OOO$$$$$$$$$  &&&&&&&&&&&&&&&&& . $$$$$$$$OOO   @@@@@@@@@@",
"@@@@@@@@@@  OOO$$$$$$$$$  &&&&&&&&&&&&&&&&& . $$$$$$$$OOO   @@@@@@@@@@",
"@@@@@@@@@@  OOO$$$$$$$$$  &&&&&&&&&&&&&&&&& . $$$$$$$$OOO   @@@@@@@@@@",
"@@@@@@@@@@  OOO$$$$$$$$$  &&&&&&&&&&&&&&&&& . $$$$$$$$OOO   @@@@@@@@@@",
"@@@@@@@@@@  OOO$$$$$$$$$  &&&&&&&&&&&&&&&&& . $$$$$$$$OOO   @@@@@@@@@@",
"@@@@@@@@@@  OOO$$$$$$$$$  &&&&&&&&&&&&&&&&& . $$$$$$$$OOO   @@@@@@@@@@",
"@@@@@@@@@@  OOO$$$$$$$$$  &&&&&&&&&&&&&&&&& . $$$$$$$$OOO   @@@@@@@@@@",
"@@@@@@@@@@  OOO$$$$$$$$$  &&&&&&&&&&&&&&&&& . $$$$$$$$OOO   @@@@@@@@@@",
"@@@@@@@@@@  OOO$$$$$$$$$  &&&&&&&&&&&&&&&&& . $$$$$$$$OOO   @@@@@@@@@@",
"@@@@@@@@@@  OOO$$$$$$$$$  &&&&&&&&&&&&&&&&& . $$$$$$$$OOO   @@@@@@@@@@",
"@@@@@@@@@@  OOO$$$$$$$$$  &&&&&&&&&&&&&&&&& . $$$$$$$$OOO   @@@@@@@@@@",
"@@@@@@@@@@  OOO$$$$$$$$$  &&&&&&&&&&&&&&&&& . $$$$$$$$OOO   @@@@@@@@@@",
"@@@@@@@@@@  OOO$$$$$$$$$  &&&&&&&&&&&&&&&&& . $$$$$$$$OOO   @@@@@@@@@@",
"@@@@@@@@@@  OOO$$$$$$$$$  &&&&&&&&&&&&&&&&& . $$$$$$$$OOO   @@@@@@@@@@",
"@@@@@@@@@@  OOO$$$$$$$$$  &&&&&&&&&&&&&&&&& . $$$$$$$$OOO   @@@@@@@@@@",
"@@@@@@@@@@  OOO$$$$$$$$$  &&&&&&&&&&&&&&&&& . $$$$$$$$OOO   @@@@@@@@@@",
"@@@@@@@@@@  OOO$$$$$$$$$  &&&&&&&&&&&&&&&&& . $$$$$$$$OOO   @@@@@@@@@@",
"@@@@@@@@@@  OOO$$$$$$$$$  &&&&&&&&&&&&&&&&& . $$$$$$$$OOO   @@@@@@@@@@",
"@@@@@@@@@@  OOO$$$$$$$$$  &&&&&&&&&&&&&&&&& . $$$$$$$$OOO   @@@@@@@@@@",
"@@@@@@@@@@  OOO$$$$$$$$$  &&&&&&&&&&&&&&&&& . $$$$$$$$OOO   @@@@@@@@@@",
"@@@@@@@@@@  OOO$$$$$$$$$  &&&&&&&&&&&&&&&&& . $$$$$$$$OOO   @@@@@@@@@@",
"@@@@@@@@@@  OOO$$$$$$$$$  &&&&&&&&&&&&&&&&& . $$$$$$$$OOO   @@@@@@@@@@",
"@@@@@@@@@@  OOO$$$$$$$$$  &&&&&&&&&&&&&&&&& . $$$$$$$$OOO   @@@@@@@@@@",
"@@@@@@@@@@  OOO$$$$$$$$$  &&&&&&&&&&&&&&&&& . $$$$$$$$OOO   @@@@@@@@@@",
"@@@@@@@@@@  OOO$$$$$$$$$  &&&&&&&&&&&&&&&&& . $$$$$$$$OOO   @@@@@@@@@@",
"@@@@@@@@@@  OOO$$$$$$$$$  &&&&&&&&&&&&&&&&& . $$$$$$$$OOO   @@@@@@@@@@",
"@@@@@@@@@@  OOO$$$$$$$$$  &&&&&&&&&&&&&&&&& . $$$$$$$$OOO   @@@@@@@@@@",
"@@@@@@@@@@  OOO$$$$$$$$$  &&&&&&&&&&&&&&&&& . $$$$$$$$OOO   @@@@@@@@@@",
"@@@@@@@@@@  OOO$$$$$$$$$  &&&&&&&&&&&&&&&&& . $$$$$$$$OOO   @@@@@@@@@@",
"@@@@@@@@@@  OOO$$$$$$$$$  &&&&&&&&&&&&&&&&& . $$$$$$$$OOO   @@@@@@@@@@",
"@@@@@@@@@@  OOO$$$$$$$$$  &&&&&&&&&&&&&&&&& . $$$$$$$$OOO   @@@@@@@@@@",
"@@@@@@@@@@  OOO$$$$$$$$$  &&&&&&&&&&&&&&&&& . $$$$$$$$OOO   @@@@@@@@@@",
"@@@@@@@@@@  OOO$$$$$$$$$  &&&&&&&&&&&&&&&&& . $$$$$$$$OOO   @@@@@@@@@@",
"@@@@@@@@@@  OOO$$$$$$$#$  &&&&&&&&&&&&&&&&& . $$$$$$$$OOO   @@@@@@@@@@",
"@@@@@@@@@@  OOO$$$$$$$$$  &&&&&&&&&&&&&&&&& . $$$$$$$$OOO   @@@@@@@@@@",
"@@@@@@@@@@  OOO$$$$$$$$$  &&&&&&&&&&&&&&&&& . $$$$$$$$OOO   @@@@@@@@@@",
"@@@@@@@@@@  OOO$$$$$$$$$  &&&&&&&&&&&&&&&&& . $$$$#$$$OOO   @@@@@@@@@@",
"@@@@@@@@@@  OOO$$#$$$$$$  &&&&&&&&&&&&&&&&& . $$$$$$$$OOO   @@@@@@@@@@",
"@@@@@@@@@@  OOO$$$$$$$$$  %%%%%%%%%%%%%%%%% . $$$$$$$$OOO   @@@@@@@@@@",
"@@@@@@@@@@  OOO$$$$$$$$$  %%%%%%%%%%%%%%%%% . $$$$$$$$OOO   @@@@@@@@@@",
"@@@@@@@@@@  OOO$$$$$$$$$  +++++++++++++++++ . $$$$$$$$OOO   @@@@@@@@@@",
"@@@@@@@@@@                                                  @@@@@@@@@@",
"@@@@@@@@@@                                                   @@@@@@@@@",
"@@@@@@@@  %%**********************************************%   @@@@@@@@",
"@@@@@@@  %*************************************************%   @@@@@@@",
"@@@@@@  %&*&&&&&&&&&&&&&&&&&&&&&&&&&&&&&&&&&&&&&&&&&&&&&&***&o  @@@@@@",
"@@@@@@ o%&**************************************************&%  @@@@@@",
"@@@@@@  %&*&&&&&&&&&&&&&&&&&&&&&&&&&&&&&&&&&&&&&&&&&&&&&&&**&o  @@@@@@",
"@@@@@@@  %*************************************************%   @@@@@@@",
"@@@@@@@@  %%**&&&&&&&&&&&&&&&&&&&&&&&&&&&&&&&&&&&&&&&&&&**%   @@@@@@@@",
"@@@@@@@@@@                                                   @@@@@@@@@",
"@@@@@@@@@@                                                   @@@@@@@@@",
"@@@@@@@@@@  OOO$$$$$$$$$$$$$$$$$$$$$$$$$$$$$$$$$$$$$$$OOO   @@@@@@@@@@",
"@@@@@@@@@@  OOO$$$$$$$$$$$$$$$$$$$$$$$$$$$$$$$$$$$$$$$OOO   @@@@@@@@@@",
"@@@@@@@@@@  OOO$$$$$$$$$$$$$$$$$$$$$$$$$$$$$$$$$$$$$$$OOO   @@@@@@@@@@",
"@@@@@@@@@@  OOO$$$$$$$$$$$$$$$$$$$$$$$$$$$$$$$$$$$$$$$OOO   @@@@@@@@@@",
"@@@@@@@@@@  OOO$$$$#$$$$$$$$$$$$$$$$$$$$$$$$$$$$$$$$$$OOO   @@@@@@@@@@",
"@@@@@@@@@@  OOO$$$$$$$$$$$$$$$$$$$$$$$$$$$$$$$$$$$$$$$OOO   @@@@@@@@@@",
"@@@@@@@@@@  OOO$$$$$$$$$$$$$$$$$$$$$$$$$$$$O$$$$$$$$$$OOO   @@@@@@@@@@",
"@@@@@@@@@@  OOO$$$$$$$$$$$$$$$$#$$$$$$$$$$$$#$$$$$$$$$OOO   @@@@@@@@@@",
"@@@@@@@@@@  OOO$$$$$$$$$$$$$$$$$$$$$$$$$$$$$$$$$$$$$$$OOO   @@@@@@@@@@",
"@@@@@@@@@@  OOO$$$$$$$$$$$$$$$$$$$$$$$$$$$$$$$$$$$$$$$OOO   @@@@@@@@@@",
"@@@@@@@@@@  OOO$$$$$$$$$$$$$$$$$$$$$$$$$$$$$$$$$$$$$$$OOO   @@@@@@@@@@",
"@@@@@@@@@@  OOO$$$$$$$$$#$$$$$$$$$$$$$$$$$$$$$$$$$$$$$OOO   @@@@@@@@@@",
"@@@@@@@@@@  OOO$$$$$$$$$$$$$$$$$$$$$$$$$$$$$$$$$$$$$$$OOO   @@@@@@@@@@",
"@@@@@@@@@@  OOO$$$$$$$$$$$$$$$$$$$$$$$$$$$$$$$$$$$$$$$OOO   @@@@@@@@@@",
"@@@@@@@@@@  OOO$$$$$$$$$#$$$$$$$$$$$$$$$$$$$$$$$$$$$$$OOO   @@@@@@@@@@",
"@@@@@@@@@@  OOO$$$$$$$$$$$$$$$$$$$$$$$$$$$$$$$$$$$$$$$OOO   @@@@@@@@@@",
"@@@@@@@@@@  OOO$$$$$$$$$#$$$$$$$$$$$$$$$$$$$$$$$$$$$$$OOO   @@@@@@@@@@",
"@@@@@@@@@@  OOO$$$$$$$$$$$$$$$$$$$$$$$$$$$$$$$$$$$$$$$OOO   @@@@@@@@@@",
"@@@@@@@@@@  OOO$$$$$$$$$$$$$$$$$$$$$$$$$$$$$$$$$$$$$$$OOO   @@@@@@@@@@",
"@@@@@@@@@@  OOO$$$$$$$$$$$$$$$$$$$$$$$$$$$$$$$$$$$$$$$OOO   @@@@@@@@@@",
"@@@@@@@@@@  OOO$$$$$$$$$$$$$$$$$$$$$$$$$$$$$$$$$$$$$$$OOO   @@@@@@@@@@",
"@@@@@@@@@@  OOO$$$$$$$$$#$$$$$$$$$$$$$$$$$$$$$$$$$$$$$OOO   @@@@@@@@@@",
"@@@@@@@@@@  OOO$$$$$$$$$$$$$$$$$$$    $$$$$$$$$$$$$$$$OOO   @@@@@@@@@@",
"@@@@@@@@@@  OOO$$$$$$$$$#$$$$$$$$ &&&& $$$$$$$$$$$$$$$OOO   @@@@@@@@@@",
"@@@@@@@@@@  OOO$$$$$$$$$$$$$$$$$ & && & $$$$$$$$$$$$$$OOO   @@@@@@@@@@",
"@@@@@@@@@@  OOO$$$$$$$$$$$$$$$$$ &&  && $$$$$$$$$$$$$$OOO   @@@@@@@@@@",
"@@@@@@@@@@  OOO$$$O$$$$$$$$$$$$$ &&  && $$$$$$$$$$$$$$OOO   @@@@@@@@@@",
"@@@@@@@@@@  OOO$$$$$$$$$$$$$$$$$ & && & $$$$$$$$$O$$$$OOO   @@@@@@@@@@",
"@@@@@@@@@@  OOO$$$$$$$$$$$$$$$$$$ &&&& $$$$$$$$$$#$$$$OOO   @@@@@@@@@@",
"@@@@@@@@@@  OOO$$$$$$$$$$$$$$$$$$$    $$$$$$$$$$$$$$$$OOO   @@@@@@@@@@",
"@@@@@@@@@@  OOO$$$$$$$$$$$$$$$$$$$$$$$$$$$$$$$$$$$$$$$OOO   @@@@@@@@@@",
"@@@@@@@@@@  OOOO$$$$$$$$$$$$$$$$$$$$$$$$$$$$$$$$$$$$$OOOO   @@@@@@@@@@",
"@@@@@@@@@@  OOOOOOOOOOOOOOOOOOOOOOOOOOOOOOOOOOOOOOOOOOOO   @@@@@@@@@@@",
"@@@@@@@@@@   OOOOOOOOOOOOOOOOOOOOOOOOOOOOOOOOOOOOOOOOOOO   @@@@@@@@@@@",
"@@@@@@@@@@@   OOOOOOOOOOOOOOOOOOOOOOOOOOOOOOOOOOOOOOOO     @@@@@@@@@@@",
"@@@@@@@@@@@@                                              @@@@@@@@@@@@",
"@@@@@@@@@@@@@                                            @@@@@@@@@@@@@",
"@@@@@@@@@@@@@@@                                         @@@@@@@@@@@@@@",
"@@@@@@@@@@@@@@@@@@@@@@@@@@@@@@@@@@@@@@@@@@@@@@@@@@@@@@@@@@@@@@@@@@@@@@",
"@@@@@@@@@@@@@@@@@@@@@@@@@@@@@@@@@@@@@@@@@@@@@@@@@@@@@@@@@@@@@@@@@@@@@@",
"@@@@@@@@@@@@@@@@@@@@@@@@@@@@@@@@@@@@@@@@@@@@@@@@@@@@@@@@@@@@@@@@@@@@@@",
"@@@@@@@@@@@@@@@@@@@@@@@@@@@@@@@@@@@@@@@@@@@@@@@@@@@@@@@@@@@@@@@@@@@@@@"
};
