/* XPM */
static char *_396_045a451371e5d55498cfa08dd76861a992fcbf51248ee6de549a7aa6e5f079c0[] = {
/* columns rows colors chars-per-pixel */
"69 225 16 1 ",
"  c black",
". c gray7",
"X c #1B1A1A",
"o c #211F1F",
"O c #222232",
"+ c #292930",
"@ c #343131",
"# c #373739",
"$ c #37373F",
"% c #662814",
"& c #3C3C44",
"* c #535050",
"= c #6E6969",
"- c #A43917",
"; c #AFA6A6",
": c #D7CACA",
/* pixels */
"##############################         ##############################",
"##########################    %%%%%%%%%    ##########################",
"########################    %%%%%%%%%%%%%%%  ########################",
"######################     %%%%%%%%%%%%%%%%%   ######################",
"####################  %%  %%%%         %%%%      ####################",
"################### %%% -                   - %%% ###################",
"################## %%%% -      XXXXXXX      - %%%% ##################",
"################# %%%%  - XXXXXXXXXXXXXXXXX -  %%%% #################",
"################ %%%    - XXXXXXXXXXXXXXXXX -    %%% ################",
"############### %%%   X - XXXXXXXXXXXXXXXXX - X   %%% ###############",
"############## %%%   XX - XXXXXXXXXXXXXXXXX - XX   %%% ##############",
"############# %%%   XXX - XXXXXXXXXXXXXXXXX - XXX   %%% #############",
"############# %%   XXXX - XXXXXXXXXXX:X:XXX - XXXX   %% #############",
"############ %%   XXXXX - XXXXXXXXXXXXXX:XX - XXXXX   %% ############",
"############ %   XXXXXX - XXXXXXXXXXXXXXX:X - XXXXXX   % ############",
"########### %%  XXXXXXX - XXXXXXXXXXXXXXXXX - XXXXXXX  %% ###########",
"########### %   XXXXXXX - XXXXXXXXXXX:XXXXX - :XXXXXXX  % ###########",
"########## %%  XXXXXXX - XXXXXXXXXXXXXXXXX - XXXXXXXXX  %% ##########",
"########## %  XXXXXXXX - XXXXXXXXXXXXXXXXX - XX:XXXXXX   % ##########",
"########## %  XXXXXXXX - XXXXXXXXXXXXXXXXX - XXX:XXXXX   % ##########",
"########## %  XXXXXXXX - XXXXXXXXXXXXXXXXX - XXXXXXXXXX  % ##########",
"######### %  XXXXXXXXX - XXXXXXXXXXXXXXXXX - XXX:XXXXXX   % #########",
"######### %  XXXXXXXXX - XXXXXXXXXXXXXXXXX - XXXXXXXXXX   % #########",
"######### %  XXXXX     -                   -     XXXXXX   % #########",
"#########         -------------------------------           #########",
"######### --------     -                   -      --------- #########",
"#########         XXXX - XXXXXXXXXXXXXXXXX - XXXXX          #########",
"######### %   XXXXXXXX - XXXXXXXXXXXXXXXXX - XXXXXXXXXX   %  ########",
"######### %   XXXXXXXX - XXXXXXXXXXXXXXXXX - XXXXXXXXXX   %  ########",
"######### %   XXXXXXXX - XXXXXXXXXXXXXXXXX - XXXXXXXXX    %  ########",
"########## %   XXXXXXX - XXXXXXXXXXXXXXXXX - XXXXXXXXX   %   ########",
"########## %   XXXXXXX - XXXXXXXXXXXXXXXXX - XXXXXXXXX   %   ########",
"########## %    XXXXXX - XXXXXXXXXXXXXXXXX - XXXXXXXXX   %   ########",
"########## %%   XXXXXX - XXXXXXXXXXXXXXXXX - XXXXXXXX   %%   ########",
"##########  %   XXXXXX - XXXXXXXXXXXXXXXXX - XXXXXXXX   %    ########",
"##########  %%   XXXXXX - XXXXXXXXXXXXXXXXX - XXXXXX   %%   #########",
"###########  %    XXXXX - XXXXXXXXXXXXXXXXX - XXXXX    %    #########",
"###########  %%    XXXX - XXXXXXXXXXXXXXXXX - XXXX    %%    #########",
"###########   %%    XXX - XXXXXXXXXXXXXXXXX - XXX    %%    ##########",
"############  %%%    XX - XXXXXXXXXXXXXXXXX - XX    %%%    ##########",
"############   %%%    X - XXXXXXXXXXXXXXXXX -      %%%    ###########",
"#############   %%%     - XXXXXXXXXXXXXXXXX -     %%%    ############",
"#############    %%%    - XXXXXXXXXXXXXXXXX -    %%%     ############",
"##############    %%%%  -      XXXXXXX      -  %%%%     #############",
"##############     %%%% -                   - %%%%     ##############",
"###############     %%%% -                  -- %%     ###############",
"################      %% - %%%         %%%%% -       ################",
"#################       %  %%%%%%%%%%%%%%%%%%       #################",
"##################        % %%%%%%%%%%%%%%%        ##################",
"####################          %%%%%%%%%          ####################",
"#####################                           #####################",
"#######################                       #######################",
"##########################                 ##########################",
"#############################           #############################",
"#####################################################################",
"#####################################################################",
"#####################################################################",
"#####################################################################",
"#####################################################################",
"#####################################################################",
"#####################################################################",
"#####################################################################",
"#####################################################################",
"#####################################################################",
"#####################################################################",
"#####################################################################",
"#####################################################################",
"#####################################################################",
"#####################################################################",
"#####################################################################",
"#####################################################################",
"#####################################################################",
"                                                                     ",
"                                                                     ",
"+++++++++++++++++++++++++++++++++++++++++++++++++++++++++++++++++++++",
"                                                                     ",
"                                                                     ",
" OOOOOOOOOOOOOOOOOOOOOOOOOOOOOOOOOOOOOOOOOOOOOOOOOOOOOOOOOOOOOOOOOO  ",
"OOOOOOOOOOOOOOOOOOOOOOOOOOOOOOOOOOOOOOOOOOOOOOOOOOOOOOOOOOOOOOOOOOO  ",
"OOOOOOOOOOOOOOOOOOOOOOOOOOOOOOOOOOOOOOOOOOOOOOOOOOOOOOOOOOOOOOOOOOO  ",
"OOOOOOOOOOOOOOOOOOOOOOOOOOOOOOOOOOOOOOOOOOOOOOOOOOOOOOOOOOOOOOOOOOO  ",
"OOOOOOOOOOOOOOOOOOOOOOOOOOOOOOOOOOOOOOOOOOOOOOOOOOOOOOOOOOOOOOOOOOO  ",
"OOOOOOOOOOOOOOOOOOOOOOOOOOOOOOOOOOOOOOOOOOOOOOOOOOOOOOOOOOOOOOOOOOO  ",
"OOOOOOOOOOOOOOOOOOOOOOOOOOOOOOOOOOOOOOOOOOOOOOOOOOOOOOOOOOOOOOOOOOO  ",
"OOOOOOOOOOOOOOOOOOOOOOOOOOOOOOOOOOOOOOOOOOOOOOOOOOOOOOOOOOOOOOOOOOO  ",
"OOOOOOOOOOOOOOOOOOOO                          OOOOOOOOOOOOOOOOOOOOO  ",
"OOOOOOOOOOOOOOOOOO                              OOOOOOOOOOOOOOOOOOO  ",
"OOOOOOOOOOOOOOOOO    +++++++++++++++++++++++++   OOOOOOOOOOOOOOOOOO  ",
"OOOOOOOOOOOOOOOO   ++++++++++++++++++++++++++++   OOOOOOOOOOOOOOOOO  ",
"OOOOOOOOOOOOOOOO  ++++++++++++++++++++++++++++++   OOOOOOOOOOOOOOOO  ",
"OOOOOOOOOOOOOOO   +++&&&&&&&&&&&&&&&&&&&&&&&&++++  OOOOOOOOOOOOOOOO  ",
"OOOOOOOOOOOOOOO  ++++&&&&&&&&&&&&&&&&&&&&&&&&&+++   OOOOOOOOOOOOOOO  ",
"OOOOOOOOOOOOOOO  +++&&&&&&&&&&&&&&&&&&&&&&&&&&+++   OOOOOOOOOOOOOOO  ",
"OOOOOOOOOOOOOOO  +++&&&&&&&&&&&&&&&&&&&&&&&&&&+++   OOOOOOOOOOOOOOO  ",
"OOOOOOOOOOOOOOO  +++&&&&&&&+&&&&&&&&&&&&&&&&&&+++   OOOOOOOOOOOOOOO  ",
"OOOOOOOOOOOOOOO  +++&&&&$&$&&&&&&&&&&&&&&&&&&&+++   OOOOOOOOOOOOOOO  ",
"OOOOOOOOOOOOOOO  +++&&&&$&&&&&&&&&&&&&&&&+&&&&+++   OOOOOOOOOOOOOOO  ",
"OOOOOOOOOOOOOOO  +++&&&&&&&&&&&&&&&&&&&&&&&&&&+++   OOOOOOOOOOOOOOO  ",
"OOOOOOOOOOOOOOO  +++&&&&&&&&&&&&&&&&&&&&&&&&&&+++   OOOOOOOOOOOOOOO  ",
"OOOOOOOOOOOOOOO  +++&&&&&&&&&&&&&&&$$$&&&&&&&&+++   OOOOOOOOOOOOOOO  ",
"OOOOOOOOOOOOOOO  +++&&&$&&&&&&&&&&&&&&&&&&&&&&+++   OOOOOOOOOOOOOOO  ",
"OOOOOOOOOOOOOOO  +++&&&&&&&&&&&&&&&&&&&&&&&&&&+++   OOOOOOOOOOOOOOO  ",
"OOOOOOOOOOOOOOO  +++&&&&&&&&&&&&&&&&&&&&&&&&&&+++   OOOOOOOOOOOOOOO  ",
"OOOOOOOOOOOOOOO  +++&&&&&&&&&$&&&&&&&&&&&&&&&&+++   OOOOOOOOOOOOOOO  ",
"OOOOOOOOOOOOOOO  +++&&&&&&&&&&&&&&&&&&&&&&&&&&+++   OOOOOOOOOOOOOOO  ",
"OOOOOOOOOOOOOOO  +++&&&&$&&&&&&&&&&&&&&&&&&&&&+++   OOOOOOOOOOOOOOO  ",
"OOOOOOOOOOOOOOO  +++&&&&&+&&&&&&&&&&&&&&&&&&&&+++   OOOOOOOOOOOOOOO  ",
"OOOOOOOOOOOOOOO  +++&&&&&&&&&&&&&&&&&&&&&&&&&&+++   OOOOOOOOOOOOOOO  ",
"OOOOOOOOOOOOOOO  +++&&&&&&&&&&&&&&&&&&&&&&&&&&+++   OOOOOOOOOOOOOOO  ",
"OOOOOOOOOOOOOOO  +++&&&&$&&&&&&&&&&+&&&&$&$&&&+++   OOOOOOOOOOOOOOO  ",
"OOOOOOOOOOOOOOO  +++&&&&$&&&&&&&&&&&&&&&&&&&&&+++   OOOOOOOOOOOOOOO  ",
"OOOOOOOOOOOOOOO  +++&&&&$&&&&&&&&&&&&&&&&&&&&&+++   OOOOOOOOOOOOOOO  ",
"OOOOOOOOOOOOOOO  +++&&&&&&&&&&&&&$&&&&&&&&&&&&+++   OOOOOOOOOOOOOOO  ",
"OOOOOOOOOOOOOOO  +++&&&&&&&&&&&&&&&&&&&&&&&&&&+++   OOOOOOOOOOOOOOO  ",
"OOOOOOOOOOOOOOO  +++&&&&&&&&&&&&&+&&&&&&&&&&&&+++   OOOOOOOOOOOOOOO  ",
"OOOOOOOOOOOOOOO  +++&&&&&&&&&&&&&&&&&&&&&&&&&&+++   OOOOOOOOOOOOOOO  ",
"OOOOOOOOOOOOOOO  +++&&&&&+&&&&&&&&&&&&&&&&&&&&+++   OOOOOOOOOOOOOOO  ",
"OOOOOOOOOOOOOOO  +++&&&&&&&&&&&&&&&&&&&&&&&&&&+++   OOOOOOOOOOOOOOO  ",
"OOOOOOOOOOOOOOO  +++&&&&&&&&&&&&&&&&&&&&&&&&&&+++   OOOOOOOOOOOOOOO  ",
"OOOOOOOOOOOOOOO  +++&&&&&&&&&&&&&&&&&&&&$&&&&&+++   OOOOOOOOOOOOOOO  ",
"OOOOOOOOOOOOOOO  +++&&&&&&&&&&&&&&&&&&&&$&&&&&+++   OOOOOOOOOOOOOOO  ",
"OOOOOOOOOOOOOOO  +++&&&&&&&&&&&&&&&&&&&&&&&&&&+++   OOOOOOOOOOOOOOO  ",
"OOOOOOOOOOOOOOO  +++&&&&&&&&&&&&&&&&&&&&&&&$&&+++   OOOOOOOOOOOOOOO  ",
"OOOOOOOOOOOOOOO  +++&&&&&&&&&&&&&&&&&&&&&&&$&&+++   OOOOOOOOOOOOOOO  ",
"OOOOOOOOOOOOOOO  +++&&&&&&&&&&&&&&&&&&&&&&&&&&+++   OOOOOOOOOOOOOOO  ",
"OOOOOOOOOOOOOOO  +++&&&&&&&&&         &&&&&&&&+++   OOOOOOOOOOOOOOO  ",
"OOOOOOOOOOOOOOO  +++&&&&&&&&& ....... &&&&&&&&+++   OOOOOOOOOOOOOOO  ",
"OOOOOOOOOOOOOOO  +++&&&$&&&&&       . &&&&&&&&+++   OOOOOOOOOOOOOOO  ",
"OOOOOOOOOOOOOOO  +++&&&&&&&&&  .... . &&&&&&&&+++   OOOOOOOOOOOOOOO  ",
"OOOOOOOOOOOOOOO  +++&&&&&&&&&  oooo . &&&&&&&&+++   OOOOOOOOOOOOOOO  ",
"OOOOOOOOOOOOOOO  +++&&&&&&&&&  oooo . &&&+&&&&+++   OOOOOOOOOOOOOOO  ",
"OOOOOOOOOOOOOOO  +++&&&&&&&&&  @@@@ . &&&&&&&&+++   OOOOOOOOOOOOOOO  ",
"OOOOOOOOOOOOOOO  +++&&&&&&&&&  @@@@ . &&&&$&&&+++   OOOOOOOOOOOOOOO  ",
"OOOOOOOOOOOOOOO  +++&&&&&&&&&  **** . &&&&&&&&+++   OOOOOOOOOOOOOOO  ",
"OOOOOOOOOOOOOOO  +++&&&&&&&&&  **** . &&&&&&&&+++   OOOOOOOOOOOOOOO  ",
"OOOOOOOOOOOOOOO  +++&&&&&&&&&  ==== . &&&&&&&&+++   OOOOOOOOOOOOOOO  ",
"OOOOOOOOOOOOOOO  +++&&&&&&&&&  ==== . &&&&&&&&+++   OOOOOOOOOOOOOOO  ",
"OOOOOOOOOOOOOOO  +++&$+&&&&&&  ==== . &&&$$&&&+++   OOOOOOOOOOOOOOO  ",
"OOOOOOOOOOOOOOO  +++&&&&&&&&&  ==== . &&&&&&&&+++   OOOOOOOOOOOOOOO  ",
"OOOOOOOOOOOOOOO  +++&&&&&&&&&  ==== . &&&&&&&&+++   OOOOOOOOOOOOOOO  ",
"OOOOOOOOOOOOOOO  +++&&&&&&&&&  ==== . &&&&&&&&+++   OOOOOOOOOOOOOOO  ",
"OOOOOOOOOOOOOOO  +++&&&&&&&&&  ==== . &&&&&&&&+++   OOOOOOOOOOOOOOO  ",
"OOOOOOOOOOOOOOO  +++&&&&&&&&&  ==== . &&&&&&&&+++   OOOOOOOOOOOOOOO  ",
"OOOOOOOOOOOOOOO  +++&&&&&&&&&  ==== . &&&&&&&&+++   OOOOOOOOOOOOOOO  ",
"OOOOOOOOOOOOOOO  +++&&&&&&&&&  ==== . &&&&&&&&+++   OOOOOOOOOOOOOOO  ",
"OOOOOOOOOOOOOOO  +++&&&&&&&&&  ==== . &&&&&&&&+++   OOOOOOOOOOOOOOO  ",
"OOOOOOOOOOOOOOO  +++&&&&&&&&&  ==== . &&&&&&&&+++   OOOOOOOOOOOOOOO  ",
"OOOOOOOOOOOOOOO  +++&&&&&&&&&  ==== . &&&&&&&&+++   OOOOOOOOOOOOOOO  ",
"OOOOOOOOOOOOOOO  +++&&&&&&&&&  ==== . &&&&&&&&+++   OOOOOOOOOOOOOOO  ",
"OOOOOOOOOOOOOOO  +++&&&&&&&&&  ==== . &&&&&&&&+++   OOOOOOOOOOOOOOO  ",
"OOOOOOOOOOOOOOO  +++&&&&&&&&&  ==== . &&&&&&&&+++   OOOOOOOOOOOOOOO  ",
"OOOOOOOOOOOOOOO  +++&&&&&&&&&  ==== . &&&&&&&&+++   OOOOOOOOOOOOOOO  ",
"OOOOOOOOOOOOOOO  +++&&&&&&&&&  ==== . &&&&&&&&+++   OOOOOOOOOOOOOOO  ",
"OOOOOOOOOOOOOOO  +++&&&&&&&&&  ==== . &&&&&&&&+++   OOOOOOOOOOOOOOO  ",
"OOOOOOOOOOOOOOO  +++&&&&&&&&&  ==== . &&&&&&&&+++   OOOOOOOOOOOOOOO  ",
"OOOOOOOOOOOOOOO  +++&&&&&&&&&  ==== . &&&&&&&&+++   OOOOOOOOOOOOOOO  ",
"OOOOOOOOOOOOOOO  +++&&&&&&&&&  ==== . &&&&&&&&+++   OOOOOOOOOOOOOOO  ",
"OOOOOOOOOOOOOOO  +++&&&&&&&&&  ==== . &&&&&&&&+++   OOOOOOOOOOOOOOO  ",
"OOOOOOOOOOOOOOO  +++&&&&&&&&&  ==== . &&&&&&&&+++   OOOOOOOOOOOOOOO  ",
"OOOOOOOOOOOOOOO  +++&&&&&&&&&  ==== . &&&&&&&&+++   OOOOOOOOOOOOOOO  ",
"OOOOOOOOOOOOOOO  +++&&&&&&&&&  ==== . &&&&&&&&+++   OOOOOOOOOOOOOOO  ",
"OOOOOOOOOOOOOOO  +++&&&&&&&&&  ==== . &&&&&&&&+++   OOOOOOOOOOOOOOO  ",
"OOOOOOOOOOOOOOO  +++&&&&&&&&&  ==== . &&&&&&&&+++   OOOOOOOOOOOOOOO  ",
"OOOOOOOOOOOOOOO  +++&&&&&&&&&  ==== . &&&&&&&&+++   OOOOOOOOOOOOOOO  ",
"OOOOOOOOOOOOOOO  +++&&&&&&&&&  ==== . &&&&&&&&+++   OOOOOOOOOOOOOOO  ",
"OOOOOOOOOOOOOOO  +++&&&&&&&&&  ==== . &&&&&&&&+++   OOOOOOOOOOOOOOO  ",
"OOOOOOOOOOOOOOO  +++&&&&&&&&&  ==== . &&&&&&&&+++   OOOOOOOOOOOOOOO  ",
"OOOOOOOOOOOOOOO  +++&&&&&&&&&  ==== . &&&&&&&&+++   OOOOOOOOOOOOOOO  ",
"OOOOOOOOOOOOOOO  +++&&&&&&&&&  ==== . &&&&&&&&+++   OOOOOOOOOOOOOOO  ",
"OOOOOOOOOOOOOOO  +++&&&&&&&&&  ==== . &&&&&&&&+++   OOOOOOOOOOOOOOO  ",
"OOOOOOOOOOOOOOO  +++&&&&&&&&&  ==== . &&&&&&&&+++   OOOOOOOOOOOOOOO  ",
"OOOOOOOOOOOOOOO  +++&&&&&&&$&  ==== . &&&&&&&&+++   OOOOOOOOOOOOOOO  ",
"OOOOOOOOOOOOOOO  +++&&&&&&&&&  ==== . &&&&&&&&+++   OOOOOOOOOOOOOOO  ",
"OOOOOOOOOOOOOOO  +++&&&&&&&&&  ==== . &&&&&&&&+++   OOOOOOOOOOOOOOO  ",
"OOOOOOOOOOOOOOO  +++&&&&&&&&&  ==== . &&&&$&&&+++   OOOOOOOOOOOOOOO  ",
"OOOOOOOOOOOOOOO  +++&&$&&&&&&  ==== . &&&&&&&&+++   OOOOOOOOOOOOOOO  ",
"OOOOOOOOOOOOOOO  +++&&&&&&&&&  **** . &&&&&&&&+++   OOOOOOOOOOOOOOO  ",
"OOOOOOOOOOOOOOO  +++&&&&&&&&&  **** . &&&&&&&&+++   OOOOOOOOOOOOOOO  ",
"OOOOOOOOOOOOOOO  +++&&&&&&&&&  @@@@ . &&&&&&&&+++   OOOOOOOOOOOOOOO  ",
"OOOOOOOOOOOOOOO                                     OOOOOOOOOOOOOOO  ",
"OOOOOOOOOOOOOOO                                      OOOOOOOOOOOOOO  ",
"OOOOOOOOOOOOO  **;;;;;;;;;;;;;;;;;;;;;;;;;;;;;;;;;*   OOOOOOOOOOOOO  ",
"OOOOOOOOOOOO  *;;;;;;;;;;;;;;;;;;;;;;;;;;;;;;;;;;;;*   OOOOOOOOOOOO  ",
"OOOOOOOOOOO  *=;=================================;;;=o  OOOOOOOOOOO  ",
"OOOOOOOOOOO o*=;;;;;;;;;;;;;;;;;;;;;;;;;;;;;;;;;;;;;=*  OOOOOOOOOOO  ",
"OOOOOOOOOOO  *=;==================================;;=o  OOOOOOOOOOO  ",
"OOOOOOOOOOOO  *;;;;;;;;;;;;;;;;;;;;;;;;;;;;;;;;;;;;*   OOOOOOOOOOOO  ",
"OOOOOOOOOOOOO  **;;=============================;;*   OOOOOOOOOOOOO  ",
"OOOOOOOOOOOOOOO                                      OOOOOOOOOOOOOO  ",
"OOOOOOOOOOOOOOO                                      OOOOOOOOOOOOOO  ",
"OOOOOOOOOOOOOOO  +++&&&&&&&&&&&&&&&&&&&&&&&&&&+++   OOOOOOOOOOOOOOO  ",
"OOOOOOOOOOOOOOO  +++&&&&&&&&&&&&&&&&&&&&&&&&&&+++   OOOOOOOOOOOOOOO  ",
"OOOOOOOOOOOOOOO  +++&&&&&&&&&&&&&&&&&&&&&&&&&&+++   OOOOOOOOOOOOOOO  ",
"OOOOOOOOOOOOOOO  +++&&&&&&&&&&&&&&&&&&&&&&&&&&+++   OOOOOOOOOOOOOOO  ",
"OOOOOOOOOOOOOOO  +++&&&&$&&&&&&&&&&&&&&&&&&&&&+++   OOOOOOOOOOOOOOO  ",
"OOOOOOOOOOOOOOO  +++&&&&&&&&&&&&&&&&&&&&&&&&&&+++   OOOOOOOOOOOOOOO  ",
"OOOOOOOOOOOOOOO  +++&&&&&&&&&&&&&&&+&&&&&&&&&&+++   OOOOOOOOOOOOOOO  ",
"OOOOOOOOOOOOOOO  +++&&&&&&&&&&&&&&&&$&&&&&&&&&+++   OOOOOOOOOOOOOOO  ",
"OOOOOOOOOOOOOOO  +++&&&&&&&&&&&&&&&&&&&&&&&&&&+++   OOOOOOOOOOOOOOO  ",
"OOOOOOOOOOOOOOO  +++&&&&&&&&&&&&&&&&&&&&&&&&&&+++   OOOOOOOOOOOOOOO  ",
"OOOOOOOOOOOOOOO  +++&&&&&&&&&&&&&&&&&&&&&&&&&&+++   OOOOOOOOOOOOOOO  ",
"OOOOOOOOOOOOOOO  +++&&&&&&&&&$&&&&&&&&&&&&&&&&+++   OOOOOOOOOOOOOOO  ",
"OOOOOOOOOOOOOOO  +++&&&&&&&&&&&&&&&&&&&&&&&&&&+++   OOOOOOOOOOOOOOO  ",
"OOOOOOOOOOOOOOO  +++&&&&&&&&&&&&&&&&&&&&&&&&&&+++   OOOOOOOOOOOOOOO  ",
"OOOOOOOOOOOOOOO  +++&&&+&&&&&&&&&&&&&&&&&&&&&&+++   OOOOOOOOOOOOOOO  ",
"OOOOOOOOOOOOOOO  +++&&&&&&&&&&&&&&&&&&&&&+&&&&+++   OOOOOOOOOOOOOOO  ",
"OOOOOOOOOOOOOOO  +++&&&&&&&&&&&&&&&&&&&&&$&&&&+++   OOOOOOOOOOOOOOO  ",
"OOOOOOOOOOOOOOO  +++&&&&&&&&&&&&&&&&&&&&&&&&&&+++   OOOOOOOOOOOOOOO  ",
"OOOOOOOOOOOOOOO  +++&&&&&&&&&&&&&&&&&&&&&&&&&&+++   OOOOOOOOOOOOOOO  ",
"OOOOOOOOOOOOOOO  ++++&&&&&&&&&&&&&&&&&&&&&&&&++++   OOOOOOOOOOOOOOO  ",
"OOOOOOOOOOOOOOO  +++++++++++++++++++++++++++++++   OOOOOOOOOOOOOOOO  ",
"OOOOOOOOOOOOOOO   ++++++++++++++++++++++++++++++   OOOOOOOOOOOOOOOO  ",
"OOOOOOOOOOOOOOOO   +++++++++++++++++++++++++++     OOOOOOOOOOOOOOOO  ",
"OOOOOOOOOOOOOOOOO                                 OOOOOOOOOOOOOOOOO  ",
"OOOOOOOOOOOOOOOOOO                               OOOOOOOOOOOOOOOOOO  ",
"OOOOOOOOOOOOOOOOOOOO                            OOOOOOOOOOOOOOOOOOO  ",
"OOOOOOOOOOOOOOOOOOOOOOOOOOOOOOOOOOOOOOOOOOOOOOOOOOOOOOOOOOOOOOOOOOO  ",
"OOOOOOOOOOOOOOOOOOOOOOOOOOOOOOOOOOOOOOOOOOOOOOOOOOOOOOOOOOOOOOOOOOO  ",
"OOOOOOOOOOOOOOOOOOOOOOOOOOOOOOOOOOOOOOOOOOOOOOOOOOOOOOOOOOOOOOOOOOO  ",
"OOOOOOOOOOOOOOOOOOOOOOOOOOOOOOOOOOOOOOOOOOOOOOOOOOOOOOOOOOOOOOOOOOO  ",
"OOOOOOOOOOOOOOOOOOOOOOOOOOOOOOOOOOOOOOOOOOOOOOOOOOOOOOOOOOOOOOOOOOO  ",
"OOOOOOOOOOOOOOOOOOOOOOOOOOOOOOOOOOOOOOOOOOOOOOOOOOOOOOOOOOOOOOOOOOO  ",
"OOOOOOOOOOOOOOOOOOOOOOOOOOOOOOOOOOOOOOOOOOOOOOOOOOOOOOOOOOOOOOOOOOO  ",
"OOOOOOOOOOOOOOOOOOOOOOOOOOOOOOOOOOOOOOOOOOOOOOOOOOOOOOOOOOOOOOOOOOO  ",
" OOOOOOOOOOOOOOOOOOOOOOOOOOOOOOOOOOOOOOOOOOOOOOOOOOOOOOOOOOOOOOOOOO  "
};
