/* XPM */
static char *_0295_0529f4b77926a3f99d1c6bdbcb9f15f388ebe104a2a35116fd12c8a5f57cca93[] = {
/* columns rows colors chars-per-pixel */
"69 225 17 1 ",
"  c black",
". c gray7",
"X c #211F1F",
"o c #222232",
"O c #292930",
"+ c #343131",
"@ c #373739",
"# c #37373F",
"$ c #662814",
"% c #0A5511",
"& c #3C3C44",
"* c #535050",
"= c #6E6969",
"- c #A43917",
"; c #088213",
": c #AFA6A6",
"> c #D7CACA",
/* pixels */
"@@@@@@@@@@@@@@@@@@@@@@@@@@@@@@         @@@@@@@@@@@@@@@@@@@@@@@@@@@@@@",
"@@@@@@@@@@@@@@@@@@@@@@@@@@    $$$$$$$$$    @@@@@@@@@@@@@@@@@@@@@@@@@@",
"@@@@@@@@@@@@@@@@@@@@@@@@    $$$$$$$$$$$$$$$  @@@@@@@@@@@@@@@@@@@@@@@@",
"@@@@@@@@@@@@@@@@@@@@@@     $$$$$$$$$$$$$$$$$   @@@@@@@@@@@@@@@@@@@@@@",
"@@@@@@@@@@@@@@@@@@@@  $$  $$$$         $$$$      @@@@@@@@@@@@@@@@@@@@",
"@@@@@@@@@@@@@@@@@@@ $$$ -                   - $$$ @@@@@@@@@@@@@@@@@@@",
"@@@@@@@@@@@@@@@@@@ $$$$ -      %%%%%%%      - $$$$ @@@@@@@@@@@@@@@@@@",
"@@@@@@@@@@@@@@@@@ $$$$  - %%%%%%;;;;;%%%%%% -  $$$$ @@@@@@@@@@@@@@@@@",
"@@@@@@@@@@@@@@@@ $$$    - ;;;;;;;;;;;;;;;;; -    $$$ @@@@@@@@@@@@@@@@",
"@@@@@@@@@@@@@@@ $$$   % - ;;;;;;;;;;;;;;;;; - %   $$$ @@@@@@@@@@@@@@@",
"@@@@@@@@@@@@@@ $$$   %; - ;;;;;;;;;;;;;;;;; - ;%   $$$ @@@@@@@@@@@@@@",
"@@@@@@@@@@@@@ $$$   %;; - ;;;;;;;;;;;;;;;;; - ;;%   $$$ @@@@@@@@@@@@@",
"@@@@@@@@@@@@@ $$   %;;; - ;;;;;;;;;;;>;>;;; - ;;;%   $$ @@@@@@@@@@@@@",
"@@@@@@@@@@@@ $$   %;;;; - ;;;;;;;;;;;;;;>;; - ;;;;%   $$ @@@@@@@@@@@@",
"@@@@@@@@@@@@ $   %;;;;; - ;;;;;;;;;;;;;;;>; - ;;;;;%   $ @@@@@@@@@@@@",
"@@@@@@@@@@@ $$  %;;;;;; - ;;;;;;;;;;;;;;;;; - ;;;;;;%  $$ @@@@@@@@@@@",
"@@@@@@@@@@@ $   ;;;;;;; - ;;;;;;;;;;;>;;;;; - >;;;;;%%  $ @@@@@@@@@@@",
"@@@@@@@@@@ $$  %;;;;;; - ;;;;;;;;;;;;;;;;; - ;;;;;;;;%  $$ @@@@@@@@@@",
"@@@@@@@@@@ $  %;;;;;;; - ;;;;;;;;;;;;;;;;; - ;;>;;;;;%   $ @@@@@@@@@@",
"@@@@@@@@@@ $  %;;;;;;; - ;;;;;;;;;;;;;;;;; - ;;;>;;;;%   $ @@@@@@@@@@",
"@@@@@@@@@@ $  %;;;;;;; - ;;;;;;;;;;;;;;;;; - ;;;;;;;;%%  $ @@@@@@@@@@",
"@@@@@@@@@ $  %%;;;;;;; - ;;;;;;;;;;;;;;;;; - ;;;>;;;;%%   $ @@@@@@@@@",
"@@@@@@@@@ $  %%;;;;;;; - ;;;;;;;;;;;;;;;;; - ;;;;;;;;%%   $ @@@@@@@@@",
"@@@@@@@@@ $  %%;;;     -                   -     ;;;;%%   $ @@@@@@@@@",
"@@@@@@@@@         -------------------------------           @@@@@@@@@",
"@@@@@@@@@ --------     -                   -      --------- @@@@@@@@@",
"@@@@@@@@@         ;;;; - ;;;;;;;;;;;;;;;;; - ;;;;;          @@@@@@@@@",
"@@@@@@@@@ $   %%;;;;;; - ;;;;;;;;;;;;;;;;; - ;;;;;;;;%%   $  @@@@@@@@",
"@@@@@@@@@ $   %%;;;;;; - ;;;;;;;;;;;;;;;;; - ;;;;;;;;%%   $  @@@@@@@@",
"@@@@@@@@@ $   %%;;;;;; - ;;;;;;;;;;;;;;;;; - ;;;;;;;%%    $  @@@@@@@@",
"@@@@@@@@@@ $   %%;;;;; - ;;;;;;;;;;;;;;;;; - ;;;;;;;%%   $   @@@@@@@@",
"@@@@@@@@@@ $   %%%;;;; - ;;;;;;;;;;;;;;;;; - ;;;;;;;%%   $   @@@@@@@@",
"@@@@@@@@@@ $    %%;;;; - ;;;;;;;;;;;;;;;;; - ;;;;;;;%%   $   @@@@@@@@",
"@@@@@@@@@@ $$   %%;;;; - ;;;;;;;;;;;;;;;;; - ;;;;;;%%   $$   @@@@@@@@",
"@@@@@@@@@@  $   %%%;;; - ;;;;;;;;;;;;;;;;; - ;;;;;%%%   $    @@@@@@@@",
"@@@@@@@@@@  $$   %%%;;; - ;;;;;;;;;;;;;;;;; - ;;;%%%   $$   @@@@@@@@@",
"@@@@@@@@@@@  $    %%%;; - ;;;;;;;;;;;;;;;;; - ;;%%%    $    @@@@@@@@@",
"@@@@@@@@@@@  $$    %%%; - ;;;;;;;;;;;;;;;;; - ;%%%    $$    @@@@@@@@@",
"@@@@@@@@@@@   $$    %%% - ;;;;;;;;;;;;;;;;; - %%%    $$    @@@@@@@@@@",
"@@@@@@@@@@@@  $$$    %% - ;;;;;;;;;;;;;;;;; - %%    $$$    @@@@@@@@@@",
"@@@@@@@@@@@@   $$$    % - ;;;;;;;;;;;;;;;;; -      $$$    @@@@@@@@@@@",
"@@@@@@@@@@@@@   $$$     - %%%%%%;;;;;%%%%%% -     $$$    @@@@@@@@@@@@",
"@@@@@@@@@@@@@    $$$    - %%%%%%%%%%%%%%%%% -    $$$     @@@@@@@@@@@@",
"@@@@@@@@@@@@@@    $$$$  -      %%%%%%%      -  $$$$     @@@@@@@@@@@@@",
"@@@@@@@@@@@@@@     $$$$ -                   - $$$$     @@@@@@@@@@@@@@",
"@@@@@@@@@@@@@@@     $$$$ -                  -- $$     @@@@@@@@@@@@@@@",
"@@@@@@@@@@@@@@@@      $$ - $$$         $$$$$ -       @@@@@@@@@@@@@@@@",
"@@@@@@@@@@@@@@@@@       $  $$$$$$$$$$$$$$$$$$       @@@@@@@@@@@@@@@@@",
"@@@@@@@@@@@@@@@@@@        $ $$$$$$$$$$$$$$$        @@@@@@@@@@@@@@@@@@",
"@@@@@@@@@@@@@@@@@@@@          $$$$$$$$$          @@@@@@@@@@@@@@@@@@@@",
"@@@@@@@@@@@@@@@@@@@@@                           @@@@@@@@@@@@@@@@@@@@@",
"@@@@@@@@@@@@@@@@@@@@@@@                       @@@@@@@@@@@@@@@@@@@@@@@",
"@@@@@@@@@@@@@@@@@@@@@@@@@@                 @@@@@@@@@@@@@@@@@@@@@@@@@@",
"@@@@@@@@@@@@@@@@@@@@@@@@@@@@@           @@@@@@@@@@@@@@@@@@@@@@@@@@@@@",
"@@@@@@@@@@@@@@@@@@@@@@@@@@@@@@@@@@@@@@@@@@@@@@@@@@@@@@@@@@@@@@@@@@@@@",
"@@@@@@@@@@@@@@@@@@@@@@@@@@@@@@@@@@@@@@@@@@@@@@@@@@@@@@@@@@@@@@@@@@@@@",
"@@@@@@@@@@@@@@@@@@@@@@@@@@@@@@@@@@@@@@@@@@@@@@@@@@@@@@@@@@@@@@@@@@@@@",
"@@@@@@@@@@@@@@@@@@@@@@@@@@@@@@@@@@@@@@@@@@@@@@@@@@@@@@@@@@@@@@@@@@@@@",
"@@@@@@@@@@@@@@@@@@@@@@@@@@@@@@@@@@@@@@@@@@@@@@@@@@@@@@@@@@@@@@@@@@@@@",
"@@@@@@@@@@@@@@@@@@@@@@@@@@@@@@@@@@@@@@@@@@@@@@@@@@@@@@@@@@@@@@@@@@@@@",
"@@@@@@@@@@@@@@@@@@@@@@@@@@@@@@@@@@@@@@@@@@@@@@@@@@@@@@@@@@@@@@@@@@@@@",
"@@@@@@@@@@@@@@@@@@@@@@@@@@@@@@@@@@@@@@@@@@@@@@@@@@@@@@@@@@@@@@@@@@@@@",
"@@@@@@@@@@@@@@@@@@@@@@@@@@@@@@@@@@@@@@@@@@@@@@@@@@@@@@@@@@@@@@@@@@@@@",
"@@@@@@@@@@@@@@@@@@@@@@@@@@@@@@@@@@@@@@@@@@@@@@@@@@@@@@@@@@@@@@@@@@@@@",
"@@@@@@@@@@@@@@@@@@@@@@@@@@@@@@@@@@@@@@@@@@@@@@@@@@@@@@@@@@@@@@@@@@@@@",
"@@@@@@@@@@@@@@@@@@@@@@@@@@@@@@@@@@@@@@@@@@@@@@@@@@@@@@@@@@@@@@@@@@@@@",
"@@@@@@@@@@@@@@@@@@@@@@@@@@@@@@@@@@@@@@@@@@@@@@@@@@@@@@@@@@@@@@@@@@@@@",
"@@@@@@@@@@@@@@@@@@@@@@@@@@@@@@@@@@@@@@@@@@@@@@@@@@@@@@@@@@@@@@@@@@@@@",
"@@@@@@@@@@@@@@@@@@@@@@@@@@@@@@@@@@@@@@@@@@@@@@@@@@@@@@@@@@@@@@@@@@@@@",
"@@@@@@@@@@@@@@@@@@@@@@@@@@@@@@@@@@@@@@@@@@@@@@@@@@@@@@@@@@@@@@@@@@@@@",
"@@@@@@@@@@@@@@@@@@@@@@@@@@@@@@@@@@@@@@@@@@@@@@@@@@@@@@@@@@@@@@@@@@@@@",
"@@@@@@@@@@@@@@@@@@@@@@@@@@@@@@@@@@@@@@@@@@@@@@@@@@@@@@@@@@@@@@@@@@@@@",
"                                                                     ",
"                                                                     ",
"OOOOOOOOOOOOOOOOOOOOOOOOOOOOOOOOOOOOOOOOOOOOOOOOOOOOOOOOOOOOOOOOOOOOO",
"                                                                     ",
"                                                                     ",
" oooooooooooooooooooooooooooooooooooooooooooooooooooooooooooooooooo  ",
"ooooooooooooooooooooooooooooooooooooooooooooooooooooooooooooooooooo  ",
"ooooooooooooooooooooooooooooooooooooooooooooooooooooooooooooooooooo  ",
"ooooooooooooooooooooooooooooooooooooooooooooooooooooooooooooooooooo  ",
"ooooooooooooooooooooooooooooooooooooooooooooooooooooooooooooooooooo  ",
"ooooooooooooooooooooooooooooooooooooooooooooooooooooooooooooooooooo  ",
"ooooooooooooooooooooooooooooooooooooooooooooooooooooooooooooooooooo  ",
"ooooooooooooooooooooooooooooooooooooooooooooooooooooooooooooooooooo  ",
"oooooooooooooooooooo                          ooooooooooooooooooooo  ",
"oooooooooooooooooo                              ooooooooooooooooooo  ",
"ooooooooooooooooo    OOOOOOOOOOOOOOOOOOOOOOOOO   oooooooooooooooooo  ",
"oooooooooooooooo   OOOOOOOOOOOOOOOOOOOOOOOOOOOO   ooooooooooooooooo  ",
"oooooooooooooooo  OOOOOOOOOOOOOOOOOOOOOOOOOOOOOO   oooooooooooooooo  ",
"ooooooooooooooo   OOO&&&&&&&&&&&&&&&&&&&&&&&&OOOO  oooooooooooooooo  ",
"ooooooooooooooo  OOOO&&&&&&&&&&&&&&&&&&&&&&&&&OOO   ooooooooooooooo  ",
"ooooooooooooooo  OOO&&&&&&&&&&&&&&&&&&&&&&&&&&OOO   ooooooooooooooo  ",
"ooooooooooooooo  OOO&&&&&&&&&&&&&&&&&&&&&&&&&&OOO   ooooooooooooooo  ",
"ooooooooooooooo  OOO&&&&&&&O&&&&&&&&&&&&&&&&&&OOO   ooooooooooooooo  ",
"ooooooooooooooo  OOO&&&&#&#&&&&&&&&&&&&&&&&&&&OOO   ooooooooooooooo  ",
"ooooooooooooooo  OOO&&&&#&&&&&&&&&&&&&&&&O&&&&OOO   ooooooooooooooo  ",
"ooooooooooooooo  OOO&&&&&&&&&&&&&&&&&&&&&&&&&&OOO   ooooooooooooooo  ",
"ooooooooooooooo  OOO&&&&&&&&&&&&&&&&&&&&&&&&&&OOO   ooooooooooooooo  ",
"ooooooooooooooo  OOO&&&&&&&&&&&&&&&###&&&&&&&&OOO   ooooooooooooooo  ",
"ooooooooooooooo  OOO&&&#&&&&&&&&&&&&&&&&&&&&&&OOO   ooooooooooooooo  ",
"ooooooooooooooo  OOO&&&&&&&&&&&&&&&&&&&&&&&&&&OOO   ooooooooooooooo  ",
"ooooooooooooooo  OOO&&&&&&&&&&&&&&&&&&&&&&&&&&OOO   ooooooooooooooo  ",
"ooooooooooooooo  OOO&&&&&&&&&#&&&&&&&&&&&&&&&&OOO   ooooooooooooooo  ",
"ooooooooooooooo  OOO&&&&&&&&&&&&&&&&&&&&&&&&&&OOO   ooooooooooooooo  ",
"ooooooooooooooo  OOO&&&&#&&&&&&&&&&&&&&&&&&&&&OOO   ooooooooooooooo  ",
"ooooooooooooooo  OOO&&&&&O&&&&&&&&&&&&&&&&&&&&OOO   ooooooooooooooo  ",
"ooooooooooooooo  OOO&&&&&&&&&&&&&&&&&&&&&&&&&&OOO   ooooooooooooooo  ",
"ooooooooooooooo  OOO&&&&&&&&&&&&&&&&&&&&&&&&&&OOO   ooooooooooooooo  ",
"ooooooooooooooo  OOO&&&&#&&&&&&&&&&O&&&&#&#&&&OOO   ooooooooooooooo  ",
"ooooooooooooooo  OOO&&&&#&&&&&&&&&&&&&&&&&&&&&OOO   ooooooooooooooo  ",
"ooooooooooooooo  OOO&&&&#&&&&&&&&&&&&&&&&&&&&&OOO   ooooooooooooooo  ",
"ooooooooooooooo  OOO&&&&&&&&&&&&&#&&&&&&&&&&&&OOO   ooooooooooooooo  ",
"ooooooooooooooo  OOO&&&&&&&&&&&&&&&&&&&&&&&&&&OOO   ooooooooooooooo  ",
"ooooooooooooooo  OOO&&&&&&&&&&&&&O&&&&&&&&&&&&OOO   ooooooooooooooo  ",
"ooooooooooooooo  OOO&&&&&&&&&&&&&&&&&&&&&&&&&&OOO   ooooooooooooooo  ",
"ooooooooooooooo  OOO&&&&&O&&&&&&&&&&&&&&&&&&&&OOO   ooooooooooooooo  ",
"ooooooooooooooo  OOO&&&&&&&&&&&&&&&&&&&&&&&&&&OOO   ooooooooooooooo  ",
"ooooooooooooooo  OOO&&&&&&&&&&&&&&&&&&&&&&&&&&OOO   ooooooooooooooo  ",
"ooooooooooooooo  OOO&&&&&&&&&&&&&&&&&&&&#&&&&&OOO   ooooooooooooooo  ",
"ooooooooooooooo  OOO&&&&&&&&&&&&&&&&&&&&#&&&&&OOO   ooooooooooooooo  ",
"ooooooooooooooo  OOO&&&&&&&&&&&&&&&&&&&&&&&&&&OOO   ooooooooooooooo  ",
"ooooooooooooooo  OOO&&&&&&&&&&&&&&&&&&&&&&&#&&OOO   ooooooooooooooo  ",
"ooooooooooooooo  OOO&&&&&&&&&&&&&&&&&&&&&&&#&&OOO   ooooooooooooooo  ",
"ooooooooooooooo  OOO&&&&&&&&&&&&&&&&&&&&&&&&&&OOO   ooooooooooooooo  ",
"ooooooooooooooo  OOO&&&&&&&&&         &&&&&&&&OOO   ooooooooooooooo  ",
"ooooooooooooooo  OOO&&&&&&&&& ....... &&&&&&&&OOO   ooooooooooooooo  ",
"ooooooooooooooo  OOO&&&#&&&&&       . &&&&&&&&OOO   ooooooooooooooo  ",
"ooooooooooooooo  OOO&&&&&&&&&  .... . &&&&&&&&OOO   ooooooooooooooo  ",
"ooooooooooooooo  OOO&&&&&&&&&  XXXX . &&&&&&&&OOO   ooooooooooooooo  ",
"ooooooooooooooo  OOO&&&&&&&&&  XXXX . &&&O&&&&OOO   ooooooooooooooo  ",
"ooooooooooooooo  OOO&&&&&&&&&  ++++ . &&&&&&&&OOO   ooooooooooooooo  ",
"ooooooooooooooo  OOO&&&&&&&&&  ++++ . &&&&#&&&OOO   ooooooooooooooo  ",
"ooooooooooooooo  OOO&&&&&&&&&  **** . &&&&&&&&OOO   ooooooooooooooo  ",
"ooooooooooooooo  OOO&&&&&&&&&  **** . &&&&&&&&OOO   ooooooooooooooo  ",
"ooooooooooooooo  OOO&&&&&&&&&  ==== . &&&&&&&&OOO   ooooooooooooooo  ",
"ooooooooooooooo  OOO&&&&&&&&&  ==== . &&&&&&&&OOO   ooooooooooooooo  ",
"ooooooooooooooo  OOO&#O&&&&&&  ==== . &&&##&&&OOO   ooooooooooooooo  ",
"ooooooooooooooo  OOO&&&&&&&&&  ==== . &&&&&&&&OOO   ooooooooooooooo  ",
"ooooooooooooooo  OOO&&&&&&&&&  ==== . &&&&&&&&OOO   ooooooooooooooo  ",
"ooooooooooooooo  OOO&&&&&&&&&  ==== . &&&&&&&&OOO   ooooooooooooooo  ",
"ooooooooooooooo  OOO&&&&&&&&&  ==== . &&&&&&&&OOO   ooooooooooooooo  ",
"ooooooooooooooo  OOO&&&&&&&&&  ==== . &&&&&&&&OOO   ooooooooooooooo  ",
"ooooooooooooooo  OOO&&&&&&&&&  ==== . &&&&&&&&OOO   ooooooooooooooo  ",
"ooooooooooooooo  OOO&&&&&&&&&  ==== . &&&&&&&&OOO   ooooooooooooooo  ",
"ooooooooooooooo  OOO&&&&&&&&&  ==== . &&&&&&&&OOO   ooooooooooooooo  ",
"ooooooooooooooo  OOO&&&&&&&&&  ==== . &&&&&&&&OOO   ooooooooooooooo  ",
"ooooooooooooooo  OOO&&&&&&&&&  ==== . &&&&&&&&OOO   ooooooooooooooo  ",
"ooooooooooooooo  OOO&&&&&&&&&  ==== . &&&&&&&&OOO   ooooooooooooooo  ",
"ooooooooooooooo  OOO&&&&&&&&&  ==== . &&&&&&&&OOO   ooooooooooooooo  ",
"ooooooooooooooo  OOO&&&&&&&&&  ==== . &&&&&&&&OOO   ooooooooooooooo  ",
"ooooooooooooooo  OOO&&&&&&&&&  ==== . &&&&&&&&OOO   ooooooooooooooo  ",
"ooooooooooooooo  OOO&&&&&&&&&  ==== . &&&&&&&&OOO   ooooooooooooooo  ",
"ooooooooooooooo  OOO&&&&&&&&&  ==== . &&&&&&&&OOO   ooooooooooooooo  ",
"ooooooooooooooo  OOO&&&&&&&&&  ==== . &&&&&&&&OOO   ooooooooooooooo  ",
"ooooooooooooooo  OOO&&&&&&&&&  ==== . &&&&&&&&OOO   ooooooooooooooo  ",
"ooooooooooooooo  OOO&&&&&&&&&  ==== . &&&&&&&&OOO   ooooooooooooooo  ",
"ooooooooooooooo  OOO&&&&&&&&&  ==== . &&&&&&&&OOO   ooooooooooooooo  ",
"ooooooooooooooo  OOO&&&&&&&&&  ==== . &&&&&&&&OOO   ooooooooooooooo  ",
"ooooooooooooooo  OOO&&&&&&&&&  ==== . &&&&&&&&OOO   ooooooooooooooo  ",
"ooooooooooooooo  OOO&&&&&&&&&  ==== . &&&&&&&&OOO   ooooooooooooooo  ",
"ooooooooooooooo  OOO&&&&&&&&&  ==== . &&&&&&&&OOO   ooooooooooooooo  ",
"ooooooooooooooo  OOO&&&&&&&&&  ==== . &&&&&&&&OOO   ooooooooooooooo  ",
"ooooooooooooooo  OOO&&&&&&&&&  ==== . &&&&&&&&OOO   ooooooooooooooo  ",
"ooooooooooooooo  OOO&&&&&&&&&  ==== . &&&&&&&&OOO   ooooooooooooooo  ",
"ooooooooooooooo  OOO&&&&&&&&&  ==== . &&&&&&&&OOO   ooooooooooooooo  ",
"ooooooooooooooo  OOO&&&&&&&&&  ==== . &&&&&&&&OOO   ooooooooooooooo  ",
"ooooooooooooooo  OOO&&&&&&&&&  ==== . &&&&&&&&OOO   ooooooooooooooo  ",
"ooooooooooooooo  OOO&&&&&&&&&  ==== . &&&&&&&&OOO   ooooooooooooooo  ",
"ooooooooooooooo  OOO&&&&&&&&&  ==== . &&&&&&&&OOO   ooooooooooooooo  ",
"ooooooooooooooo  OOO&&&&&&&&&  ==== . &&&&&&&&OOO   ooooooooooooooo  ",
"ooooooooooooooo  OOO&&&&&&&#&  ==== . &&&&&&&&OOO   ooooooooooooooo  ",
"ooooooooooooooo  OOO&&&&&&&&&  ==== . &&&&&&&&OOO   ooooooooooooooo  ",
"ooooooooooooooo  OOO&&&&&&&&&  ==== . &&&&&&&&OOO   ooooooooooooooo  ",
"ooooooooooooooo  OOO&&&&&&&&&  ==== . &&&&#&&&OOO   ooooooooooooooo  ",
"ooooooooooooooo  OOO&&#&&&&&&  ==== . &&&&&&&&OOO   ooooooooooooooo  ",
"ooooooooooooooo  OOO&&&&&&&&&  **** . &&&&&&&&OOO   ooooooooooooooo  ",
"ooooooooooooooo  OOO&&&&&&&&&  **** . &&&&&&&&OOO   ooooooooooooooo  ",
"ooooooooooooooo  OOO&&&&&&&&&  ++++ . &&&&&&&&OOO   ooooooooooooooo  ",
"ooooooooooooooo                                     ooooooooooooooo  ",
"ooooooooooooooo                                      oooooooooooooo  ",
"ooooooooooooo  **:::::::::::::::::::::::::::::::::*   ooooooooooooo  ",
"oooooooooooo  *::::::::::::::::::::::::::::::::::::*   oooooooooooo  ",
"ooooooooooo  *=:=================================:::=X  ooooooooooo  ",
"ooooooooooo X*=:::::::::::::::::::::::::::::::::::::=*  ooooooooooo  ",
"ooooooooooo  *=:==================================::=X  ooooooooooo  ",
"oooooooooooo  *::::::::::::::::::::::::::::::::::::*   oooooooooooo  ",
"ooooooooooooo  **::=============================::*   ooooooooooooo  ",
"ooooooooooooooo                                      oooooooooooooo  ",
"ooooooooooooooo                                      oooooooooooooo  ",
"ooooooooooooooo  OOO&&&&&&&&&&&&&&&&&&&&&&&&&&OOO   ooooooooooooooo  ",
"ooooooooooooooo  OOO&&&&&&&&&&&&&&&&&&&&&&&&&&OOO   ooooooooooooooo  ",
"ooooooooooooooo  OOO&&&&&&&&&&&&&&&&&&&&&&&&&&OOO   ooooooooooooooo  ",
"ooooooooooooooo  OOO&&&&&&&&&&&&&&&&&&&&&&&&&&OOO   ooooooooooooooo  ",
"ooooooooooooooo  OOO&&&&#&&&&&&&&&&&&&&&&&&&&&OOO   ooooooooooooooo  ",
"ooooooooooooooo  OOO&&&&&&&&&&&&&&&&&&&&&&&&&&OOO   ooooooooooooooo  ",
"ooooooooooooooo  OOO&&&&&&&&&&&&&&&O&&&&&&&&&&OOO   ooooooooooooooo  ",
"ooooooooooooooo  OOO&&&&&&&&&&&&&&&&#&&&&&&&&&OOO   ooooooooooooooo  ",
"ooooooooooooooo  OOO&&&&&&&&&&&&&&&&&&&&&&&&&&OOO   ooooooooooooooo  ",
"ooooooooooooooo  OOO&&&&&&&&&&&&&&&&&&&&&&&&&&OOO   ooooooooooooooo  ",
"ooooooooooooooo  OOO&&&&&&&&&&&&&&&&&&&&&&&&&&OOO   ooooooooooooooo  ",
"ooooooooooooooo  OOO&&&&&&&&&#&&&&&&&&&&&&&&&&OOO   ooooooooooooooo  ",
"ooooooooooooooo  OOO&&&&&&&&&&&&&&&&&&&&&&&&&&OOO   ooooooooooooooo  ",
"ooooooooooooooo  OOO&&&&&&&&&&&&&&&&&&&&&&&&&&OOO   ooooooooooooooo  ",
"ooooooooooooooo  OOO&&&O&&&&&&&&&&&&&&&&&&&&&&OOO   ooooooooooooooo  ",
"ooooooooooooooo  OOO&&&&&&&&&&&&&&&&&&&&&O&&&&OOO   ooooooooooooooo  ",
"ooooooooooooooo  OOO&&&&&&&&&&&&&&&&&&&&&#&&&&OOO   ooooooooooooooo  ",
"ooooooooooooooo  OOO&&&&&&&&&&&&&&&&&&&&&&&&&&OOO   ooooooooooooooo  ",
"ooooooooooooooo  OOO&&&&&&&&&&&&&&&&&&&&&&&&&&OOO   ooooooooooooooo  ",
"ooooooooooooooo  OOOO&&&&&&&&&&&&&&&&&&&&&&&&OOOO   ooooooooooooooo  ",
"ooooooooooooooo  OOOOOOOOOOOOOOOOOOOOOOOOOOOOOOO   oooooooooooooooo  ",
"ooooooooooooooo   OOOOOOOOOOOOOOOOOOOOOOOOOOOOOO   oooooooooooooooo  ",
"oooooooooooooooo   OOOOOOOOOOOOOOOOOOOOOOOOOOO     oooooooooooooooo  ",
"ooooooooooooooooo                                 ooooooooooooooooo  ",
"oooooooooooooooooo                               oooooooooooooooooo  ",
"oooooooooooooooooooo                            ooooooooooooooooooo  ",
"ooooooooooooooooooooooooooooooooooooooooooooooooooooooooooooooooooo  ",
"ooooooooooooooooooooooooooooooooooooooooooooooooooooooooooooooooooo  ",
"ooooooooooooooooooooooooooooooooooooooooooooooooooooooooooooooooooo  ",
"ooooooooooooooooooooooooooooooooooooooooooooooooooooooooooooooooooo  ",
"ooooooooooooooooooooooooooooooooooooooooooooooooooooooooooooooooooo  ",
"ooooooooooooooooooooooooooooooooooooooooooooooooooooooooooooooooooo  ",
"ooooooooooooooooooooooooooooooooooooooooooooooooooooooooooooooooooo  ",
"ooooooooooooooooooooooooooooooooooooooooooooooooooooooooooooooooooo  ",
" oooooooooooooooooooooooooooooooooooooooooooooooooooooooooooooooooo  "
};
