/* XPM */
static char *_e239614eebc4ad5c5cc41279d724c20hRdmJk981nHJ2eqZ[] = {
/* columns rows colors chars-per-pixel */
"24 360 4 1 ",
"  c None",
". c #121211",
"X c #28292C",
"o c #B1B5A9",
/* pixels */
"    Xoo..........ooX    ",
"    Xoo..........ooX    ",
"    Xoo..........ooX    ",
"    Xoo..........ooX    ",
"    Xoo..........ooX    ",
"    Xoo..........ooX    ",
"    Xoo..........ooX    ",
"    Xoo..........ooX    ",
"    Xoo..........ooX    ",
"    Xoo..........ooX    ",
"    Xoo..........ooX    ",
"    Xoo..........ooX    ",
"    Xoo..........ooX    ",
"    Xoo..........ooX    ",
"    Xoo..........ooX    ",
"    Xoo..........ooX    ",
"    Xoo..........ooX    ",
"    Xoo..........ooX    ",
"    Xoo..........ooX    ",
"    Xoo..........ooX    ",
"    Xoo..........ooX    ",
"    Xoo..........ooX    ",
"    Xoo..........ooX    ",
"    Xoo..........ooX    ",
"                        ",
"                        ",
"                        ",
"                        ",
"XXXXXXXXXXXXXXXXXXXXXXXX",
"oooooooooooooooooooooooo",
"oooooooooooooooooooooooo",
"........................",
"........................",
"........................",
"........................",
"........................",
"........................",
"........................",
"........................",
"........................",
"........................",
"oooooooooooooooooooooooo",
"oooooooooooooooooooooooo",
"XXXXXXXXXXXXXXXXXXXXXXXX",
"                        ",
"                        ",
"                        ",
"                        ",
"    Xoo..........ooX    ",
"    Xoo..........ooX    ",
"    Xoo..........ooX    ",
"    Xoo..........ooX    ",
"XXXXXoo..........ooXXXXX",
"ooooooo..........ooooooo",
"ooooooo..........ooooooo",
"........................",
"........................",
"........................",
"........................",
"........................",
"........................",
"........................",
"........................",
"........................",
"........................",
"ooooooo..........ooooooo",
"ooooooo..........ooooooo",
"XXXXXoo..........ooXXXXX",
"    Xoo..........ooX    ",
"    Xoo..........ooX    ",
"    Xoo..........ooX    ",
"    Xoo..........ooX    ",
"    Xoo..........ooX    ",
"    Xoo..........ooX    ",
"    Xoo..........ooX    ",
"    Xoo..........ooX    ",
"    Xoo..........ooXXXXX",
"    Xoo..........ooooooo",
"    Xoo..........ooooooo",
"    Xoo.................",
"    Xoo.................",
"    Xoo.................",
"    Xoo.................",
"    Xoo.................",
"    Xoo.................",
"    Xoo.................",
"    Xoo.................",
"    Xoo.................",
"    Xoo.................",
"    Xoo..........ooooooo",
"    Xoo..........ooooooo",
"    Xoo..........ooXXXXX",
"    Xoo..........ooX    ",
"    Xoo..........ooX    ",
"    Xoo..........ooX    ",
"    Xoo..........ooX    ",
"    Xoo..........ooX    ",
"    Xoo..........ooX    ",
"    Xoo..........ooX    ",
"    Xoo..........ooX    ",
"XXXXXoo..........ooXXXXX",
"ooooooo..........ooooooo",
"ooooooo..........ooooooo",
"........................",
"........................",
"........................",
"........................",
"........................",
"........................",
"........................",
"........................",
"........................",
"........................",
"oooooooooooooooooooooooo",
"oooooooooooooooooooooooo",
"XXXXXXXXXXXXXXXXXXXXXXXX",
"                        ",
"                        ",
"                        ",
"                        ",
"    Xoo..........ooX    ",
"    Xoo..........ooX    ",
"    Xoo..........ooX    ",
"    Xoo..........ooX    ",
"XXXXXoo..........ooX    ",
"ooooooo..........ooX    ",
"ooooooo..........ooX    ",
".................ooX    ",
".................ooX    ",
".................ooX    ",
".................ooX    ",
".................ooX    ",
".................ooX    ",
".................ooX    ",
".................ooX    ",
".................ooX    ",
".................ooX    ",
"ooooooo..........ooX    ",
"ooooooo..........ooX    ",
"XXXXXoo..........ooX    ",
"    Xoo..........ooX    ",
"    Xoo..........ooX    ",
"    Xoo..........ooX    ",
"    Xoo..........ooX    ",
"                        ",
"                        ",
"                        ",
"                        ",
"XXXXXXXXXXXXXXXXXXXXXXXX",
"oooooooooooooooooooooooo",
"oooooooooooooooooooooooo",
"........................",
"........................",
"........................",
"........................",
"........................",
"........................",
"........................",
"........................",
"........................",
"........................",
"ooooooo..........ooooooo",
"ooooooo..........ooooooo",
"XXXXXoo..........ooXXXXX",
"    Xoo..........ooX    ",
"    Xoo..........ooX    ",
"    Xoo..........ooX    ",
"    Xoo..........ooX    ",
"                        ",
"                        ",
"                        ",
"                        ",
"    XXXXXXXXXXXXXXXXXXXX",
"    Xooooooooooooooooooo",
"    Xooooooooooooooooooo",
"    Xoo.................",
"    Xoo.................",
"    Xoo.................",
"    Xoo.................",
"    Xoo.................",
"    Xoo.................",
"    Xoo.................",
"    Xoo.................",
"    Xoo.................",
"    Xoo.................",
"    Xoo..........ooooooo",
"    Xoo..........ooooooo",
"    Xoo..........ooXXXXX",
"    Xoo..........ooX    ",
"    Xoo..........ooX    ",
"    Xoo..........ooX    ",
"    Xoo..........ooX    ",
"    Xoo..........ooX    ",
"    Xoo..........ooX    ",
"    Xoo..........ooX    ",
"    Xoo..........ooX    ",
"    Xoo..........ooXXXXX",
"    Xoo..........ooooooo",
"    Xoo..........ooooooo",
"    Xoo.................",
"    Xoo.................",
"    Xoo.................",
"    Xoo.................",
"    Xoo.................",
"    Xoo.................",
"    Xoo.................",
"    Xoo.................",
"    Xoo.................",
"    Xoo.................",
"    Xooooooooooooooooooo",
"    Xooooooooooooooooooo",
"    XXXXXXXXXXXXXXXXXXXX",
"                        ",
"                        ",
"                        ",
"                        ",
"    Xoo..........ooX    ",
"    Xoo..........ooX    ",
"    Xoo..........ooX    ",
"    Xoo..........ooX    ",
"XXXXXoo..........ooX    ",
"ooooooo..........ooX    ",
"ooooooo..........ooX    ",
".................ooX    ",
".................ooX    ",
".................ooX    ",
".................ooX    ",
".................ooX    ",
".................ooX    ",
".................ooX    ",
".................ooX    ",
".................ooX    ",
".................ooX    ",
"oooooooooooooooooooX    ",
"oooooooooooooooooooX    ",
"XXXXXXXXXXXXXXXXXXXX    ",
"                        ",
"                        ",
"                        ",
"                        ",
"                        ",
"                        ",
"                        ",
"                        ",
"XXXXXXXXXXXXXXXXXXXX    ",
"oooooooooooooooooooX    ",
"oooooooooooooooooooX    ",
".................ooX    ",
".................ooX    ",
".................ooX    ",
".................ooX    ",
".................ooX    ",
".................ooX    ",
".................ooX    ",
".................ooX    ",
".................ooX    ",
".................ooX    ",
"ooooooo..........ooX    ",
"ooooooo..........ooX    ",
"XXXXXoo..........ooX    ",
"    Xoo..........ooX    ",
"    Xoo..........ooX    ",
"    Xoo..........ooX    ",
"    Xoo..........ooX    ",
"                        ",
"                        ",
"                        ",
"                        ",
"XXX                  XXX",
"ooX                  Xoo",
"ooX                  Xoo",
"ooX                  Xoo",
"ooXXXXXXXXXXXXXXXXXXXXoo",
"ooXXoooooooXXoooooooXXoo",
"ooXXXXXXXXXXXXXXXXXXXXoo",
"ooXX................XXoo",
"ooXX................XXoo",
"ooXXXXXXXXXXXXXXXXXXXXoo",
"ooXXoooooooXXoooooooXXoo",
"ooXXXXXXXXXXXXXXXXXXXXoo",
"ooX                  Xoo",
"ooX                  Xoo",
"ooX                  Xoo",
"XXX                  XXX",
"                        ",
"                        ",
"                        ",
"                        ",
"                        ",
"                        ",
"                        ",
"                        ",
"XXX                  XXX",
"ooX                  Xoo",
"ooX                  Xoo",
"ooX                  Xoo",
"ooXX                XXoo",
"ooXX                XXoo",
"ooXX                XXoo",
"ooX                  Xoo",
"ooX                  Xoo",
"ooXX                XXoo",
"ooXX                XXoo",
"ooXX                XXoo",
"ooX                  Xoo",
"ooX                  Xoo",
"ooX                  Xoo",
"XXX                  XXX",
"                        ",
"                        ",
"                        ",
"                        ",
"    XooooooooooooooX    ",
"    XooooooooooooooX    ",
"    XXXXXXXXXXXXXXXX    ",
"        XXXXXXXX        ",
"        XoX..XoX        ",
"        XoX..XoX        ",
"        XoX..XoX        ",
"        XoX..XoX        ",
"        XoX..XoX        ",
"        XoX..XoX        ",
"        XoX..XoX        ",
"        XXX..XXX        ",
"        XXX..XXX        ",
"        XoX..XoX        ",
"        XoX..XoX        ",
"        XoX..XoX        ",
"        XoX..XoX        ",
"        XoX..XoX        ",
"        XoX..XoX        ",
"        XoX..XoX        ",
"        XXXXXXXX        ",
"    XXXXXXXXXXXXXXXX    ",
"    XooooooooooooooX    ",
"    XooooooooooooooX    ",
"    XooooooooooooooX    ",
"    XooooooooooooooX    ",
"    XXXXXXXXXXXXXXXX    ",
"        XXX  XXX        ",
"                        ",
"                        ",
"                        ",
"                        ",
"                        ",
"                        ",
"                        ",
"                        ",
"                        ",
"                        ",
"                        ",
"                        ",
"                        ",
"                        ",
"                        ",
"                        ",
"        XXX  XXX        ",
"    XXXXXXXXXXXXXXXX    ",
"    XooooooooooooooX    ",
"    XooooooooooooooX    "
};
