/* XPM */
static char* picture[] = {
"24 24 4 1",
" 	c #ff000000",
"X	c #00000000",
"+	c #00f8f7ac",
".	c #00dee283",
"          XXXX          ",
"        XXXXXXXX        ",
"      XXXX....XXXX      ",
"     XXX..++++..XXX     ",
"    XX..+++XX+++..XX    ",
"   XXX.++++XX++++.XXX   ",
"   XX.+++++XX+++++.XX   ",
"   XX.+++++XX+++++.XX   ",
"   XX.+++++XX+++++.XX   ",
"   XX.+++++XX+++++.XX   ",
"   XX.++++++++++++.XX   ",
"    XX.++++XX++++.XX    ",
"    XX.++++XX++++.XX    ",
"     XX.++++++++.XX     ",
"      XX.++++++.XX      ",
"       XX.++++.XX       ",
"        XX.++.XX        ",
"        XX....XX        ",
"         XX..XX         ",
"         XX..XX         ",
"          X..X          ",
"          XXXX          ",
"           XX           ",
"           XX           "};