/* XPM */
static char* picture[] = {
"7 7 3 1",
" 	c #00138819",
"X	c #0000ef0c",
"+	c #ff000000",
"++XXX++",
"+X   X+",
"X     X",
"X     X",
"X     X",
"+X   X+",
"++XXX++"};